<?xml version="1.0" encoding="UTF-8" standalone="no"?>
<!DOCTYPE svg PUBLIC "-//W3C//DTD SVG 1.1//EN" "http://www.w3.org/Graphics/SVG/1.1/DTD/svg11.dtd">
<svg width="100%" height="100%" viewBox="0 0 4096 4096" version="1.1" xmlns="http://www.w3.org/2000/svg" xmlns:xlink="http://www.w3.org/1999/xlink" xml:space="preserve" xmlns:serif="http://www.serif.com/" style="fill-rule:evenodd;clip-rule:evenodd;stroke-linejoin:round;stroke-miterlimit:2;">
    <g id="kubernetes" transform="matrix(17.6116,0,0,18.5468,20.2572,-25.9062)">
        <path d="M225.407,135.107L206.4,52.547C205.366,48.224 202.442,44.586 198.442,42.647L121.507,5.917C117.471,3.991 112.772,3.991 108.736,5.917L31.808,42.669C27.808,44.606 24.883,48.242 23.847,52.564L4.873,135.129C4.009,138.972 4.728,143.006 6.868,146.314C7.129,146.714 7.406,147.102 7.706,147.476L60.952,213.681C63.776,217.128 67.995,219.141 72.451,219.168L157.838,219.148C162.293,219.123 166.512,217.112 169.338,213.668L222.565,147.457C225.324,143.983 226.369,139.441 225.407,135.11L225.407,135.107ZM216.21,138.973C216.082,139.558 215.916,140.133 215.712,140.696C215.222,142.066 214.509,143.345 213.602,144.482L166.303,203.32L164.817,205.172C163.9,206.297 162.806,207.265 161.577,208.037C161.103,208.341 160.61,208.615 160.103,208.859C159.761,209.017 159.413,209.16 159.058,209.289C158.605,209.461 158.143,209.61 157.675,209.734C157.022,209.91 156.358,210.037 155.686,210.113C155.218,210.166 154.747,210.193 154.276,210.195L76.772,210.213L76.012,210.213C74.853,210.206 73.701,210.047 72.583,209.741C71.22,209.38 69.921,208.814 68.728,208.062C67.784,207.461 66.918,206.745 66.152,205.93C65.919,205.684 65.684,205.443 65.472,205.18L16.667,144.501C16.395,144.158 16.14,143.803 15.902,143.435C15.35,142.582 14.899,141.667 14.559,140.709C14.358,140.147 14.194,139.573 14.068,138.99C13.642,137.077 13.643,135.093 14.072,133.181L31.466,57.506C32.415,53.545 35.095,50.212 38.761,48.436L109.269,14.751C112.968,12.986 117.275,12.986 120.974,14.751L191.493,48.421C195.158,50.199 197.838,53.532 198.786,57.494L216.208,133.168C216.637,135.08 216.638,137.063 216.21,138.975L216.21,138.973Z" style="fill:white;fill-rule:nonzero;"/>
    </g>
    <g id="digitalocean" transform="matrix(6.17805,0,0,6.17805,2048,2048)">
        <g transform="matrix(1,0,0,1,-256,-256)">
            <path d="M78,373L78,326L125,326L125,430L182,430L182,300L256,300L256,447C360.78,447 447,360.78 447,256C447,151.22 360.78,65 256,65C151.22,65 65,151.22 65,256L139,256C139,191.816 191.816,139 256,139C320.184,139 373,191.816 373,256C373,320.184 320.184,373 256,373" style="fill:white;fill-rule:nonzero;"/>
        </g>
    </g>
</svg>
