<?xml version="1.0" encoding="UTF-8" standalone="no"?>
<!DOCTYPE svg PUBLIC "-//W3C//DTD SVG 1.1//EN" "http://www.w3.org/Graphics/SVG/1.1/DTD/svg11.dtd">
<svg width="100%" height="100%" viewBox="0 0 4096 4096" version="1.1" xmlns="http://www.w3.org/2000/svg" xmlns:xlink="http://www.w3.org/1999/xlink" xml:space="preserve" xmlns:serif="http://www.serif.com/" style="fill-rule:evenodd;clip-rule:evenodd;stroke-linejoin:round;stroke-miterlimit:2;">
    <g id="kubernetes" transform="matrix(17.6116,0,0,18.5468,20.2572,-25.9062)">
        <path d="M225.407,135.107L206.4,52.547C205.366,48.224 202.442,44.586 198.442,42.647L121.507,5.917C117.471,3.991 112.772,3.991 108.736,5.917L31.808,42.669C27.808,44.606 24.883,48.242 23.847,52.564L4.873,135.129C4.009,138.972 4.728,143.006 6.868,146.314C7.129,146.714 7.406,147.102 7.706,147.476L60.952,213.681C63.776,217.128 67.995,219.141 72.451,219.168L157.838,219.148C162.293,219.123 166.512,217.112 169.338,213.668L222.565,147.457C225.324,143.983 226.369,139.441 225.407,135.11L225.407,135.107ZM216.21,138.973C216.082,139.558 215.916,140.133 215.712,140.696C215.222,142.066 214.509,143.345 213.602,144.482L166.303,203.32L164.817,205.172C163.9,206.297 162.806,207.265 161.577,208.037C161.103,208.341 160.61,208.615 160.103,208.859C159.761,209.017 159.413,209.16 159.058,209.289C158.605,209.461 158.143,209.61 157.675,209.734C157.022,209.91 156.358,210.037 155.686,210.113C155.218,210.166 154.747,210.193 154.276,210.195L76.772,210.213L76.012,210.213C74.853,210.206 73.701,210.047 72.583,209.741C71.22,209.38 69.921,208.814 68.728,208.062C67.784,207.461 66.918,206.745 66.152,205.93C65.919,205.684 65.684,205.443 65.472,205.18L16.667,144.501C16.395,144.158 16.14,143.803 15.902,143.435C15.35,142.582 14.899,141.667 14.559,140.709C14.358,140.147 14.194,139.573 14.068,138.99C13.642,137.077 13.643,135.093 14.072,133.181L31.466,57.506C32.415,53.545 35.095,50.212 38.761,48.436L109.269,14.751C112.968,12.986 117.275,12.986 120.974,14.751L191.493,48.421C195.158,50.199 197.838,53.532 198.786,57.494L216.208,133.168C216.637,135.08 216.638,137.063 216.21,138.975L216.21,138.973Z" style="fill:white;fill-rule:nonzero;"/>
    </g>
    <g id="rancher" transform="matrix(11.923,0,0,11.923,2048,2048)">
        <g transform="matrix(1,0,0,1,-121.1,-53.7)">
            <g>
                <g>
                    <path d="M229,23.6L226.5,8.7C225.7,3.9 223.8,0 222.4,0C220.9,0 219.7,4 219.7,8.8L219.7,12.7C219.7,17.5 215.7,21.5 210.9,21.5L206.2,21.5L206.2,32.2L221.7,32.2C226.5,32.2 229.8,28.3 229,23.6" style="fill:white;fill-rule:nonzero;"/>
                    <path d="M193.9,11L145.2,11C144.9,11 144.6,11 144.4,11.1L144.4,8.8C144.4,4 143.2,0 141.7,0C140.2,0 138.4,3.9 137.6,8.7L135.1,23.6C134.3,28.4 137.6,32.3 142.5,32.3L157.1,32.3C158.6,32.3 160,32.1 161.3,31.7C160.8,34.2 158.7,36.1 156,36.1L135.5,36.1C132.2,36.1 129.7,33.1 130.2,29.8L132.3,17.3C132.8,14 130.3,11 127,11L24.8,11C22.6,11 20.8,12.3 19.9,14.2L0.7,43.5C0.4,44 0.4,44.6 0.8,45.1L4.5,49.5C5,50.1 5.8,50.1 6.4,49.7L19.5,39.4L19.5,102C19.5,105 21.9,107.4 24.9,107.4L53.9,107.4C56.9,107.4 59.3,105 59.3,102L59.3,80.2C59.3,77.2 61.7,74.8 64.7,74.8L137.1,74.8C140.1,74.8 142.5,77.2 142.5,80.2L142.5,102C142.5,105 144.9,107.4 147.9,107.4L176.9,107.4C179.9,107.4 182.3,105 182.3,102L182.3,78.6L166.9,78.6C162.1,78.6 158.1,74.6 158.1,69.8L158.1,54.7C158.1,51.8 159.5,49.3 161.6,47.7L161.6,65.7C161.6,70.5 165.6,74.5 170.4,74.5L194.1,74.5C198.9,74.5 202.9,70.5 202.9,65.7L202.9,19.9C202.7,14.9 198.8,11 193.9,11" style="fill:white;fill-rule:nonzero;"/>
                </g>
                <g>
                    <path d="M230.6,5.6C230.6,1.7 233.5,0 236.2,0C238.9,0 241.8,1.7 241.8,5.6C241.8,9.4 238.9,11.1 236.2,11.1C233.5,11.1 230.6,9.4 230.6,5.6ZM240.5,5.6C240.5,2.5 238.5,1.2 236.3,1.2C234.1,1.2 232,2.5 232,5.6C232,8.6 234.1,10 236.3,10C238.5,9.9 240.5,8.6 240.5,5.6ZM234.4,2.8L236.4,2.8C237.4,2.8 238.4,3.1 238.4,4.5C238.4,5.3 237.8,5.8 237.1,6L238.4,8.3L237.2,8.3L236,6.1L235.5,6.1L235.5,8.3L234.4,8.3L234.4,2.8ZM236.4,5.3C236.9,5.3 237.3,5 237.3,4.5C237.3,3.9 236.8,3.8 236.4,3.8L235.4,3.8L235.4,5.3L236.4,5.3Z" style="fill:white;fill-rule:nonzero;"/>
                </g>
            </g>
        </g>
    </g>
</svg>
