<?xml version="1.0" encoding="UTF-8" standalone="no"?>
<!DOCTYPE svg PUBLIC "-//W3C//DTD SVG 1.1//EN" "http://www.w3.org/Graphics/SVG/1.1/DTD/svg11.dtd">
<svg width="100%" height="100%" viewBox="0 0 540 540" version="1.1" xmlns="http://www.w3.org/2000/svg" xmlns:xlink="http://www.w3.org/1999/xlink" xml:space="preserve" xmlns:serif="http://www.serif.com/" style="fill-rule:evenodd;clip-rule:evenodd;stroke-linejoin:round;stroke-miterlimit:2;">
    <g id="background" transform="matrix(0.510348,0,0,1.1039,-179.086,-365.081)">
        <rect x="350.91" y="330.718" width="1058.1" height="489.174" style="fill:rgb(50,108,229);"/>
    </g>
    <g id="kubernetes" transform="matrix(1.62795,0,0,1.71439,82.5638,78.2966)">
        <path d="M225.407,135.107L206.4,52.547C205.366,48.224 202.442,44.586 198.442,42.647L121.507,5.917C117.471,3.991 112.772,3.991 108.736,5.917L31.808,42.669C27.808,44.606 24.883,48.242 23.847,52.564L4.873,135.129C4.009,138.972 4.728,143.006 6.868,146.314C7.129,146.714 7.406,147.102 7.706,147.476L60.952,213.681C63.776,217.128 67.995,219.141 72.451,219.168L157.838,219.148C162.293,219.123 166.512,217.112 169.338,213.668L222.565,147.457C225.324,143.983 226.369,139.441 225.407,135.11L225.407,135.107ZM216.21,138.973C216.082,139.558 215.916,140.133 215.712,140.696C215.222,142.066 214.509,143.345 213.602,144.482L166.303,203.32L164.817,205.172C163.9,206.297 162.806,207.265 161.577,208.037C161.103,208.341 160.61,208.615 160.103,208.859C159.761,209.017 159.413,209.16 159.058,209.289C158.605,209.461 158.143,209.61 157.675,209.734C157.022,209.91 156.358,210.037 155.686,210.113C155.218,210.166 154.747,210.193 154.276,210.195L76.772,210.213L76.012,210.213C74.853,210.206 73.701,210.047 72.583,209.741C71.22,209.38 69.921,208.814 68.728,208.062C67.784,207.461 66.918,206.745 66.152,205.93C65.919,205.684 65.684,205.443 65.472,205.18L16.667,144.501C16.395,144.158 16.14,143.803 15.902,143.435C15.35,142.582 14.899,141.667 14.559,140.709C14.358,140.147 14.194,139.573 14.068,138.99C13.642,137.077 13.643,135.093 14.072,133.181L31.466,57.506C32.415,53.545 35.095,50.212 38.761,48.436L109.269,14.751C112.968,12.986 117.275,12.986 120.974,14.751L191.493,48.421C195.158,50.199 197.838,53.532 198.786,57.494L216.208,133.168C216.637,135.08 216.638,137.063 216.21,138.975L216.21,138.973Z" style="fill:white;fill-rule:nonzero;"/>
    </g>
    <g id="gcp" transform="matrix(0.0936533,0,0,0.0936533,270,270)">
        <g transform="matrix(1,0,0,1,-1134.3,-911.85)">
            <clipPath id="_clip1">
                <rect x="0" y="0" width="2268.6" height="1823.7"/>
            </clipPath>
            <g clip-path="url(#_clip1)">
                <path d="M1508.7,503.5L1705.9,306.3L1719,223.3C1359.7,-103.5 788.5,-66.4 464.5,300.6C374.5,402.5 307.8,529.6 272.2,660.9L342.8,650.9L737.2,585.9L767.6,554.8C943,362.1 1239.7,336.2 1442.2,500.1L1508.7,503.5Z" style="fill:white;fill-rule:nonzero;"/>
                <path d="M1986.9,655C1941.6,488.1 1848.5,338 1719.1,223.2L1442.3,500C1559.2,595.5 1625.7,739.3 1622.9,890.2L1622.9,939.3C1758.9,939.3 1869.2,1049.6 1869.2,1185.6C1869.2,1321.6 1758.9,1429.2 1622.9,1429.2L1129.6,1429.2L1081.2,1481.8L1081.2,1777.3L1129.6,1823.7L1622.9,1823.7C1976.7,1826.5 2265.8,1544.6 2268.6,1190.8C2270.3,976.3 2164.5,775.2 1986.9,655" style="fill:white;fill-rule:nonzero;"/>
                <path d="M636.9,1823.7L1129.6,1823.7L1129.6,1429.3L636.9,1429.3C602,1429.3 567.6,1421.7 535.9,1407.2L466,1428.6L267.4,1625.8L250.1,1692.9C361.5,1777 497.4,1824.3 636.9,1823.7" style="fill:white;fill-rule:nonzero;"/>
                <path d="M636.9,544.3C283,546.4 -2.1,835 0,1188.9C1.2,1386.5 93.5,1572.5 250.1,1693L535.9,1407.2C411.9,1351.2 356.8,1205.3 412.8,1081.3C468.8,957.3 614.7,902.2 738.7,958.2C793.3,982.9 837.1,1026.6 861.8,1081.3L1147.6,795.5C1026,636.5 837,543.6 636.9,544.3" style="fill:white;fill-rule:nonzero;"/>
            </g>
        </g>
    </g>
</svg>
