<?xml version="1.0" encoding="UTF-8" standalone="no"?>
<!DOCTYPE svg PUBLIC "-//W3C//DTD SVG 1.1//EN" "http://www.w3.org/Graphics/SVG/1.1/DTD/svg11.dtd">
<svg width="100%" height="100%" viewBox="0 0 8192 8192" version="1.1" xmlns="http://www.w3.org/2000/svg" xmlns:xlink="http://www.w3.org/1999/xlink" xml:space="preserve" xmlns:serif="http://www.serif.com/" style="fill-rule:evenodd;clip-rule:evenodd;stroke-linejoin:round;stroke-miterlimit:2;">
    <g id="g70" transform="matrix(162.625,0,0,162.625,7226.43,-1637.67)">
        <path id="path3054-2-9" d="M-19.424,10.822C-19.869,10.845 -20.304,10.956 -20.705,11.148L-38.22,19.514C-39.138,19.952 -39.805,20.783 -40.032,21.767L-44.352,40.563C-44.554,41.438 -44.39,42.358 -43.898,43.112C-43.838,43.202 -43.775,43.29 -43.707,43.375L-31.586,58.447C-30.95,59.237 -29.986,59.697 -28.967,59.697L-9.528,59.693C-8.51,59.693 -7.546,59.234 -6.91,58.445L5.207,43.37C5.842,42.581 6.08,41.546 5.854,40.561L1.528,21.763C1.3,20.779 0.633,19.95 -0.284,19.512L-17.799,11.146C-18.304,10.905 -18.863,10.793 -19.424,10.822ZM-19.415,12.112C-18.885,12.085 -18.356,12.191 -17.877,12.419L-1.286,20.342C-0.416,20.757 0.216,21.543 0.431,22.476L4.53,40.281C4.745,41.215 4.519,42.196 3.917,42.944L-7.562,57.223C-8.164,57.97 -9.078,58.405 -10.042,58.405L-28.456,58.409C-29.421,58.409 -30.335,57.973 -30.936,57.225L-42.419,42.948C-42.483,42.868 -42.543,42.784 -42.599,42.698C-43.065,41.985 -43.221,41.114 -43.03,40.286L-38.937,22.48C-38.722,21.548 -38.09,20.761 -37.221,20.346L-20.631,12.419C-20.251,12.238 -19.837,12.133 -19.415,12.112Z" style="fill:white;fill-rule:nonzero;"/>
    </g>
    <g transform="matrix(4.95992,0,0,4.95992,2112.03,2112.07)">
        <path d="M127.71,184.803L602.352,184.803C616.969,184.803 628.819,172.953 628.819,158.336C628.819,143.719 616.969,131.868 602.352,131.868L127.71,131.868C113.093,131.868 101.243,143.719 101.243,158.336C101.243,172.953 113.093,184.803 127.71,184.803Z" style="fill:white;fill-rule:nonzero;"/>
        <path d="M127.71,297.729L602.352,297.729C616.969,297.729 628.819,285.879 628.819,271.262C628.819,256.645 616.969,244.794 602.352,244.794L127.71,244.794C113.093,244.794 101.243,256.645 101.243,271.262C101.243,285.879 113.093,297.729 127.71,297.729Z" style="fill:white;fill-rule:nonzero;"/>
        <path d="M379.524,357.722L127.71,357.722C113.093,357.722 101.243,369.573 101.243,384.19C101.243,398.807 113.093,410.658 127.71,410.658L379.524,410.658C394.141,410.658 405.991,398.807 405.991,384.19C405.991,369.573 394.141,357.722 379.524,357.722Z" style="fill:white;fill-rule:nonzero;"/>
        <path d="M798.521,760.125L729.323,623.116L756.099,612.43C763.131,609.623 769.031,601.506 769.532,593.95L771.813,559.596C772.195,553.84 775.111,544.862 778.184,539.986L796.527,510.852C800.562,504.447 800.562,494.411 796.529,488.004L778.184,458.871C775.115,453.994 772.197,445.012 771.814,439.261L769.536,404.906C769.105,398.438 764.712,391.569 759.049,387.962L759.049,69.463C759.049,40.274 735.303,16.528 706.116,16.528L52.933,16.528C23.746,16.528 0,40.274 0,69.463L0,522.892C0,552.081 23.746,575.825 52.933,575.825L469.281,575.825L470.484,593.952C470.986,601.508 476.885,609.623 483.917,612.43L509.056,622.463L439.526,760.125C437.387,764.363 437.96,766.916 438.819,768.311C439.363,769.196 440.695,770.677 443.5,770.677C444.903,770.677 446.519,770.298 448.304,769.553L505.26,745.707C506.66,745.12 508.327,744.811 510.078,744.811C514.262,744.811 518.526,746.542 520.94,749.215L548.3,779.55C550.58,782.079 553.404,783.472 556.246,783.472C559.998,783.472 563.364,781.047 565.245,776.989L618.848,661.36C618.965,661.358 619.08,661.358 619.197,661.356L672.802,776.989C674.683,781.049 678.047,783.472 681.803,783.472C684.643,783.472 687.467,782.079 689.747,779.548L717.106,749.217C719.521,746.542 723.785,744.811 727.967,744.811C729.717,744.811 731.385,745.12 732.786,745.707L789.741,769.553C791.526,770.298 793.142,770.677 794.545,770.677C797.352,770.677 798.683,769.195 799.226,768.311C800.087,766.916 800.661,764.363 798.521,760.125ZM52.933,69.463L706.112,69.463L706.116,359.947L685.424,335.053C681.647,330.509 674.73,327.457 668.215,327.457C666.629,327.457 665.111,327.639 663.701,327.997L630.307,336.497C624.988,337.849 615.026,337.849 609.705,336.497L576.315,327.997C574.905,327.639 573.387,327.457 571.8,327.457C565.284,327.457 558.369,330.509 554.591,335.053L532.575,361.543C528.894,365.975 521.259,371.523 515.908,373.659L483.92,386.428C476.887,389.235 470.986,397.35 470.485,404.906L468.205,439.261C467.825,445.016 464.908,453.994 461.835,458.871L443.493,488.004C439.457,494.409 439.457,504.447 443.493,510.852L451.072,522.89L52.933,522.89L52.933,69.463ZM620.006,611.963C557.855,611.963 507.471,561.581 507.471,499.428C507.471,437.275 557.855,386.893 620.006,386.893C682.159,386.893 732.544,437.275 732.544,499.428C732.546,561.581 682.159,611.963 620.006,611.963Z" style="fill:white;fill-rule:nonzero;"/>
    </g>
</svg>
