<?xml version="1.0" encoding="UTF-8" standalone="no"?>
<!DOCTYPE svg PUBLIC "-//W3C//DTD SVG 1.1//EN" "http://www.w3.org/Graphics/SVG/1.1/DTD/svg11.dtd">
<svg width="100%" height="100%" viewBox="0 0 4096 4096" version="1.1" xmlns="http://www.w3.org/2000/svg" xmlns:xlink="http://www.w3.org/1999/xlink" xml:space="preserve" xmlns:serif="http://www.serif.com/" style="fill-rule:evenodd;clip-rule:evenodd;stroke-linejoin:round;stroke-miterlimit:2;">
    <g id="kubernetes" transform="matrix(17.6116,0,0,18.5468,20.2572,-25.9062)">
        <path d="M225.407,135.107L206.4,52.547C205.366,48.224 202.442,44.586 198.442,42.647L121.507,5.917C117.471,3.991 112.772,3.991 108.736,5.917L31.808,42.669C27.808,44.606 24.883,48.242 23.847,52.564L4.873,135.129C4.009,138.972 4.728,143.006 6.868,146.314C7.129,146.714 7.406,147.102 7.706,147.476L60.952,213.681C63.776,217.128 67.995,219.141 72.451,219.168L157.838,219.148C162.293,219.123 166.512,217.112 169.338,213.668L222.565,147.457C225.324,143.983 226.369,139.441 225.407,135.11L225.407,135.107ZM216.21,138.973C216.082,139.558 215.916,140.133 215.712,140.696C215.222,142.066 214.509,143.345 213.602,144.482L166.303,203.32L164.817,205.172C163.9,206.297 162.806,207.265 161.577,208.037C161.103,208.341 160.61,208.615 160.103,208.859C159.761,209.017 159.413,209.16 159.058,209.289C158.605,209.461 158.143,209.61 157.675,209.734C157.022,209.91 156.358,210.037 155.686,210.113C155.218,210.166 154.747,210.193 154.276,210.195L76.772,210.213L76.012,210.213C74.853,210.206 73.701,210.047 72.583,209.741C71.22,209.38 69.921,208.814 68.728,208.062C67.784,207.461 66.918,206.745 66.152,205.93C65.919,205.684 65.684,205.443 65.472,205.18L16.667,144.501C16.395,144.158 16.14,143.803 15.902,143.435C15.35,142.582 14.899,141.667 14.559,140.709C14.358,140.147 14.194,139.573 14.068,138.99C13.642,137.077 13.643,135.093 14.072,133.181L31.466,57.506C32.415,53.545 35.095,50.212 38.761,48.436L109.269,14.751C112.968,12.986 117.275,12.986 120.974,14.751L191.493,48.421C195.158,50.199 197.838,53.532 198.786,57.494L216.208,133.168C216.637,135.08 216.638,137.063 216.21,138.975L216.21,138.973Z" style="fill:white;fill-rule:nonzero;"/>
    </g>
    <g id="cert-manager" transform="matrix(3.88158,0,0,3.88158,500.194,509.571)">
        <g id="Waves">
            <g>
                <g id="g3847">
                    <g id="path3841">
                        <path d="M708.029,377.027C685.814,377.027 674.538,371.711 663.632,366.571C652.537,361.341 642.057,356.401 620.514,356.401C598.969,356.401 588.487,361.342 577.39,366.572C566.483,371.712 555.206,377.027 532.998,377.027C510.789,377.027 499.515,371.712 488.611,366.572C477.517,361.341 467.036,356.401 445.492,356.401C423.949,356.401 413.472,361.341 402.379,366.571C391.476,371.711 380.201,377.027 357.987,377.027C335.772,377.027 324.498,371.711 313.594,366.571C302.501,361.341 292.024,356.401 270.481,356.401C248.937,356.401 238.455,361.342 227.357,366.572C216.451,371.712 205.174,377.027 182.965,377.027C160.757,377.027 149.482,371.712 138.579,366.572C127.484,361.341 117.004,356.401 95.46,356.401L95.46,353.401C117.676,353.401 128.953,358.717 139.858,363.858C150.951,369.087 161.429,374.027 182.965,374.027C204.502,374.027 214.983,369.087 226.078,363.858C236.986,358.717 248.265,353.401 270.481,353.401C292.696,353.401 303.97,358.717 314.874,363.857C325.966,369.087 336.443,374.027 357.987,374.027C379.529,374.027 390.007,369.087 401.1,363.857C412.003,358.717 423.277,353.401 445.492,353.401C467.708,353.401 478.984,358.717 489.891,363.858C500.983,369.087 511.461,374.027 532.998,374.027C554.534,374.027 565.015,369.087 576.11,363.858C587.019,358.717 598.298,353.401 620.514,353.401C642.729,353.401 654.005,358.717 664.911,363.857C676.006,369.087 686.486,374.027 708.029,374.027L708.029,377.027Z" style="fill:white;fill-rule:nonzero;"/>
                    </g>
                    <g id="path3843">
                        <path d="M708.029,419.279C685.591,419.279 674.211,413.914 663.205,408.727C652.215,403.546 641.833,398.653 620.514,398.653C599.193,398.653 588.81,403.546 577.815,408.728C566.811,413.915 555.43,419.279 532.998,419.279C510.565,419.279 499.188,413.915 488.185,408.728C477.193,403.546 466.813,398.653 445.492,398.653C424.173,398.653 413.794,403.546 402.806,408.727C391.803,413.914 380.425,419.279 357.987,419.279C335.548,419.279 324.17,413.914 313.168,408.727C302.179,403.546 291.8,398.653 270.481,398.653C249.16,398.653 238.777,403.546 227.783,408.728C216.778,413.915 205.397,419.279 182.965,419.279C160.533,419.279 149.155,413.915 138.152,408.728C127.162,403.546 116.78,398.653 95.46,398.653L95.46,393.653C117.9,393.653 129.279,399.017 140.285,404.205C151.273,409.385 161.652,414.279 182.965,414.279C204.278,414.279 214.66,409.385 225.651,404.205C236.659,399.017 248.041,393.653 270.481,393.653C292.92,393.653 304.297,399.017 315.3,404.204C326.289,409.385 336.667,414.279 357.987,414.279C379.306,414.279 389.685,409.385 400.673,404.204C411.676,399.017 423.054,393.653 445.492,393.653C467.932,393.653 479.311,399.017 490.316,404.205C501.306,409.385 511.685,414.279 532.998,414.279C554.31,414.279 564.692,409.385 575.684,404.205C586.691,399.017 598.074,393.653 620.514,393.653C642.952,393.653 654.332,399.017 665.338,404.204C676.328,409.385 686.71,414.279 708.029,414.279L708.029,419.279Z" style="fill:white;fill-rule:nonzero;"/>
                    </g>
                    <g id="path3845">
                        <path d="M708.029,469.78C685.367,469.78 673.884,464.368 662.779,459.134C651.893,454.002 641.609,449.155 620.514,449.155C599.417,449.155 589.132,454.003 578.242,459.135C567.137,464.368 555.653,469.78 532.998,469.78C510.342,469.78 498.861,464.368 487.758,459.135C476.872,454.003 466.589,449.155 445.492,449.155C424.396,449.155 414.116,454.002 403.231,459.134C392.13,464.368 380.649,469.78 357.987,469.78C335.324,469.78 323.844,464.368 312.741,459.134C301.857,454.002 291.577,449.155 270.481,449.155C249.384,449.155 239.099,454.003 228.209,459.135C217.104,464.368 205.621,469.78 182.965,469.78C160.309,469.78 148.829,464.368 137.726,459.135C126.839,454.003 116.557,449.155 95.46,449.155L95.46,442.155C118.124,442.155 129.606,447.569 140.711,452.803C151.595,457.934 161.877,462.78 182.965,462.78C204.054,462.78 214.338,457.934 225.225,452.803C236.332,447.569 247.817,442.155 270.481,442.155C293.144,442.155 304.624,447.568 315.727,452.802C326.611,457.934 336.892,462.78 357.987,462.78C379.082,462.78 389.362,457.934 400.247,452.802C411.349,447.568 422.829,442.155 445.492,442.155C468.156,442.155 479.639,447.569 490.743,452.803C501.628,457.934 511.909,462.78 532.998,462.78C554.087,462.78 564.37,457.934 575.258,452.803C586.365,447.569 597.85,442.155 620.514,442.155C643.176,442.155 654.659,447.568 665.764,452.802C676.65,457.934 686.934,462.78 708.029,462.78L708.029,469.78Z" style="fill:white;fill-rule:nonzero;"/>
                    </g>
                </g>
            </g>
        </g>
        <g id="wQjLs5.tif">
            <path d="M69.973,396.082C70.645,213.949 216.279,70.567 392.518,67.529C579.746,64.301 725.352,214.467 727.514,391.767C729.764,576.289 581.355,725.106 399.102,725.203C217.223,725.299 70.297,578.461 69.973,396.082ZM698.831,396.188C698.918,231.158 566.145,98.092 402.523,96.166C233.129,94.172 98.459,230.628 98.675,396.57C98.675,396.647 98.675,396.724 98.675,396.8C98.675,561.244 233.991,696.56 398.434,696.56C398.584,696.56 398.734,696.56 398.884,696.56C565.44,696.503 699.113,561.487 698.831,396.188Z" style="fill:rgb(253,253,254);fill-rule:nonzero;"/>
            <path d="M412.517,420.835C412.517,439.351 412.517,457.867 412.517,476.382C412.517,480.898 412.565,480.892 417.053,480.7C426.991,480.158 436.86,478.72 446.54,476.401C462.575,472.764 474.271,463.211 483.38,449.988C484.279,448.683 484.326,447.812 482.431,447.261C476.056,445.409 475.656,443.715 480.478,439.051C488.099,431.679 495.753,424.34 503.441,417.036C506.422,414.188 509.126,414.83 510.114,418.761C512.785,429.397 515.384,440.05 517.911,450.722C518.789,454.425 516.072,456.974 512.336,456.14C511.714,456.006 511.103,455.823 510.509,455.594C508.657,454.86 507.527,455.615 506.638,457.244C503.008,464.033 498.8,470.496 494.059,476.561C484.564,488.5 473.326,498.43 459.841,505.565C449.729,510.915 439.47,516.068 428.311,519.027C425.642,519.819 422.891,520.304 420.112,520.472C417.608,520.55 415.851,521.83 414.171,523.508C410.392,527.285 406.543,530.992 402.693,534.699C400.054,537.24 397.41,537.222 394.762,534.643C390.479,530.465 386.221,526.262 381.986,522.036C381,521 379.711,520.302 378.305,520.041C357.501,515.977 339.533,506.115 323.341,492.791C310.424,482.067 299.843,468.805 292.256,453.829C290.463,450.362 288.531,449.497 284.626,450.266C280.747,451.031 278.711,448.886 279.88,445.122C283.281,434.171 286.721,423.233 290.202,412.308C291.153,409.32 294.005,408.697 296.137,411.013C304.122,419.69 312.081,428.39 320.014,437.113C322.165,439.471 320.921,442.495 318.065,442.799C317.439,442.913 316.819,443.065 316.21,443.253C314.328,443.687 314.18,444.67 315.119,446.218C320.089,454.708 326.84,462.023 334.905,467.657C339.299,470.649 344.572,472.108 349.703,473.544C361.233,476.713 373.02,478.861 384.927,479.963C387.394,480.204 388.174,479.527 388.188,476.837C388.22,470.852 388.199,464.866 388.199,458.88C388.199,427.595 388.199,396.31 388.198,365.025C388.198,361.428 387.961,361.174 384.476,361.171C376.579,361.164 368.681,361.218 360.785,361.139C358.476,361.147 356.214,361.798 354.255,363.019C348.784,366.177 343.351,365.532 338.648,361.317C334.695,357.773 333.558,351.673 335.86,346.353C338.819,339.514 348.007,336.705 354.279,340.764C356.2,342.058 358.47,342.736 360.786,342.705C368.764,342.627 376.744,342.682 384.723,342.672C387.76,342.668 388.188,342.23 388.197,339.216C388.205,336.582 388.081,333.941 388.237,331.317C388.357,329.3 387.492,328.31 385.721,327.552C378.429,324.429 371.952,320.209 367.707,313.25C352.918,289.002 367.514,261.683 391.754,256.849C407.966,253.69 424.428,261.712 431.931,276.427C440.075,292.775 436.094,315.407 416.227,325.519C413.443,326.936 412.138,328.613 412.455,331.817C412.649,334.764 412.663,337.72 412.497,340.669C412.462,342.12 413.054,342.685 414.46,342.682C422.601,342.663 430.742,342.675 438.883,342.669C440.319,342.525 441.68,341.96 442.797,341.046C447.787,337.683 454.501,338.243 458.866,342.386C463.06,346.551 464.06,353.005 461.324,358.245C458.364,363.468 452.206,366.058 446.402,364.52C445.93,364.443 445.478,364.267 445.078,364.003C441.001,360.538 436.14,361.24 431.407,361.457C426.077,361.802 420.731,361.853 415.395,361.608C413.036,361.456 412.462,362.315 412.472,364.57C412.551,383.325 412.517,402.08 412.517,420.835ZM399.013,312.08C409.012,312.323 417.43,303.902 417.677,293.412C417.679,293.295 417.68,293.178 417.68,293.06C417.68,282.708 409.162,274.19 398.81,274.19C388.687,274.19 380.275,282.334 379.949,292.452C379.632,303.693 387.507,311.801 399.013,312.08Z" style="fill:rgb(253,253,254);fill-rule:nonzero;"/>
            <path d="M209.053,537.028C204.882,539.686 201.338,543.132 197.502,546.212C196.881,546.711 196.264,547.218 195.609,547.668C194.637,548.457 193.241,548.48 192.244,547.722C189.957,545.983 188.165,543.675 187.047,541.029C186.415,539.374 187.864,538.256 189.03,537.311C194.351,533 199.723,528.753 205.035,524.431C209.171,521.065 213.27,517.654 217.332,514.198C218.948,512.817 220.355,512.627 221.881,514.244C222.645,515.053 223.525,515.75 224.32,516.53C226.772,518.938 227.066,521.645 225.788,524.813C223.657,530.098 221.741,535.469 219.62,541.108C225.18,540.308 230.444,539.605 235.688,538.779C240.127,537.992 244.593,540.189 246.678,544.185C247.699,546.108 247.025,547.474 245.474,548.725C238.348,554.471 231.237,560.235 224.139,566.017C221.73,567.974 219.375,569.999 216.936,571.919C214.115,574.139 213.031,573.956 210.892,571.151C210.122,570.141 209.308,569.16 208.46,568.215C206.661,566.21 206.712,564.676 208.8,562.953C212.3,560.064 215.844,557.23 219.356,554.356C219.866,553.938 220.839,553.612 220.504,552.826C220.218,552.155 219.255,552.234 218.557,552.279C216.97,552.382 215.385,552.542 213.805,552.726C208.533,553.34 205.408,549.622 206.993,544.573C207.754,542.15 208.568,539.742 209.356,537.326C209.355,537.152 209.356,536.978 209.356,536.804L209.053,537.028Z" style="fill:rgb(253,253,254);fill-rule:nonzero;"/>
            <path d="M124.839,400.618C128.061,401.626 131.171,402.958 134.124,404.593C150.503,412.908 167.901,414.734 185.921,413.31C197.558,412.391 208.314,408.713 218.676,403.613C232.218,396.752 247.142,393.052 262.321,392.794C278.614,392.593 294.059,395.446 308.73,402.691C316.699,406.626 324.863,410.195 333.692,411.907C343.657,413.728 353.819,414.221 363.913,413.375C369.475,412.961 374.982,411.987 380.35,410.469C381.572,410.128 381.831,410.451 381.89,411.639C382.081,415.513 382.153,415.635 378.47,416.401C355.83,421.113 333.709,420.219 312.452,410.16C307.351,407.746 302.311,405.141 297.04,403.166C291.146,400.975 285,399.534 278.747,398.877C265.02,397.404 251.361,397.676 237.973,401.55C230.917,403.592 224.313,406.79 217.706,409.915C205.962,415.533 193.166,418.614 180.153,418.958C168.533,419.276 157.104,418.449 145.952,415.001C139.019,412.857 132.55,409.582 125.925,406.688C125.22,406.483 124.756,405.8 124.823,405.069C124.883,403.643 124.839,402.213 124.839,400.618Z" style="fill:rgb(253,253,254);fill-rule:nonzero;"/>
            <path d="M464.499,163.969C464.231,170.044 462.427,175.242 456.404,177.983C454.616,178.796 454.293,179.984 454.877,181.831C456.167,185.916 457.306,190.05 458.423,194.187C459.035,196.448 458.328,197.492 456.004,197.319C449.681,196.85 447.103,196.992 444.903,189.653C444.06,186.841 443.1,184.056 442.414,181.206C441.657,178.062 439.739,177.697 436.777,177.809C435.769,177.847 435.608,178.614 435.439,179.47C434.9,182.204 434.325,184.934 433.64,187.633C433.089,189.804 432.02,191.752 429.593,192.156C426.884,192.58 424.12,191.814 422.016,190.055C420.711,189.024 421.293,187.376 421.56,186C423.468,176.155 425.401,166.315 427.36,156.48C427.915,153.673 428.453,150.863 429.065,148.068C429.41,146.491 430.33,145.414 432.101,145.753C440.519,147.362 449.142,148.249 457.033,151.881C461.93,154.135 464.473,158.614 464.499,163.969ZM438.09,162.95C437.899,166.223 440.086,168.826 443.602,168.364C444.626,168.318 445.651,168.391 446.658,168.579C448.722,168.785 450.619,168.22 451.552,166.052C452.465,164.292 451.985,162.111 450.418,160.897C448.295,159.053 445.528,158.115 442.721,158.289C439.556,158.354 438.076,159.84 438.09,162.95Z" style="fill:rgb(253,253,254);fill-rule:nonzero;"/>
            <path d="M342.283,622.507C343.721,617.125 345.17,611.746 346.592,606.36C347.675,602.263 348.813,601.609 352.94,602.785C353.553,602.96 354.167,603.132 354.78,603.305C359.116,604.531 359.635,605.459 358.399,609.815C355.64,619.544 352.862,629.266 350.131,639.002C349.595,640.915 349.234,642.876 348.801,644.817C348.705,645.997 347.707,646.916 346.524,646.916C346.386,646.916 346.248,646.904 346.112,646.879C339.626,646.397 338.018,645.385 336.331,639.831C334.513,633.844 332.333,627.967 330.29,622.049C329.951,621.278 329.572,620.526 329.153,619.796C327.773,624.881 326.47,629.328 325.367,633.824C323.561,641.19 322.884,640.894 316.508,639.097C312.459,637.957 311.842,636.896 313.021,632.753C316.332,621.116 319.958,609.564 322.619,597.75C322.735,596.442 323.843,595.427 325.156,595.427C325.32,595.427 325.484,595.443 325.645,595.474C331.281,595.783 333.385,597.363 335.162,602.71C337.358,609.319 339.56,615.927 341.766,622.532L342.283,622.507Z" style="fill:rgb(253,253,254);fill-rule:nonzero;"/>
            <path d="M578.601,516.917C586.76,517.138 592.344,522.221 593.363,529.822C593.92,533.977 594.064,534.061 598.34,534.757C601.721,535.308 605.089,535.959 608.445,536.651C610.814,537.14 611.185,537.972 610.081,540.139C607.558,545.092 603.705,548.693 596.937,546.332C594.647,545.648 592.304,545.156 589.932,544.861C587.559,544.534 585.307,546.11 584.801,548.452C584.52,549.593 585.41,549.842 585.951,550.286C588.408,552.3 590.916,554.252 593.42,556.209C594.279,556.746 594.802,557.69 594.802,558.703C594.802,559.403 594.553,560.08 594.099,560.612C593.111,562.147 592.005,563.603 590.792,564.967C589.033,566.871 587.657,566.954 585.567,565.337C581.042,561.836 576.591,558.241 572.082,554.72C567.386,551.055 562.672,547.414 557.937,543.799C554.307,541.04 554.038,539.529 556.845,535.973C560.34,531.544 563.782,527.067 567.432,522.768C570.472,519.189 574.222,516.738 578.601,516.917ZM582.227,533.069C582.314,530.279 578.873,527.921 576.789,529.124C574.101,530.686 571.811,532.849 570.098,535.443C569.721,536.007 569.466,536.61 569.961,537.19C571.489,539.013 573.287,540.592 575.293,541.872C575.647,542.088 576.109,542.026 576.394,541.724C579.044,539.383 581.052,536.404 582.227,533.069Z" style="fill:rgb(253,253,254);fill-rule:nonzero;"/>
            <path d="M339.107,153.644C339.22,150.901 340.702,150.032 342.686,149.715C347.713,148.912 352.75,148.169 357.77,147.327C361.219,146.748 364.634,145.959 368.088,145.42C371.687,144.859 372.379,145.433 373.09,149.024C374.296,155.119 374.035,155.457 367.79,156.401C363.782,157.006 359.782,157.661 355.787,158.34C353.543,158.721 352.666,159.911 352.98,161.974C353.396,164.716 354.139,165.435 356.716,165.035C360.878,164.39 365.022,163.614 369.156,162.801C372.715,162.1 373.79,162.7 374.626,166.184C374.81,166.954 374.859,167.756 374.986,168.541C375.507,171.763 374.676,173.006 371.568,173.53C367.566,174.205 363.573,174.955 359.549,175.466C355.651,175.961 355.643,177.415 356.405,181.046C356.811,182.98 358.638,182.83 360.164,182.568C364.864,181.759 369.549,180.87 374.246,180.046C375.103,179.896 375.989,179.908 376.861,179.84C377.508,179.809 378.14,180.039 378.617,180.477C379.194,180.953 380.633,188.088 380.298,188.722C379.662,189.924 378.444,190.18 377.284,190.392C369.314,191.847 361.336,193.261 353.361,194.686C352.345,194.868 351.33,195.06 350.309,195.213C347.15,195.686 346.258,195.103 345.712,191.99C344.079,182.668 342.49,173.337 340.885,164.01C340.265,160.408 339.649,156.805 339.107,153.644Z" style="fill:rgb(253,253,254);fill-rule:nonzero;"/>
            <path d="M494.669,622.292C494.738,628.501 491.361,632.73 486.664,636.186C478.987,641.834 468.546,641.942 461.515,636.476C458.767,634.34 457.205,631.358 455.933,628.273C454.293,624.22 453.041,620.022 452.191,615.733C451.109,610.448 452.71,605.838 456.322,601.888C462.707,595.134 472.505,592.741 481.285,595.791C484.067,596.838 486.449,598.736 488.09,601.215C489.162,602.774 488.784,603.983 487.055,604.583C482.923,606.016 478.885,607.443 474.353,605.536C473.451,605.165 472.485,604.973 471.51,604.973C467.415,604.973 464.046,608.343 464.046,612.438C464.046,612.76 464.067,613.083 464.109,613.403C464.574,618.343 466.318,623.078 469.167,627.14C470.997,629.692 473.621,630.305 477.294,629.176C480.351,628.236 482.869,625.394 482.953,622.747C482.994,621.461 482.344,620.8 481.044,620.952C480.585,621.073 480.137,621.23 479.703,621.423C479.113,621.661 478.491,621.81 477.858,621.865C474.006,621.772 474.877,618.124 473.665,616.077C472.82,614.648 473.023,612.922 474.783,612.239C479.14,610.547 483.552,608.989 487.991,607.527C489.367,607.101 490.853,607.861 491.312,609.226C493.298,613.311 494.44,617.755 494.669,622.292Z" style="fill:rgb(253,253,254);fill-rule:nonzero;"/>
            <path d="M511.82,461.308C518.273,462.545 524.821,463.218 531.39,463.319C545.861,463.557 559.712,460.973 572.808,454.588C584.073,449.096 595.6,444.357 608.255,443.04C627.433,441.045 646.072,442.705 663.764,450.981C664.873,451.5 666.809,451.745 666.814,452.913C666.708,455.058 666.267,457.174 665.507,459.183C665.184,460.179 664.307,459.319 663.745,459.074C657.047,456.165 650.387,453.201 643.162,451.719C632.769,449.587 622.308,449.427 611.782,450.155C599.722,450.988 588.652,455.075 577.97,460.401C562.853,467.941 546.047,471.463 529.175,470.626C522.412,470.434 515.681,469.63 509.063,468.226C507.716,467.923 507.224,467.553 508.167,466.228C508.927,465.106 509.593,463.923 510.157,462.69C510.636,461.705 511.237,461.129 511.82,461.308Z" style="fill:rgb(253,253,254);fill-rule:nonzero;"/>
            <path d="M539.292,566.601C539.397,567.683 538.616,568.421 537.656,569.091C533.803,571.777 529.946,574.458 526.136,577.205C525.226,577.861 523.83,578.36 524.112,579.854C524.48,581.429 525.497,582.778 526.911,583.564C527.793,584.115 528.706,583.418 529.503,582.841C533.178,580.182 536.908,577.595 540.538,574.875C541.028,574.382 541.696,574.105 542.391,574.105C543.23,574.105 544.02,574.509 544.511,575.189C544.786,575.477 545.103,575.73 545.351,576.04C549.562,581.299 548.838,582.12 544.598,584.876C541.665,586.782 538.855,588.88 536.02,590.933C533.584,592.698 533.45,593.652 535.179,596.027C536.618,598.002 537.636,598.152 540.005,596.479C543.775,593.816 547.454,591.023 551.235,588.376C554.124,586.352 554.974,586.556 557.093,589.386C560.644,594.129 560.592,594.664 555.89,598.028C549.413,602.661 542.918,607.27 536.405,611.854C533.853,613.654 532.891,613.568 531.07,611.028C523.88,600.997 516.733,590.935 509.629,580.843C507.838,578.299 508.157,577.125 510.717,575.3C517.523,570.448 524.329,565.596 531.133,560.742C533.587,558.992 535.005,559.145 536.708,561.629C537.723,563.109 539.195,564.389 539.292,566.601Z" style="fill:rgb(253,253,254);fill-rule:nonzero;"/>
            <path d="M269.582,612.051C270.097,610.278 269.187,609.171 267.545,608.185C264.286,606.229 261.121,604.11 257.972,601.977C256.98,601.12 255.46,601.223 254.592,602.206C251.168,605.119 249.936,605.133 246.179,602.598C245.323,602.021 244.512,601.377 243.662,600.79C241.043,598.983 240.938,598.209 243.51,596.191C253.961,587.992 264.47,579.867 274.94,571.693C276.371,570.322 278.628,570.243 280.151,571.511C282.537,573.192 285.395,574.122 287.563,576.187C288.997,577.369 289.587,579.305 289.055,581.086C286.427,591.662 283.892,602.261 281.299,612.846C280.791,614.918 279.987,616.89 279.892,619.093C279.801,621.199 278.413,622.103 276.272,621.871C272.362,621.446 269.379,617.187 269.582,612.051ZM275.776,585.57C273.8,587.08 272.233,588.254 270.691,589.459C264.984,593.915 265.069,594.727 271.342,598.381C272.396,598.995 272.86,598.936 273.204,597.782C274.498,593.816 275.361,589.721 275.776,585.57Z" style="fill:rgb(253,253,254);fill-rule:nonzero;"/>
            <path d="M406.002,606.746C410.041,606.725 412.275,608.905 413.754,612.067C416.109,617.102 417.892,622.367 419.869,627.553C422.383,634.147 424.876,640.748 427.348,647.357C428.445,650.303 427.943,650.959 424.733,651.121C423.623,651.163 422.516,651.265 421.417,651.425C418.113,651.95 416.071,650.966 415.218,647.735C414.549,645.198 413.105,644.758 410.859,644.882C407.363,645.075 403.857,645.183 400.357,645.135C398.564,645.11 397.376,645.706 396.977,647.415C396.134,651.021 389.494,653.487 386.214,652.73C384.083,652.238 383.88,650.705 384.477,648.817C386.9,641.161 389.295,633.497 391.663,625.824C393.056,621.343 394.499,616.876 395.786,612.365C396.61,609.478 398.071,607.643 401.313,607.344C402.956,607.193 404.61,606.911 406.002,606.746ZM405.386,621.051C405.165,621.284 405.009,621.376 404.968,621.505C404.187,623.924 403.414,626.346 402.65,628.771C400.656,635.091 401.148,635.642 407.808,634.938C409.673,634.741 410.181,634.005 409.525,632.269C408.126,628.57 406.783,624.849 405.386,621.051Z" style="fill:rgb(253,253,254);fill-rule:nonzero;"/>
            <path d="M280.412,176.005C285.106,175.819 289.631,177.819 292.653,181.416C294.005,182.958 293.978,184.465 292.241,185.668C288.736,188.096 285.061,189.678 280.644,187.846C277.335,186.474 273.64,187.717 270.97,190.727C268.826,193.146 268.56,195.923 270.432,199.349C272.071,202.348 273.867,205.268 275.721,208.14C277.443,210.807 279.642,212.837 283.187,212.122C287.403,211.272 290.341,208.519 290.861,204.678C291.483,200.075 294.277,197.305 298.212,195.442C300.09,194.552 301.33,195.214 302.069,197.232C304.804,204.703 302.301,210.881 297.134,216.142C292.014,221.356 285.767,224.182 278.234,223.482C274.379,223.149 270.787,221.382 268.169,218.533C263.989,214.229 260.701,209.141 258.494,203.563C254.878,193.998 258.786,184.403 267.883,179.42C271.717,177.276 276.019,176.103 280.412,176.005Z" style="fill:rgb(253,253,254);fill-rule:nonzero;"/>
            <path d="M130.409,452.356C138.398,455.866 145.748,459.568 153.867,461.121C173.856,464.945 193.449,464.334 212.367,455.886C219.549,452.679 226.592,449.118 234.098,446.68C244.622,443.42 255.618,441.947 266.629,442.322C268.843,442.363 271.668,441.476 273.104,442.872C274.337,444.069 272.916,446.883 273.696,448.96C274.143,450.15 273.079,449.942 272.417,449.924C268.039,449.809 263.666,449.755 259.282,449.85C246.379,450.131 234.367,453.706 222.837,459.273C212.627,464.203 202.182,468.418 190.77,469.72C171.129,471.961 151.994,470.641 133.848,461.966C133.194,461.653 132.52,461.447 132.33,460.616C131.732,457.993 131.113,455.375 130.409,452.356Z" style="fill:rgb(253,253,254);fill-rule:nonzero;"/>
            <path d="M354.389,375.539C338.27,376.355 323.184,372.476 308.848,365.257C285.324,353.41 260.854,351.939 235.741,359.048C229.162,360.91 223.021,364.049 216.871,367.017C202.459,373.975 187.222,376.348 171.369,375.809C162.365,375.647 153.433,374.169 144.858,371.42C139.048,369.466 133.564,366.736 127.932,364.356C126.136,363.596 126.622,362.205 127.015,361.167C127.547,359.763 128.466,361.05 129.079,361.333C138.905,365.878 148.767,370.334 159.673,371.626C177.464,373.732 194.924,373.083 211.696,365.745C220.35,361.959 228.755,357.525 237.932,355.002C249.992,351.686 262.266,351.297 274.672,352.069C288.047,352.901 300.28,357.413 312.105,363.266C326.165,370.164 341.749,373.379 357.391,372.607C364.956,372.393 372.477,371.391 379.835,369.62C380.448,369.467 381.599,368.41 381.824,370.039C381.98,371.169 382.182,372.372 380.429,372.793C374.946,374.189 369.35,375.097 363.707,375.506C360.611,375.689 357.496,375.539 354.389,375.539Z" style="fill:rgb(253,253,254);fill-rule:nonzero;"/>
            <path d="M515.143,412.461C521.371,413.351 527.655,413.786 533.947,413.762C548.096,413.848 562.069,410.609 574.737,404.306C584.703,399.445 594.924,395.273 606.082,393.856C617.151,392.437 628.36,392.488 639.415,394.01C650.933,395.593 661.325,400.395 671.702,405.244C672.575,405.652 673.161,410.274 672.407,410.89C671.668,411.494 671.062,410.75 670.463,410.476C664.323,407.663 658.241,404.714 651.854,402.486C640.71,398.597 629.167,397.893 617.485,398.155C604.057,398.531 590.89,401.96 578.984,408.182C564.556,415.652 548.489,419.404 532.244,419.097C527.628,419.01 523.009,418.817 518.409,418.307C517.349,418.347 516.422,417.562 516.287,416.509C516.02,415.272 515.605,414.067 515.143,412.461Z" style="fill:rgb(253,253,254);fill-rule:nonzero;"/>
            <path d="M542.524,201.263C542.01,201.143 541.506,200.982 541.018,200.78C540.167,200.359 539.363,199.846 538.535,199.379C532.705,196.091 532.046,195.931 528.657,201.346C524.416,208.123 520.09,214.847 515.764,221.57C513.836,224.565 512.664,224.759 509.759,222.772C508.779,222.102 507.788,221.445 506.78,220.819C503.585,218.836 503.327,217.757 505.396,214.487C508.529,209.536 511.705,204.611 514.832,199.656C516.822,196.504 518.669,193.258 520.766,190.182C521.461,189.162 521.189,188.706 520.543,188.003C518.995,186.318 516.86,185.558 514.964,184.438C511.732,182.531 511.172,180.754 513.042,177.624C515.582,173.372 517.111,172.805 520.533,174.963C528.907,180.242 537.268,185.54 545.616,190.859C548.608,192.769 548.844,193.81 547.004,196.911C545.939,198.706 545.132,200.853 542.524,201.263Z" style="fill:rgb(253,253,254);fill-rule:nonzero;"/>
            <path d="M671.171,367.442C664.541,364.582 658.226,361.377 651.506,359.122C640.549,355.445 629.244,354.767 617.801,354.965C603.411,355.214 590.025,359.181 577.309,365.655C557.527,375.726 536.631,377.687 514.968,374.504C505.403,373.098 496.604,369.491 487.941,365.459C482.014,362.557 475.879,360.1 469.587,358.108C468.11,357.673 468.167,357.092 468.399,355.933C468.696,354.455 469.523,354.782 470.498,355.057C477.059,356.986 483.423,359.534 489.504,362.666C511.829,373.862 535.091,375.224 558.996,369.406C566.434,367.596 573.301,364.081 580.191,360.796C592.229,355.038 605.371,351.948 618.714,351.738C632.147,351.468 645.266,352.865 657.791,358.029C661.465,359.543 665.026,361.333 668.708,362.829C670.817,363.686 671.685,365.004 671.171,367.442Z" style="fill:rgb(253,253,254);fill-rule:nonzero;"/>
            <path d="M501.837,408.97C501.544,409.308 501.436,409.421 501.342,409.544C498.436,413.323 495.268,412.195 491.646,410.485C482.898,406.356 474.188,402.083 464.587,400.103C454.812,398.213 444.829,397.638 434.903,398.392C430.13,398.642 425.393,399.359 420.76,400.533C419.319,400.912 418.807,400.584 418.811,398.985C418.821,395.449 418.716,395.355 422.224,394.748C440.275,391.622 458.156,391.789 475.68,397.812C483.505,400.501 490.783,404.488 498.444,407.572C499.54,408.013 500.63,408.472 501.837,408.97Z" style="fill:rgb(253,253,254);fill-rule:nonzero;"/>
            <path d="M443.552,449.619C435.893,449.559 428.254,450.422 420.802,452.188C419.071,452.635 418.829,452.028 418.821,450.495C418.79,444.818 418.734,444.751 423.995,443.905C439.423,441.422 454.763,441.573 469.989,445.479C472.543,446.134 472.789,448.703 474.401,450.127C474.944,450.607 471.449,453.555 470.425,453.251C465.167,451.678 459.757,450.666 454.285,450.232C450.713,449.956 447.13,449.818 443.552,449.619Z" style="fill:rgb(253,253,254);fill-rule:nonzero;"/>
            <path d="M342.692,463.035C347.454,462.996 352.167,463.476 356.905,463.312C364.778,463.149 372.602,462.033 380.206,459.989C381.45,459.637 381.833,459.65 381.896,461.094C382.164,467.232 382.127,466.949 376.263,468.68C369.069,470.803 362.252,469.172 355.407,467.406C351.077,466.289 346.701,465.216 342.692,463.035Z" style="fill:rgb(253,253,254);fill-rule:nonzero;"/>
        </g>
    </g>
</svg>
