<?xml version="1.0" encoding="UTF-8" standalone="no"?>
<!DOCTYPE svg PUBLIC "-//W3C//DTD SVG 1.1//EN" "http://www.w3.org/Graphics/SVG/1.1/DTD/svg11.dtd">
<svg width="100%" height="100%" viewBox="0 0 8192 8192" version="1.1" xmlns="http://www.w3.org/2000/svg" xmlns:xlink="http://www.w3.org/1999/xlink" xml:space="preserve" xmlns:serif="http://www.serif.com/" style="fill-rule:evenodd;clip-rule:evenodd;stroke-linejoin:round;stroke-miterlimit:2;">
    <g id="g70" transform="matrix(162.625,0,0,162.625,7226.43,-1637.67)">
        <path id="path3054-2-9" d="M-19.424,10.822C-19.869,10.845 -20.304,10.956 -20.705,11.148L-38.22,19.514C-39.138,19.952 -39.805,20.783 -40.032,21.767L-44.352,40.563C-44.554,41.438 -44.39,42.358 -43.898,43.112C-43.838,43.202 -43.775,43.29 -43.707,43.375L-31.586,58.447C-30.95,59.237 -29.986,59.697 -28.967,59.697L-9.528,59.693C-8.51,59.693 -7.546,59.234 -6.91,58.445L5.207,43.37C5.842,42.581 6.08,41.546 5.854,40.561L1.528,21.763C1.3,20.779 0.633,19.95 -0.284,19.512L-17.799,11.146C-18.304,10.905 -18.863,10.793 -19.424,10.822ZM-19.415,12.112C-18.885,12.085 -18.356,12.191 -17.877,12.419L-1.286,20.342C-0.416,20.757 0.216,21.543 0.431,22.476L4.53,40.281C4.745,41.215 4.519,42.196 3.917,42.944L-7.562,57.223C-8.164,57.97 -9.078,58.405 -10.042,58.405L-28.456,58.409C-29.421,58.409 -30.335,57.973 -30.936,57.225L-42.419,42.948C-42.483,42.868 -42.543,42.784 -42.599,42.698C-43.065,41.985 -43.221,41.114 -43.03,40.286L-38.937,22.48C-38.722,21.548 -38.09,20.761 -37.221,20.346L-20.631,12.419C-20.251,12.238 -19.837,12.133 -19.415,12.112Z" style="fill:white;fill-rule:nonzero;"/>
    </g>
    <g id="g3341" transform="matrix(160.239,0,0,160.239,-450.881,-284.255)">
        <ellipse id="ellipse7838-2" cx="28.143" cy="28.203" rx="1.435" ry="1.424" style="fill:white;"/>
        <path id="path7840-40" d="M28.377,16.657L19.567,20.552L19.567,26.365C19.567,31.753 23.322,36.79 28.377,38.015C33.425,36.79 37.184,31.753 37.184,26.365L37.184,20.552L28.377,16.657ZM33.041,32.299L23.71,32.299L23.71,24.465L25.049,24.465L25.049,23.611C25.049,21.766 26.557,20.269 28.421,20.269C30.284,20.269 31.792,21.766 31.792,23.611L31.792,24.465L33.041,24.465L33.041,32.299Z" style="fill:white;fill-rule:nonzero;"/>
        <path id="path7836-7" d="M28.312,21.512C27.195,21.516 26.291,22.413 26.291,23.519L26.291,24.359L30.337,24.359L30.337,23.505C30.326,22.403 29.425,21.516 28.312,21.512Z" style="fill:white;fill-rule:nonzero;"/>
    </g>
</svg>
