<?xml version="1.0" encoding="UTF-8" standalone="no"?>
<!DOCTYPE svg PUBLIC "-//W3C//DTD SVG 1.1//EN" "http://www.w3.org/Graphics/SVG/1.1/DTD/svg11.dtd">
<svg width="100%" height="100%" viewBox="0 0 8192 8192" version="1.1" xmlns="http://www.w3.org/2000/svg" xmlns:xlink="http://www.w3.org/1999/xlink" xml:space="preserve" xmlns:serif="http://www.serif.com/" style="fill-rule:evenodd;clip-rule:evenodd;stroke-linejoin:round;stroke-miterlimit:2;">
    <g id="g70" transform="matrix(162.625,0,0,162.625,7226.43,-1637.67)">
        <path id="path3054-2-9" d="M-19.424,10.822C-19.869,10.845 -20.304,10.956 -20.705,11.148L-38.22,19.514C-39.138,19.952 -39.805,20.783 -40.032,21.767L-44.352,40.563C-44.554,41.438 -44.39,42.358 -43.898,43.112C-43.838,43.202 -43.775,43.29 -43.707,43.375L-31.586,58.447C-30.95,59.237 -29.986,59.697 -28.967,59.697L-9.528,59.693C-8.51,59.693 -7.546,59.234 -6.91,58.445L5.207,43.37C5.842,42.581 6.08,41.546 5.854,40.561L1.528,21.763C1.3,20.779 0.633,19.95 -0.284,19.512L-17.799,11.146C-18.304,10.905 -18.863,10.793 -19.424,10.822ZM-19.415,12.112C-18.885,12.085 -18.356,12.191 -17.877,12.419L-1.286,20.342C-0.416,20.757 0.216,21.543 0.431,22.476L4.53,40.281C4.745,41.215 4.519,42.196 3.917,42.944L-7.562,57.223C-8.164,57.97 -9.078,58.405 -10.042,58.405L-28.456,58.409C-29.421,58.409 -30.335,57.973 -30.936,57.225L-42.419,42.948C-42.483,42.868 -42.543,42.784 -42.599,42.698C-43.065,41.985 -43.221,41.114 -43.03,40.286L-38.937,22.48C-38.722,21.548 -38.09,20.761 -37.221,20.346L-20.631,12.419C-20.251,12.238 -19.837,12.133 -19.415,12.112Z" style="fill:white;fill-rule:nonzero;"/>
    </g>
    <g transform="matrix(7.32625,0,0,7.32625,1751.6,2220.48)">
        <g>
            <g>
                <path d="M349.9,236.3L283.8,236.3L283.8,176.9L349.9,176.9L349.9,236.3ZM349.9,32L283.8,32L283.8,92.7L349.9,92.7L349.9,32ZM428.1,176.8L362,176.8L362,236.2L428.1,236.2L428.1,176.8ZM271.8,104.7L205.7,104.7L205.7,164.8L271.8,164.8L271.8,104.7ZM349.9,104.7L283.8,104.7L283.8,164.8L349.9,164.8L349.9,104.7ZM626.7,204.7C612.3,195 579.1,191.5 553.6,196.3C550.3,172.3 536.9,151.4 512.5,132.6L498.5,123.3L489.2,137.3C470.8,165.1 465.8,210.9 485.5,241.1C476.8,245.8 459.7,252.2 437.1,251.8L2.4,251.8C-6.3,302.6 8.2,368.6 46.4,413.9C83.5,457.8 139.1,480.1 211.8,480.1C369.2,480.1 485.7,407.6 540.2,275.9C561.6,276.3 607.8,276 631.5,230.7C633,228.2 638.1,217.5 640,213.6L626.7,204.7ZM115.7,176.8L49.6,176.8L49.6,236.2L115.7,236.2L115.7,176.8ZM193.7,176.8L127.6,176.8L127.6,236.2L193.7,236.2L193.7,176.8ZM271.8,176.8L205.7,176.8L205.7,236.2L271.8,236.2L271.8,176.8ZM193.7,104.7L127.6,104.7L127.6,164.8L193.7,164.8L193.7,104.7Z" style="fill:white;fill-rule:nonzero;"/>
            </g>
        </g>
    </g>
</svg>
