<?xml version="1.0" encoding="UTF-8" standalone="no"?>
<!DOCTYPE svg PUBLIC "-//W3C//DTD SVG 1.1//EN" "http://www.w3.org/Graphics/SVG/1.1/DTD/svg11.dtd">
<svg width="100%" height="100%" viewBox="0 0 8192 8192" version="1.1" xmlns="http://www.w3.org/2000/svg" xmlns:xlink="http://www.w3.org/1999/xlink" xml:space="preserve" xmlns:serif="http://www.serif.com/" style="fill-rule:evenodd;clip-rule:evenodd;stroke-linejoin:round;stroke-miterlimit:2;">
    <g id="g70" transform="matrix(162.625,0,0,162.625,7226.43,-1637.67)">
        <path id="path3055" d="M-19.415,12.111C-19.837,12.132 -20.25,12.237 -20.631,12.419L-37.22,20.345C-38.089,20.76 -38.722,21.547 -38.937,22.48L-43.029,40.285C-43.22,41.113 -43.065,41.984 -42.599,42.697C-42.543,42.784 -42.483,42.867 -42.418,42.948L-30.936,57.224C-30.334,57.972 -29.42,58.408 -28.456,58.408L-10.041,58.404C-9.077,58.405 -8.163,57.969 -7.561,57.222L3.917,42.943C4.519,42.195 4.745,41.214 4.53,40.281L0.431,22.475C0.216,21.543 -0.416,20.756 -1.285,20.341L-17.877,12.419C-18.355,12.19 -18.884,12.084 -19.415,12.111Z" style="fill:rgb(50,108,229);fill-rule:nonzero;"/>
        <path id="path3054-2-9" d="M-19.424,10.822C-19.869,10.845 -20.304,10.956 -20.705,11.148L-38.22,19.514C-39.138,19.952 -39.805,20.783 -40.032,21.767L-44.352,40.563C-44.554,41.438 -44.39,42.358 -43.898,43.112C-43.838,43.202 -43.775,43.29 -43.707,43.375L-31.586,58.447C-30.95,59.237 -29.986,59.697 -28.967,59.697L-9.528,59.693C-8.51,59.693 -7.546,59.234 -6.91,58.445L5.207,43.37C5.842,42.581 6.08,41.546 5.854,40.561L1.528,21.763C1.3,20.779 0.633,19.95 -0.284,19.512L-17.799,11.146C-18.304,10.905 -18.863,10.793 -19.424,10.822ZM-19.415,12.112C-18.885,12.085 -18.356,12.191 -17.877,12.419L-1.286,20.342C-0.416,20.757 0.216,21.543 0.431,22.476L4.53,40.281C4.745,41.215 4.519,42.196 3.917,42.944L-7.562,57.223C-8.164,57.97 -9.078,58.405 -10.042,58.405L-28.456,58.409C-29.421,58.409 -30.335,57.973 -30.936,57.225L-42.419,42.948C-42.483,42.868 -42.543,42.784 -42.599,42.698C-43.065,41.985 -43.221,41.114 -43.03,40.286L-38.937,22.48C-38.722,21.548 -38.09,20.761 -37.221,20.346L-20.631,12.419C-20.251,12.238 -19.837,12.133 -19.415,12.112L-19.415,12.112Z" style="fill:white;fill-rule:nonzero;"/>
    </g>
    <g id="g3340" transform="matrix(160.239,0,0,160.239,-713.37,-59.9201)">
        <path id="rect9061" d="M33.087,11.225L33.087,17.299L39.332,17.299L39.332,11.225L33.087,11.225ZM33.087,19.967L33.087,21.516C33.821,21.342 34.581,21.24 35.365,21.24C36.774,21.24 38.114,21.542 39.332,22.075L39.332,19.967L33.087,19.967ZM15.275,20.061L15.275,26.134L21.52,26.134L21.52,20.061L15.275,20.061ZM24.181,20.061L24.181,26.134L26.812,26.134C27.692,24.66 28.937,23.428 30.426,22.571L30.426,20.061L24.181,20.061ZM15.218,28.897L15.218,34.97L21.462,34.97L21.462,28.897L15.218,28.897ZM24.152,28.897L24.152,34.97L26.154,34.97C25.674,33.806 25.404,32.534 25.404,31.201C25.404,30.407 25.509,29.639 25.687,28.897L24.152,28.897Z" style="fill:white;fill-rule:nonzero;"/>
        <path id="path9087" d="M35.739,22.506C30.751,22.506 26.669,26.587 26.669,31.576C26.669,36.565 30.751,40.646 35.739,40.646C40.728,40.646 44.81,36.565 44.81,31.576C44.81,26.587 40.728,22.506 35.739,22.506ZM39.549,35.385L34.832,32.483L34.832,27.041L36.193,27.041L36.193,31.757L40.275,34.206L39.549,35.385Z" style="fill:white;fill-rule:nonzero;"/>
    </g>
</svg>
