<?xml version="1.0" encoding="UTF-8" standalone="no"?>
<!DOCTYPE svg PUBLIC "-//W3C//DTD SVG 1.1//EN" "http://www.w3.org/Graphics/SVG/1.1/DTD/svg11.dtd">
<svg width="100%" height="100%" viewBox="0 0 8192 8192" version="1.1" xmlns="http://www.w3.org/2000/svg" xmlns:xlink="http://www.w3.org/1999/xlink" xml:space="preserve" xmlns:serif="http://www.serif.com/" style="fill-rule:evenodd;clip-rule:evenodd;stroke-linejoin:round;stroke-miterlimit:2;">
    <g id="g70" transform="matrix(162.625,0,0,162.625,7226.43,-1637.67)">
        <path id="path3054-2-9" d="M-19.424,10.822C-19.869,10.845 -20.304,10.956 -20.705,11.148L-38.22,19.514C-39.138,19.952 -39.805,20.783 -40.032,21.767L-44.352,40.563C-44.554,41.438 -44.39,42.358 -43.898,43.112C-43.838,43.202 -43.775,43.29 -43.707,43.375L-31.586,58.447C-30.95,59.237 -29.986,59.697 -28.967,59.697L-9.528,59.693C-8.51,59.693 -7.546,59.234 -6.91,58.445L5.207,43.37C5.842,42.581 6.08,41.546 5.854,40.561L1.528,21.763C1.3,20.779 0.633,19.95 -0.284,19.512L-17.799,11.146C-18.304,10.905 -18.863,10.793 -19.424,10.822ZM-19.415,12.112C-18.885,12.085 -18.356,12.191 -17.877,12.419L-1.286,20.342C-0.416,20.757 0.216,21.543 0.431,22.476L4.53,40.281C4.745,41.215 4.519,42.196 3.917,42.944L-7.562,57.223C-8.164,57.97 -9.078,58.405 -10.042,58.405L-28.456,58.409C-29.421,58.409 -30.335,57.973 -30.936,57.225L-42.419,42.948C-42.483,42.868 -42.543,42.784 -42.599,42.698C-43.065,41.985 -43.221,41.114 -43.03,40.286L-38.937,22.48C-38.722,21.548 -38.09,20.761 -37.221,20.346L-20.631,12.419C-20.251,12.238 -19.837,12.133 -19.415,12.112Z" style="fill:white;fill-rule:nonzero;"/>
    </g>
    <g id="g3350" transform="matrix(160.239,0,0,160.239,-408.917,-124.016)">
        <rect id="path1991" x="12.742" y="32.02" width="8.244" height="5.787" style="fill:white;"/>
        <rect id="path1993" x="23.992" y="32.02" width="8.244" height="5.787" style="fill:white;"/>
        <rect id="path2002" x="35.242" y="32.02" width="8.244" height="5.787" style="fill:white;"/>
        <rect id="path2005" x="21.582" y="14.864" width="13.063" height="5.787" style="fill:white;"/>
        <g id="g2062" transform="matrix(0.706903,0.707311,-0.707311,0.706903,298.203,656.405)">
            <rect id="rect2056" x="-643.143" y="-253.954" width="1.847" height="8.246" style="fill:white;"/>
            <g id="path2058" transform="matrix(0.488705,0.187679,-0.187679,0.488705,-379.11,0.606053)">
                <path d="M-636.168,-254.751L-644.798,-261.675L-639.642,-263.68L-634.487,-265.686L-635.327,-260.219L-636.168,-254.751Z" style="fill:white;fill-rule:nonzero;"/>
            </g>
        </g>
        <g id="g2068" transform="matrix(-0.706903,0.707311,0.707311,0.706903,-243.217,656.405)">
            <rect id="rect2064" x="-643.143" y="-253.954" width="1.847" height="8.246" style="fill:white;"/>
            <g id="path2066" transform="matrix(0.488705,0.187679,-0.187679,0.488705,-379.11,0.606053)">
                <path d="M-636.168,-254.751L-644.798,-261.675L-639.642,-263.68L-634.487,-265.686L-635.327,-260.219L-636.168,-254.751Z" style="fill:white;fill-rule:nonzero;"/>
            </g>
        </g>
        <g id="rect2070" transform="matrix(-0.999988,-0.00480149,-0.00803668,0.999968,0,0)">
            <rect x="-28.978" y="22.346" width="1.847" height="6.374" style="fill:white;"/>
        </g>
        <g id="path2073" transform="matrix(-0.489861,0.18464,0.18464,0.489861,-236.811,273.527)">
            <path d="M-636.168,-254.751L-644.798,-261.675L-639.642,-263.68L-634.487,-265.686L-635.327,-260.219L-636.168,-254.751Z" style="fill:white;fill-rule:nonzero;"/>
        </g>
    </g>
</svg>
