<?xml version="1.0" encoding="UTF-8" standalone="no"?>
<!DOCTYPE svg PUBLIC "-//W3C//DTD SVG 1.1//EN" "http://www.w3.org/Graphics/SVG/1.1/DTD/svg11.dtd">
<svg width="100%" height="100%" viewBox="0 0 8192 8192" version="1.1" xmlns="http://www.w3.org/2000/svg" xmlns:xlink="http://www.w3.org/1999/xlink" xml:space="preserve" xmlns:serif="http://www.serif.com/" style="fill-rule:evenodd;clip-rule:evenodd;stroke-linejoin:round;stroke-miterlimit:2;">
    <g id="g70" transform="matrix(162.625,0,0,162.625,7226.43,-1637.67)">
        <path id="path3054-2-9" d="M-19.424,10.822C-19.869,10.845 -20.304,10.956 -20.705,11.148L-38.22,19.514C-39.138,19.952 -39.805,20.783 -40.032,21.767L-44.352,40.563C-44.554,41.438 -44.39,42.358 -43.898,43.112C-43.838,43.202 -43.775,43.29 -43.707,43.375L-31.586,58.447C-30.95,59.237 -29.986,59.697 -28.967,59.697L-9.528,59.693C-8.51,59.693 -7.546,59.234 -6.91,58.445L5.207,43.37C5.842,42.581 6.08,41.546 5.854,40.561L1.528,21.763C1.3,20.779 0.633,19.95 -0.284,19.512L-17.799,11.146C-18.304,10.905 -18.863,10.793 -19.424,10.822ZM-19.415,12.112C-18.885,12.085 -18.356,12.191 -17.877,12.419L-1.286,20.342C-0.416,20.757 0.216,21.543 0.431,22.476L4.53,40.281C4.745,41.215 4.519,42.196 3.917,42.944L-7.562,57.223C-8.164,57.97 -9.078,58.405 -10.042,58.405L-28.456,58.409C-29.421,58.409 -30.335,57.973 -30.936,57.225L-42.419,42.948C-42.483,42.868 -42.543,42.784 -42.599,42.698C-43.065,41.985 -43.221,41.114 -43.03,40.286L-38.937,22.48C-38.722,21.548 -38.09,20.761 -37.221,20.346L-20.631,12.419C-20.251,12.238 -19.837,12.133 -19.415,12.112Z" style="fill:white;fill-rule:nonzero;"/>
    </g>
    <g id="path7594" transform="matrix(160.239,0,0,160.239,-450.881,-411.855)">
        <path d="M26.899,15.17C20.341,15.17 15.019,20.492 15.019,27.05C15.019,33.607 20.341,38.93 26.899,38.93C28.369,38.93 29.773,38.651 31.073,38.162L31.073,35.363C31.073,34.411 31.852,32.81 32.804,32.81L32.804,30.214C32.804,28.912 34.745,26.709 37.134,26.709C37.717,26.709 38.271,26.826 38.779,27.036C38.771,20.484 33.452,15.17 26.899,15.17ZM29.275,19.328L33.433,23.486L30.463,23.486L30.463,28.238L28.087,28.238L28.087,23.486L25.117,23.486L29.275,19.328ZM23.335,25.862L25.711,25.862L25.711,30.614L28.681,30.614L24.523,34.772L20.365,30.614L23.335,30.614L23.335,25.862ZM37.433,28.808C35.737,28.808 34.361,30.185 34.361,31.881L34.361,33.723C33.685,33.723 33.133,34.275 33.133,34.95L33.133,39.867C33.133,40.543 33.685,41.094 34.361,41.094L40.505,41.094C41.181,41.094 41.733,40.543 41.733,39.867L41.733,34.95C41.733,34.275 41.181,33.723 40.505,33.723L40.505,31.881C40.505,30.185 39.129,28.808 37.433,28.808ZM37.433,30.036C38.453,30.036 39.275,30.861 39.275,31.881L39.275,33.723L35.591,33.723L35.591,31.881C35.591,30.861 36.413,30.036 37.433,30.036Z" style="fill:white;fill-rule:nonzero;"/>
    </g>
</svg>
