<?xml version="1.0" encoding="UTF-8" standalone="no"?>
<!DOCTYPE svg PUBLIC "-//W3C//DTD SVG 1.1//EN" "http://www.w3.org/Graphics/SVG/1.1/DTD/svg11.dtd">
<svg width="100%" height="100%" viewBox="0 0 8192 8192" version="1.1" xmlns="http://www.w3.org/2000/svg" xmlns:xlink="http://www.w3.org/1999/xlink" xml:space="preserve" xmlns:serif="http://www.serif.com/" style="fill-rule:evenodd;clip-rule:evenodd;stroke-linejoin:round;stroke-miterlimit:2;">
    <g id="g70" transform="matrix(162.625,0,0,162.625,7226.43,-1637.67)">
        <path id="path3055" d="M-19.415,12.111C-19.837,12.132 -20.25,12.237 -20.631,12.419L-37.22,20.345C-38.089,20.76 -38.722,21.547 -38.937,22.48L-43.029,40.285C-43.22,41.113 -43.065,41.984 -42.599,42.697C-42.543,42.784 -42.483,42.867 -42.418,42.948L-30.936,57.224C-30.334,57.972 -29.42,58.408 -28.456,58.408L-10.041,58.404C-9.077,58.405 -8.163,57.969 -7.561,57.222L3.917,42.943C4.519,42.195 4.745,41.214 4.53,40.281L0.431,22.475C0.216,21.543 -0.416,20.756 -1.285,20.341L-17.877,12.419C-18.355,12.19 -18.884,12.084 -19.415,12.111Z" style="fill:rgb(50,108,229);fill-rule:nonzero;"/>
        <path id="path3054-2-9" d="M-19.424,10.822C-19.869,10.845 -20.304,10.956 -20.705,11.148L-38.22,19.514C-39.138,19.952 -39.805,20.783 -40.032,21.767L-44.352,40.563C-44.554,41.438 -44.39,42.358 -43.898,43.112C-43.838,43.202 -43.775,43.29 -43.707,43.375L-31.586,58.447C-30.95,59.237 -29.986,59.697 -28.967,59.697L-9.528,59.693C-8.51,59.693 -7.546,59.234 -6.91,58.445L5.207,43.37C5.842,42.581 6.08,41.546 5.854,40.561L1.528,21.763C1.3,20.779 0.633,19.95 -0.284,19.512L-17.799,11.146C-18.304,10.905 -18.863,10.793 -19.424,10.822ZM-19.415,12.112C-18.885,12.085 -18.356,12.191 -17.877,12.419L-1.286,20.342C-0.416,20.757 0.216,21.543 0.431,22.476L4.53,40.281C4.745,41.215 4.519,42.196 3.917,42.944L-7.562,57.223C-8.164,57.97 -9.078,58.405 -10.042,58.405L-28.456,58.409C-29.421,58.409 -30.335,57.973 -30.936,57.225L-42.419,42.948C-42.483,42.868 -42.543,42.784 -42.599,42.698C-43.065,41.985 -43.221,41.114 -43.03,40.286L-38.937,22.48C-38.722,21.548 -38.09,20.761 -37.221,20.346L-20.631,12.419C-20.251,12.238 -19.837,12.133 -19.415,12.112L-19.415,12.112Z" style="fill:white;fill-rule:nonzero;"/>
    </g>
    <g id="path1994" transform="matrix(160.239,0,0,160.239,-450.881,-411.855)">
        <path d="M28.324,14.202C27.932,14.19 17,19.565 16.857,19.841C16.513,20.503 14.025,31.978 14.171,32.225C14.256,32.369 16.048,34.64 18.153,37.272L21.979,42.057L28.275,42.059L34.573,42.062L38.579,37.057L42.586,32.053L41.184,25.906C40.412,22.525 39.722,19.702 39.651,19.634C39.454,19.444 28.537,14.209 28.324,14.202L28.324,14.202ZM28.88,16.889L31.457,17.636L28.88,18.383L26.304,17.636L28.88,16.889ZM26.304,17.922L28.716,18.64L28.705,21.994L26.305,20.663L26.304,17.922ZM31.457,17.922L31.457,20.663L29.056,21.994L29.045,18.64L31.457,17.922ZM25.228,22.499L27.804,23.246L25.228,23.993L22.651,23.246L25.228,22.499ZM31.489,22.499L34.065,23.246L31.489,23.993L28.912,23.246L31.489,22.499ZM22.651,23.532L25.064,24.249L25.053,27.603L22.652,26.274L22.651,23.532ZM27.804,23.532L27.804,26.274L25.404,27.603L25.392,24.249L27.804,23.532ZM28.912,23.532L31.325,24.249L31.313,27.603L28.913,26.274L28.912,23.532ZM34.065,23.532L34.065,26.274L31.665,27.603L31.653,24.249L34.065,23.532ZM24.287,27.827C25.054,27.854 24.46,28.626 25.331,29.04C26.26,29.481 26.452,28.373 27.035,29.22C27.619,30.066 26.516,29.852 26.598,30.878C26.68,31.903 27.736,31.515 27.295,32.444C26.853,33.373 26.486,32.309 25.639,32.893C24.792,33.477 25.656,34.197 24.631,34.28C23.606,34.362 24.344,33.513 23.415,33.071C22.486,32.63 22.294,33.737 21.71,32.89C21.126,32.044 22.231,32.259 22.149,31.234C22.067,30.208 21.01,30.596 21.452,29.667C21.894,28.738 22.26,29.802 23.107,29.218C23.953,28.635 23.089,27.914 24.115,27.832C24.179,27.827 24.236,27.825 24.287,27.827L24.287,27.827ZM30.908,28.855C32.278,28.894 30.95,30.18 32.201,30.74C33.452,31.3 33.525,29.452 34.467,30.449C35.408,31.445 33.56,31.414 34.048,32.695C34.537,33.976 35.896,32.721 35.857,34.091C35.818,35.462 34.533,34.133 33.973,35.384C33.413,36.635 35.26,36.708 34.264,37.65C33.267,38.591 33.299,36.743 32.018,37.232C30.738,37.72 31.993,39.079 30.622,39.04C29.252,39.002 30.581,37.716 29.329,37.156C28.078,36.596 28.004,38.443 27.062,37.447C26.121,36.451 27.969,36.482 27.481,35.202C26.992,33.921 25.633,35.176 25.672,33.805C25.711,32.435 26.996,33.763 27.556,32.511C28.116,31.26 26.269,31.187 27.265,30.246C28.262,29.304 28.231,31.153 29.512,30.664C30.792,30.175 29.537,28.817 30.908,28.855ZM24.346,29.574C23.514,29.574 22.84,30.25 22.84,31.082C22.84,31.914 23.515,32.588 24.346,32.588C25.179,32.589 25.854,31.914 25.854,31.082C25.855,30.249 25.179,29.574 24.346,29.574ZM30.765,30.936C29.101,30.936 27.753,32.285 27.753,33.948C27.753,35.611 29.102,36.959 30.765,36.959C32.428,36.959 33.776,35.611 33.776,33.948C33.776,32.285 32.428,30.937 30.765,30.936Z" style="fill:white;fill-rule:nonzero;"/>
    </g>
</svg>
