<?xml version="1.0" encoding="UTF-8" standalone="no"?>
<!DOCTYPE svg PUBLIC "-//W3C//DTD SVG 1.1//EN" "http://www.w3.org/Graphics/SVG/1.1/DTD/svg11.dtd">
<svg width="100%" height="100%" viewBox="0 0 8192 8192" version="1.1" xmlns="http://www.w3.org/2000/svg" xmlns:xlink="http://www.w3.org/1999/xlink" xml:space="preserve" xmlns:serif="http://www.serif.com/" style="fill-rule:evenodd;clip-rule:evenodd;stroke-linejoin:round;stroke-miterlimit:2;">
    <g id="g70" transform="matrix(162.624,0,0,162.624,7226.41,-1637.66)">
        <path id="path3055" d="M-19.415,12.111C-19.837,12.132 -20.25,12.237 -20.631,12.419L-37.22,20.345C-38.089,20.76 -38.722,21.547 -38.937,22.48L-43.029,40.285C-43.22,41.113 -43.065,41.984 -42.599,42.697C-42.543,42.784 -42.483,42.867 -42.418,42.948L-30.936,57.224C-30.334,57.972 -29.42,58.408 -28.456,58.408L-10.041,58.404C-9.077,58.405 -8.163,57.969 -7.561,57.222L3.917,42.943C4.519,42.195 4.745,41.214 4.53,40.281L0.431,22.475C0.216,21.543 -0.416,20.756 -1.285,20.341L-17.877,12.419C-18.355,12.19 -18.884,12.084 -19.415,12.111Z" style="fill:rgb(50,108,229);fill-rule:nonzero;"/>
        <path id="path3054-2-9" d="M-19.424,10.822C-19.869,10.845 -20.304,10.956 -20.705,11.148L-38.22,19.514C-39.138,19.952 -39.805,20.783 -40.032,21.767L-44.352,40.563C-44.554,41.438 -44.39,42.358 -43.898,43.112C-43.838,43.202 -43.775,43.29 -43.707,43.375L-31.586,58.447C-30.95,59.237 -29.986,59.697 -28.967,59.697L-9.528,59.693C-8.51,59.693 -7.546,59.234 -6.91,58.445L5.207,43.37C5.842,42.581 6.08,41.546 5.854,40.561L1.528,21.763C1.3,20.779 0.633,19.95 -0.284,19.512L-17.799,11.146C-18.304,10.905 -18.863,10.793 -19.424,10.822ZM-19.415,12.112C-18.885,12.085 -18.356,12.191 -17.877,12.419L-1.286,20.342C-0.416,20.757 0.216,21.543 0.431,22.476L4.53,40.281C4.745,41.215 4.519,42.196 3.917,42.944L-7.562,57.223C-8.164,57.97 -9.078,58.405 -10.042,58.405L-28.456,58.409C-29.421,58.409 -30.335,57.973 -30.936,57.225L-42.419,42.948C-42.483,42.868 -42.543,42.784 -42.599,42.698C-43.065,41.985 -43.221,41.114 -43.03,40.286L-38.937,22.48C-38.722,21.548 -38.09,20.761 -37.221,20.346L-20.631,12.419C-20.251,12.238 -19.837,12.133 -19.415,12.112Z" style="fill:white;fill-rule:nonzero;"/>
    </g>
    <g id="g3341" transform="matrix(160.238,0,0,160.238,-392.842,-252.209)">
        <path id="path910" d="M17.75,19.945L28.014,16.968L38.278,19.945L28.014,22.921L17.75,19.945Z" style="fill:white;"/>
        <path id="path912" d="M17.75,21.085L17.75,32.006L27.313,37.303L27.36,23.943L17.75,21.085Z" style="fill:white;"/>
        <path id="path914" d="M38.278,21.085L38.278,32.006L28.715,37.303L28.667,23.943L38.278,21.085Z" style="fill:white;"/>
    </g>
    <g transform="matrix(119.779,0,0,119.779,2865.97,2315.56)">
        <g>
            <path d="M22,42L20,42L22,28L15,28C13.84,28 13.86,27.36 14.24,26.68C14.62,26 14.34,26.52 14.38,26.44C16.96,21.88 20.84,15.08 26,6L28,6L26,20L33,20C33.98,20 34.12,20.66 33.94,21.02L33.8,21.32C25.92,35.1 22,42 22,42Z" style="fill:rgb(50,108,229);fill-rule:nonzero;"/>
        </g>
    </g>
    <g transform="matrix(98.1403,0,0,98.1403,3385.29,2834.88)">
        <g>
            <path d="M22,42L20,42L22,28L15,28C13.84,28 13.86,27.36 14.24,26.68C14.62,26 14.34,26.52 14.38,26.44C16.96,21.88 20.84,15.08 26,6L28,6L26,20L33,20C33.98,20 34.12,20.66 33.94,21.02L33.8,21.32C25.92,35.1 22,42 22,42Z" style="fill:white;fill-rule:nonzero;"/>
        </g>
    </g>
</svg>
