<?xml version="1.0" encoding="UTF-8" standalone="no"?>
<!DOCTYPE svg PUBLIC "-//W3C//DTD SVG 1.1//EN" "http://www.w3.org/Graphics/SVG/1.1/DTD/svg11.dtd">
<svg width="100%" height="100%" viewBox="0 0 8192 8192" version="1.1" xmlns="http://www.w3.org/2000/svg" xmlns:xlink="http://www.w3.org/1999/xlink" xml:space="preserve" xmlns:serif="http://www.serif.com/" style="fill-rule:evenodd;clip-rule:evenodd;stroke-linejoin:round;stroke-miterlimit:2;">
    <g id="g70" transform="matrix(162.625,0,0,162.625,7226.43,-1637.67)">
        <path id="path3054-2-9" d="M-19.424,10.822C-19.869,10.845 -20.304,10.956 -20.705,11.148L-38.22,19.514C-39.138,19.952 -39.805,20.783 -40.032,21.767L-44.352,40.563C-44.554,41.438 -44.39,42.358 -43.898,43.112C-43.838,43.202 -43.775,43.29 -43.707,43.375L-31.586,58.447C-30.95,59.237 -29.986,59.697 -28.967,59.697L-9.528,59.693C-8.51,59.693 -7.546,59.234 -6.91,58.445L5.207,43.37C5.842,42.581 6.08,41.546 5.854,40.561L1.528,21.763C1.3,20.779 0.633,19.95 -0.284,19.512L-17.799,11.146C-18.304,10.905 -18.863,10.793 -19.424,10.822ZM-19.415,12.112C-18.885,12.085 -18.356,12.191 -17.877,12.419L-1.286,20.342C-0.416,20.757 0.216,21.543 0.431,22.476L4.53,40.281C4.745,41.215 4.519,42.196 3.917,42.944L-7.562,57.223C-8.164,57.97 -9.078,58.405 -10.042,58.405L-28.456,58.409C-29.421,58.409 -30.335,57.973 -30.936,57.225L-42.419,42.948C-42.483,42.868 -42.543,42.784 -42.599,42.698C-43.065,41.985 -43.221,41.114 -43.03,40.286L-38.937,22.48C-38.722,21.548 -38.09,20.761 -37.221,20.346L-20.631,12.419C-20.251,12.238 -19.837,12.133 -19.415,12.112Z" style="fill:white;fill-rule:nonzero;"/>
    </g>
    <g id="g1901" transform="matrix(216.01,0,0,216.01,209123,34580.9)">
        <g id="path1848" transform="matrix(0.264583,0,0,0.264583,0,0)">
            <path d="M-3596.11,-573.246L-3626.22,-564.515L-3596.11,-555.779L-3587.16,-558.375C-3583.07,-562.167 -3577.63,-564.515 -3571.66,-564.515C-3570.22,-564.515 -3568.81,-564.362 -3567.43,-564.1L-3565.99,-564.515L-3596.11,-573.246Z" style="fill:white;"/>
        </g>
        <g id="path1850" transform="matrix(0.264583,0,0,0.264583,0,0)">
            <path d="M-3626.22,-561.171L-3626.22,-529.132L-3601.16,-515.252L-3601.16,-525.09C-3601.16,-528.07 -3599.94,-530.52 -3598.1,-532.504L-3598.03,-552.784L-3626.22,-561.171Z" style="fill:white;"/>
        </g>
        <g id="path1852" transform="matrix(0.264583,0,0,0.264583,0,0)">
            <path d="M-3591.01,-553.73L-3594.19,-552.784L-3594.16,-545.603C-3593.64,-548.54 -3592.55,-551.285 -3591.01,-553.73ZM-3571.66,-545.249C-3573.76,-545.249 -3575.27,-543.732 -3575.27,-541.639L-3575.27,-538.035L-3568.06,-538.035L-3568.06,-541.639C-3568.06,-543.732 -3569.57,-545.249 -3571.66,-545.249Z" style="fill:white;"/>
        </g>
        <g id="path7594-3" transform="matrix(1.42507,0,0,1.42507,384.953,52.7285)">
            <path d="M-933.252,-140.918C-934.947,-140.918 -936.324,-139.541 -936.324,-137.846L-936.324,-136.002C-937,-136.002 -937.554,-135.449 -937.554,-134.773L-937.554,-129.857C-937.554,-129.181 -937,-128.633 -936.324,-128.633L-930.179,-128.633C-929.503,-128.633 -928.95,-129.181 -928.95,-129.857L-928.95,-134.773C-928.95,-135.449 -929.503,-136.002 -930.179,-136.002L-930.179,-137.846C-930.179,-139.541 -931.556,-140.918 -933.252,-140.918ZM-933.252,-139.689C-932.232,-139.689 -931.408,-138.866 -931.408,-137.846L-931.408,-136.002L-935.095,-136.002L-935.095,-137.846C-935.095,-138.866 -934.272,-139.689 -933.252,-139.689Z" style="fill:white;fill-rule:nonzero;"/>
        </g>
    </g>
</svg>
