<?xml version="1.0" encoding="UTF-8" standalone="no"?>
<!DOCTYPE svg PUBLIC "-//W3C//DTD SVG 1.1//EN" "http://www.w3.org/Graphics/SVG/1.1/DTD/svg11.dtd">
<svg width="100%" height="100%" viewBox="0 0 8192 8192" version="1.1" xmlns="http://www.w3.org/2000/svg" xmlns:xlink="http://www.w3.org/1999/xlink" xml:space="preserve" xmlns:serif="http://www.serif.com/" style="fill-rule:evenodd;clip-rule:evenodd;stroke-linejoin:round;stroke-miterlimit:2;">
    <g id="g70" transform="matrix(162.625,0,0,162.625,7226.43,-1637.67)">
        <path id="path3054-2-9" d="M-19.424,10.822C-19.869,10.845 -20.304,10.956 -20.705,11.148L-38.22,19.514C-39.138,19.952 -39.805,20.783 -40.032,21.767L-44.352,40.563C-44.554,41.438 -44.39,42.358 -43.898,43.112C-43.838,43.202 -43.775,43.29 -43.707,43.375L-31.586,58.447C-30.95,59.237 -29.986,59.697 -28.967,59.697L-9.528,59.693C-8.51,59.693 -7.546,59.234 -6.91,58.445L5.207,43.37C5.842,42.581 6.08,41.546 5.854,40.561L1.528,21.763C1.3,20.779 0.633,19.95 -0.284,19.512L-17.799,11.146C-18.304,10.905 -18.863,10.793 -19.424,10.822ZM-19.415,12.112C-18.885,12.085 -18.356,12.191 -17.877,12.419L-1.286,20.342C-0.416,20.757 0.216,21.543 0.431,22.476L4.53,40.281C4.745,41.215 4.519,42.196 3.917,42.944L-7.562,57.223C-8.164,57.97 -9.078,58.405 -10.042,58.405L-28.456,58.409C-29.421,58.409 -30.335,57.973 -30.936,57.225L-42.419,42.948C-42.483,42.868 -42.543,42.784 -42.599,42.698C-43.065,41.985 -43.221,41.114 -43.03,40.286L-38.937,22.48C-38.722,21.548 -38.09,20.761 -37.221,20.346L-20.631,12.419C-20.251,12.238 -19.837,12.133 -19.415,12.112Z" style="fill:white;fill-rule:nonzero;"/>
    </g>
    <g id="g3340" transform="matrix(160.239,0,0,160.239,-360.848,84.2946)">
        <path id="path6933" d="M21.726,9.123C21.701,9.123 20.832,9.449 19.794,9.847C18.756,10.245 17.866,10.584 17.817,10.602C17.768,10.62 17.727,10.653 17.727,10.675C17.727,10.698 17.934,11.256 18.187,11.916C18.44,12.575 18.643,13.139 18.637,13.168C18.63,13.203 18.402,13.307 17.932,13.486C17.55,13.632 17.241,13.766 17.247,13.784C17.262,13.832 21.952,15.926 22.025,15.917C22.075,15.912 22.308,15.416 23.146,13.54C23.727,12.236 24.203,11.149 24.203,11.125C24.203,11.101 24.191,11.086 24.176,11.092C23.604,11.321 22.789,11.613 22.755,11.6C22.731,11.59 22.499,11.03 22.24,10.354C21.937,9.559 21.755,9.123 21.726,9.123ZM27.821,15.404C21.561,15.404 16.038,19.396 14.065,25.347C13.343,27.525 13.158,29.971 13.543,32.28C14.084,35.521 15.739,38.497 18.234,40.715C18.378,40.843 18.503,40.948 18.512,40.948C18.521,40.948 19.187,40.289 19.991,39.484C20.811,38.663 21.468,37.979 21.488,37.926C21.574,37.695 21.382,37.275 21.031,36.925C20.669,36.564 20.282,36.385 20.037,36.466C19.972,36.487 19.683,36.751 19.248,37.186C18.871,37.564 18.537,37.873 18.507,37.873C18.443,37.873 18.081,37.43 17.704,36.892C16.841,35.659 16.212,34.262 15.845,32.761C15.725,32.271 15.568,31.344 15.593,31.275C15.605,31.243 15.847,31.234 16.652,31.234C17.784,31.234 17.848,31.226 17.982,31.055C18.121,30.879 18.193,30.618 18.21,30.236C18.227,29.829 18.175,29.552 18.035,29.313C17.895,29.075 17.899,29.075 16.69,29.074C16.1,29.074 15.596,29.061 15.57,29.044C15.529,29.018 15.531,28.947 15.579,28.5C15.787,26.595 16.492,24.646 17.541,23.073C17.784,22.709 18.221,22.141 18.258,22.141C18.279,22.141 18.682,22.526 19.154,22.996L20.014,23.851L20.19,23.833C20.688,23.782 21.339,23.185 21.478,22.654C21.502,22.561 21.513,22.441 21.502,22.387C21.487,22.315 21.253,22.059 20.629,21.431C19.856,20.655 19.781,20.569 19.823,20.518C19.971,20.339 20.872,19.682 21.463,19.323C22.935,18.429 24.927,17.756 26.448,17.639L26.719,17.618L26.728,18.885L26.738,20.151L26.874,20.277C27.264,20.641 28.324,20.653 28.735,20.298L28.864,20.186L28.88,18.915L28.897,17.644L29.159,17.649C29.48,17.655 30.252,17.787 30.843,17.937C32.54,18.366 34.139,19.164 35.502,20.26C35.674,20.398 35.815,20.536 35.815,20.566C35.815,20.595 35.435,20.999 34.972,21.463L34.13,22.305L34.132,22.493C34.138,23.055 34.902,23.821 35.461,23.824L35.65,23.826L36.493,22.984C36.956,22.521 37.352,22.141 37.371,22.141C37.391,22.141 37.527,22.303 37.675,22.5C38.81,24.019 39.61,25.861 39.933,27.702C40.044,28.336 40.107,28.977 40.063,29.03C40.032,29.067 39.826,29.075 38.92,29.075L37.815,29.075L37.719,29.156C37.509,29.333 37.355,29.891 37.401,30.315C37.437,30.658 37.536,30.93 37.679,31.083L37.805,31.218L38.919,31.227C40.024,31.237 40.034,31.237 40.034,31.305C40.034,31.456 39.926,32.098 39.82,32.575C39.478,34.118 38.78,35.693 37.875,36.958C37.492,37.493 37.18,37.874 37.122,37.874C37.095,37.874 36.764,37.564 36.387,37.186C35.612,36.411 35.584,36.392 35.286,36.479C34.754,36.633 34.173,37.275 34.123,37.763L34.105,37.936L35.397,39.254C37.05,40.939 37.072,40.96 37.149,40.919C37.272,40.853 38.083,40.081 38.435,39.696C39.414,38.622 40.145,37.561 40.771,36.304C42.314,33.206 42.688,29.663 41.83,26.273C41.126,23.494 39.539,20.913 37.352,18.992C34.715,16.677 31.334,15.404 27.821,15.404ZM25.087,21.377C24.512,21.381 23.865,21.711 23.679,22.095C23.615,22.226 23.611,22.261 23.643,22.369C23.664,22.438 24.255,23.97 24.956,25.774L26.233,29.055L26.117,29.29C25.745,30.042 25.883,30.889 26.475,31.481C26.996,32.002 27.743,32.178 28.426,31.94C28.558,31.894 28.766,31.788 28.889,31.704C29.799,31.082 29.982,29.797 29.281,28.942C29.05,28.66 28.803,28.494 28.323,28.299C28.249,28.269 28.098,27.9 26.953,24.95C26.245,23.126 25.646,21.602 25.621,21.561C25.538,21.426 25.389,21.375 25.087,21.377Z" style="fill:white;fill-rule:nonzero;"/>
        <g id="path3344" transform="matrix(0.282222,0,0,0.282222,2.81374,3.32839)">
            <path d="M54.035,131.723C52.043,130.026 48.038,125.327 46.009,122.306C42.522,117.112 39.615,109.932 38.284,103.223C37.338,98.458 37.422,88.86 38.452,84.036C42.616,64.518 56.867,49.493 75.852,44.606C90.06,40.949 104.813,43.494 117.229,51.744C120.999,54.249 127.478,60.521 129.976,64.083C139.674,77.914 142.211,94.63 136.987,110.293C134.57,117.542 130.761,123.755 125.192,129.537L121.648,133.217L116.397,127.975C113.325,124.908 111.146,122.455 111.146,122.062C111.146,120.397 113.937,117.587 115.591,117.587C115.943,117.587 117.403,118.724 118.836,120.113C121.876,123.06 121.628,123.114 124.549,118.876C128.29,113.448 130.867,106.925 131.883,100.313L132.114,98.807L123.921,98.807L123.341,97.687C122.664,96.378 122.776,92.828 123.523,91.928C123.898,91.476 124.774,91.366 128.021,91.366L132.052,91.366L132.052,89.988C132.052,86.409 130.008,79.118 127.721,74.536C126.516,72.123 122.916,66.563 122.558,66.563C122.428,66.563 120.939,67.94 119.249,69.622C116.544,72.314 116.064,72.653 115.247,72.448C113.814,72.088 111.551,69.854 111.317,68.568C111.13,67.544 111.368,67.178 114.117,64.261C117.594,60.571 117.641,60.98 113.407,58.053C108.099,54.383 100.247,51.329 94.637,50.753L92.479,50.532L92.265,55.061C92.109,58.36 91.908,59.733 91.527,60.114C90.741,60.9 87.803,61.069 86.245,60.418L84.926,59.867L84.926,50.618L83.597,50.626C80.139,50.646 71.89,53.232 67.586,55.645C64.894,57.154 60.123,60.576 60.123,60.996C60.123,61.185 61.486,62.733 63.153,64.436C65.882,67.225 66.159,67.631 65.937,68.517C65.617,69.79 63.342,72.059 62.063,72.38C61.158,72.607 60.782,72.347 57.975,69.553C56.181,67.767 54.716,66.578 54.485,66.721C53.861,67.107 50.771,71.824 49.523,74.298C47.248,78.807 44.411,89.262 45.028,90.869C45.176,91.254 46.096,91.366 49.102,91.366C53.381,91.366 53.853,91.562 54.283,93.521C54.416,94.126 54.419,95.321 54.291,96.177C53.947,98.472 53.258,98.807 48.882,98.807C44.653,98.807 44.828,98.568 45.776,103.074C47.16,109.655 50.311,116.232 54.757,121.819L55.447,122.685L58.274,120.136C59.903,118.668 61.42,117.587 61.852,117.587C62.809,117.587 65.223,119.756 65.791,121.128C66.207,122.133 66.146,122.274 64.441,124.224C63.458,125.348 61.088,127.813 59.174,129.702L55.694,133.135L54.035,131.723Z" style="fill:white;fill-rule:nonzero;"/>
        </g>
    </g>
</svg>
