<?xml version="1.0" encoding="UTF-8" standalone="no"?>
<!DOCTYPE svg PUBLIC "-//W3C//DTD SVG 1.1//EN" "http://www.w3.org/Graphics/SVG/1.1/DTD/svg11.dtd">
<svg width="100%" height="100%" viewBox="0 0 8192 8192" version="1.1" xmlns="http://www.w3.org/2000/svg" xmlns:xlink="http://www.w3.org/1999/xlink" xml:space="preserve" xmlns:serif="http://www.serif.com/" style="fill-rule:evenodd;clip-rule:evenodd;stroke-linejoin:round;stroke-miterlimit:10;">
    <g id="g70" transform="matrix(162.625,0,0,162.625,7226.43,-1637.67)">
        <path id="path3054-2-9" d="M-19.424,10.822C-19.869,10.845 -20.304,10.956 -20.705,11.148L-38.22,19.514C-39.138,19.952 -39.805,20.783 -40.032,21.767L-44.352,40.563C-44.554,41.438 -44.39,42.358 -43.898,43.112C-43.838,43.202 -43.775,43.29 -43.707,43.375L-31.586,58.447C-30.95,59.237 -29.986,59.697 -28.967,59.697L-9.528,59.693C-8.51,59.693 -7.546,59.234 -6.91,58.445L5.207,43.37C5.842,42.581 6.08,41.546 5.854,40.561L1.528,21.763C1.3,20.779 0.633,19.95 -0.284,19.512L-17.799,11.146C-18.304,10.905 -18.863,10.793 -19.424,10.822ZM-19.415,12.112C-18.885,12.085 -18.356,12.191 -17.877,12.419L-1.286,20.342C-0.416,20.757 0.216,21.543 0.431,22.476L4.53,40.281C4.745,41.215 4.519,42.196 3.917,42.944L-7.562,57.223C-8.164,57.97 -9.078,58.405 -10.042,58.405L-28.456,58.409C-29.421,58.409 -30.335,57.973 -30.936,57.225L-42.419,42.948C-42.483,42.868 -42.543,42.784 -42.599,42.698C-43.065,41.985 -43.221,41.114 -43.03,40.286L-38.937,22.48C-38.722,21.548 -38.09,20.761 -37.221,20.346L-20.631,12.419C-20.251,12.238 -19.837,12.133 -19.415,12.112Z" style="fill:white;fill-rule:nonzero;"/>
    </g>
    <g id="g3345" transform="matrix(160.239,0,0,160.239,-553.131,-107.992)">
        <rect id="rect8641" x="14.94" y="13.966" width="28.148" height="24.54" style="fill:none;stroke:white;stroke-width:1.13px;stroke-dasharray:0.8,0.4;stroke-dashoffset:4;"/>
        <path id="path8433" d="M20.146,26.236C20.146,24.364 21.668,22.842 23.54,22.842L27.919,22.842L27.919,20.762L23.54,20.762C20.519,20.762 18.067,23.214 18.067,26.236C18.067,29.257 20.519,31.709 23.54,31.709L27.919,31.709L27.919,29.629L23.54,29.629C21.668,29.629 20.146,28.108 20.146,26.236ZM24.635,27.33L33.393,27.33L33.393,25.141L24.635,25.141L24.635,27.33ZM34.487,20.762L30.108,20.762L30.108,22.842L34.487,22.842C36.359,22.842 37.881,24.364 37.881,26.236C37.881,28.108 36.359,29.629 34.487,29.629L30.108,29.629L30.108,31.709L34.487,31.709C37.509,31.709 39.961,29.257 39.961,26.236C39.961,23.214 37.509,20.762 34.487,20.762Z" style="fill:white;fill-rule:nonzero;"/>
    </g>
</svg>
