<?xml version="1.0" encoding="UTF-8" standalone="no"?>
<!DOCTYPE svg PUBLIC "-//W3C//DTD SVG 1.1//EN" "http://www.w3.org/Graphics/SVG/1.1/DTD/svg11.dtd">
<svg width="100%" height="100%" viewBox="0 0 8192 8192" version="1.1" xmlns="http://www.w3.org/2000/svg" xmlns:xlink="http://www.w3.org/1999/xlink" xml:space="preserve" xmlns:serif="http://www.serif.com/" style="fill-rule:evenodd;clip-rule:evenodd;stroke-linejoin:round;stroke-miterlimit:10;">
    <g id="g70" transform="matrix(162.625,0,0,162.625,7226.43,-1637.67)">
        <path id="path3054-2-9" d="M-19.424,10.822C-19.869,10.845 -20.304,10.956 -20.705,11.148L-38.22,19.514C-39.138,19.952 -39.805,20.783 -40.032,21.767L-44.352,40.563C-44.554,41.438 -44.39,42.358 -43.898,43.112C-43.838,43.202 -43.775,43.29 -43.707,43.375L-31.586,58.447C-30.95,59.237 -29.986,59.697 -28.967,59.697L-9.528,59.693C-8.51,59.693 -7.546,59.234 -6.91,58.445L5.207,43.37C5.842,42.581 6.08,41.546 5.854,40.561L1.528,21.763C1.3,20.779 0.633,19.95 -0.284,19.512L-17.799,11.146C-18.304,10.905 -18.863,10.793 -19.424,10.822ZM-19.415,12.112C-18.885,12.085 -18.356,12.191 -17.877,12.419L-1.286,20.342C-0.416,20.757 0.216,21.543 0.431,22.476L4.53,40.281C4.745,41.215 4.519,42.196 3.917,42.944L-7.562,57.223C-8.164,57.97 -9.078,58.405 -10.042,58.405L-28.456,58.409C-29.421,58.409 -30.335,57.973 -30.936,57.225L-42.419,42.948C-42.483,42.868 -42.543,42.784 -42.599,42.698C-43.065,41.985 -43.221,41.114 -43.03,40.286L-38.937,22.48C-38.722,21.548 -38.09,20.761 -37.221,20.346L-20.631,12.419C-20.251,12.238 -19.837,12.133 -19.415,12.112Z" style="fill:white;fill-rule:nonzero;"/>
    </g>
    <g id="g3347" transform="matrix(160.239,0,0,160.239,-424.941,-59.8918)">
        <path id="path930" d="M23.521,16.936L40.033,16.936" style="fill:none;stroke:white;stroke-width:2.25px;"/>
        <path id="path934" d="M16.395,16.936L20.529,16.936" style="fill:none;stroke:white;stroke-width:2.25px;"/>
        <g transform="matrix(0.00624068,0,0,0.00624068,2.65192,0.373765)">
            <path d="M4391.23,3432.7C4487.19,3533.33 4544.36,3659.93 4544.36,3797.42L4305.48,3797.42L4305.48,3432.7L4391.23,3432.7ZM5115.02,3432.7L5989.91,3432.7L5989.91,3797.42L5180.53,3797.42C5180.53,3670.2 5157.57,3547.66 5115.02,3432.7Z" style="fill:white;"/>
        </g>
        <g id="path936" transform="matrix(0.939402,0,0,0.875928,1.71373,2.59054)">
            <path d="M21.879,23.902C21.879,20.595 24.745,17.914 28.28,17.914C31.816,17.914 34.682,20.595 34.682,23.902L31.688,23.902C31.688,22.249 30.162,20.908 28.28,20.908C26.399,20.908 24.873,22.249 24.873,23.902L21.879,23.902Z" style="fill:white;"/>
        </g>
        <g id="path942" transform="matrix(0.339336,0,0,1,26.4484,2.05391e-15)">
            <path d="M29.521,28.936L40.033,28.936" style="fill:none;stroke:white;stroke-width:2.25px;"/>
        </g>
        <g id="path956" transform="matrix(0.00624068,0,0,0.00624068,2.65192,0.373765)">
            <path d="M5379.4,3741.46L2828.23,3741.46L2828.23,5403.14L5379.4,5403.14L5379.4,3741.46ZM4103.89,4320.08C4243.1,4320.08 4356.11,4433.1 4356.11,4572.3C4356.11,4711.5 4243.1,4824.51 4103.89,4824.51C3964.69,4824.51 3851.68,4711.5 3851.68,4572.3C3851.68,4433.1 3964.69,4320.08 4103.89,4320.08Z" style="fill:white;stroke:rgb(50,108,229);stroke-width:0.75px;stroke-linecap:square;stroke-linejoin:miter;"/>
        </g>
        <g transform="matrix(0.00624068,0,0,0.00624068,2.65192,0.373765)">
            <path d="M2864.61,5360.27L2202.18,5360.27L2202.18,5718.15L2864.61,5718.15L2864.61,5360.27ZM2864.61,5360.27L2800.9,5360.27L2800.9,5432.12L2864.61,5432.12L2864.61,5360.27Z" style="fill:white;"/>
        </g>
        <g transform="matrix(0.00624068,0,0,0.00624068,2.65192,0.373765)">
            <path d="M3344.04,5360.27C3344.04,5360.27 3344.04,5718.15 3344.04,5718.15L5988.48,5718.15L5988.48,5360.27L5418.32,5360.27L5418.32,5427.34L3344.04,5427.34L3344.04,5360.27Z" style="fill:white;"/>
        </g>
    </g>
</svg>
