<?xml version="1.0" encoding="UTF-8" standalone="no"?>
<!DOCTYPE svg PUBLIC "-//W3C//DTD SVG 1.1//EN" "http://www.w3.org/Graphics/SVG/1.1/DTD/svg11.dtd">
<svg width="100%" height="100%" viewBox="0 0 8192 8192" version="1.1" xmlns="http://www.w3.org/2000/svg" xmlns:xlink="http://www.w3.org/1999/xlink" xml:space="preserve" xmlns:serif="http://www.serif.com/" style="fill-rule:evenodd;clip-rule:evenodd;stroke-linejoin:round;stroke-miterlimit:2;">
    <g id="g70" transform="matrix(162.625,0,0,162.625,7226.43,-1637.67)">
        <path id="path3055" d="M-19.415,12.111C-19.837,12.132 -20.25,12.237 -20.631,12.419L-37.22,20.345C-38.089,20.76 -38.722,21.547 -38.937,22.48L-43.029,40.285C-43.22,41.113 -43.065,41.984 -42.599,42.697C-42.543,42.784 -42.483,42.867 -42.418,42.948L-30.936,57.224C-30.334,57.972 -29.42,58.408 -28.456,58.408L-10.041,58.404C-9.077,58.405 -8.163,57.969 -7.561,57.222L3.917,42.943C4.519,42.195 4.745,41.214 4.53,40.281L0.431,22.475C0.216,21.543 -0.416,20.756 -1.285,20.341L-17.877,12.419C-18.355,12.19 -18.884,12.084 -19.415,12.111Z" style="fill:rgb(50,108,229);fill-rule:nonzero;"/>
        <path id="path3054-2-9" d="M-19.424,10.822C-19.869,10.845 -20.304,10.956 -20.705,11.148L-38.22,19.514C-39.138,19.952 -39.805,20.783 -40.032,21.767L-44.352,40.563C-44.554,41.438 -44.39,42.358 -43.898,43.112C-43.838,43.202 -43.775,43.29 -43.707,43.375L-31.586,58.447C-30.95,59.237 -29.986,59.697 -28.967,59.697L-9.528,59.693C-8.51,59.693 -7.546,59.234 -6.91,58.445L5.207,43.37C5.842,42.581 6.08,41.546 5.854,40.561L1.528,21.763C1.3,20.779 0.633,19.95 -0.284,19.512L-17.799,11.146C-18.304,10.905 -18.863,10.793 -19.424,10.822ZM-19.415,12.112C-18.885,12.085 -18.356,12.191 -17.877,12.419L-1.286,20.342C-0.416,20.757 0.216,21.543 0.431,22.476L4.53,40.281C4.745,41.215 4.519,42.196 3.917,42.944L-7.562,57.223C-8.164,57.97 -9.078,58.405 -10.042,58.405L-28.456,58.409C-29.421,58.409 -30.335,57.973 -30.936,57.225L-42.419,42.948C-42.483,42.868 -42.543,42.784 -42.599,42.698C-43.065,41.985 -43.221,41.114 -43.03,40.286L-38.937,22.48C-38.722,21.548 -38.09,20.761 -37.221,20.346L-20.631,12.419C-20.251,12.238 -19.837,12.133 -19.415,12.112L-19.415,12.112Z" style="fill:white;fill-rule:nonzero;"/>
    </g>
    <g id="path7707" transform="matrix(160.239,0,0,160.239,-450.881,-411.855)">
        <path d="M28.378,14.13L16.921,19.221L16.921,26.86C16.921,33.922 21.811,40.53 28.378,42.134C34.945,40.53 39.83,33.922 39.83,26.86L39.83,19.221L28.378,14.13ZM28.378,19.524C29.858,19.524 31.196,20.417 31.76,21.787C32.328,23.158 32.017,24.734 30.967,25.784C29.918,26.828 28.341,27.145 26.971,26.576C25.605,26.008 24.712,24.674 24.712,23.19C24.712,21.164 26.352,19.524 28.378,19.524ZM35.247,34.683C35.247,34.775 35.22,34.862 35.169,34.94C35.087,35.063 35.004,35.192 34.913,35.311C33.295,37.538 31.004,39.183 28.378,39.999C25.747,39.183 23.456,37.538 21.839,35.311C21.747,35.192 21.664,35.063 21.582,34.94C21.531,34.862 21.504,34.775 21.504,34.683L21.504,32.648C21.504,29.839 26.087,28.423 28.378,28.423C30.669,28.423 35.247,29.839 35.247,32.648L35.247,34.683Z" style="fill:white;fill-rule:nonzero;"/>
    </g>
</svg>
