<?xml version="1.0" encoding="UTF-8" standalone="no"?>
<!DOCTYPE svg PUBLIC "-//W3C//DTD SVG 1.1//EN" "http://www.w3.org/Graphics/SVG/1.1/DTD/svg11.dtd">
<svg width="100%" height="100%" viewBox="0 0 8192 8192" version="1.1" xmlns="http://www.w3.org/2000/svg" xmlns:xlink="http://www.w3.org/1999/xlink" xml:space="preserve" xmlns:serif="http://www.serif.com/" style="fill-rule:evenodd;clip-rule:evenodd;stroke-linecap:square;stroke-miterlimit:10;">
    <g id="g70" transform="matrix(162.625,0,0,162.625,7226.43,-1637.67)">
        <path id="path3054-2-9" d="M-19.424,10.822C-19.869,10.845 -20.304,10.956 -20.705,11.148L-38.22,19.514C-39.138,19.952 -39.805,20.783 -40.032,21.767L-44.352,40.563C-44.554,41.438 -44.39,42.358 -43.898,43.112C-43.838,43.202 -43.775,43.29 -43.707,43.375L-31.586,58.447C-30.95,59.237 -29.986,59.697 -28.967,59.697L-9.528,59.693C-8.51,59.693 -7.546,59.234 -6.91,58.445L5.207,43.37C5.842,42.581 6.08,41.546 5.854,40.561L1.528,21.763C1.3,20.779 0.633,19.95 -0.284,19.512L-17.799,11.146C-18.304,10.905 -18.863,10.793 -19.424,10.822ZM-19.415,12.112C-18.885,12.085 -18.356,12.191 -17.877,12.419L-1.286,20.342C-0.416,20.757 0.216,21.543 0.431,22.476L4.53,40.281C4.745,41.215 4.519,42.196 3.917,42.944L-7.562,57.223C-8.164,57.97 -9.078,58.405 -10.042,58.405L-28.456,58.409C-29.421,58.409 -30.335,57.973 -30.936,57.225L-42.419,42.948C-42.483,42.868 -42.543,42.784 -42.599,42.698C-43.065,41.985 -43.221,41.114 -43.03,40.286L-38.937,22.48C-38.722,21.548 -38.09,20.761 -37.221,20.346L-20.631,12.419C-20.251,12.238 -19.837,12.133 -19.415,12.112Z" style="fill:white;fill-rule:nonzero;"/>
    </g>
    <g id="path6479" transform="matrix(160.239,0,0,160.239,-450.881,-411.855)">
        <path d="M15.363,24.403C15.363,25.471 21.326,26.337 28.681,26.337C36.036,26.337 41.999,25.471 41.999,24.403L41.999,29.633C41.999,30.701 36.036,31.567 28.681,31.567C21.326,31.567 15.363,30.701 15.363,29.633L15.363,24.403Z" style="fill:white;stroke:rgb(238,238,238);stroke-width:0.59px;"/>
    </g>
    <g id="g3347" transform="matrix(160.239,0,0,160.239,-499.878,-80.0452)">
        <g id="g3348">
            <path id="path6477" d="M41.999,30.844C41.999,31.912 36.036,32.777 28.681,32.777C21.326,32.777 15.363,31.912 15.363,30.844C15.363,29.776 21.326,28.911 28.681,28.911C36.036,28.911 41.999,29.776 41.999,30.844L41.999,36.074C41.999,37.142 36.036,38.007 28.681,38.007C21.326,38.007 15.363,37.142 15.363,36.074L15.363,30.844" style="fill:none;stroke:white;stroke-width:1.18px;stroke-linecap:butt;stroke-linejoin:round;stroke-dasharray:1.66,0.42;"/>
            <path id="path6483" d="M41.999,22.292C41.999,23.359 36.036,24.225 28.681,24.225C21.326,24.225 15.363,23.359 15.363,22.292C15.363,21.224 21.326,20.358 28.681,20.358C36.036,20.358 41.999,21.224 41.999,22.292L41.999,27.522C41.999,28.589 36.036,29.455 28.681,29.455C21.326,29.455 15.363,28.589 15.363,27.522L15.363,22.292" style="fill:none;stroke:white;stroke-width:1.18px;stroke-linecap:butt;stroke-linejoin:round;"/>
            <path id="path6489" d="M41.999,16.049C41.999,17.117 36.037,17.982 28.681,17.982C21.326,17.982 15.364,17.117 15.364,16.049C15.364,14.981 21.326,14.115 28.681,14.115C36.037,14.115 41.999,14.981 41.999,16.049L41.999,21.279C41.999,22.347 36.037,23.212 28.681,23.212C21.326,23.212 15.364,22.347 15.364,21.279L15.364,16.049" style="fill:none;stroke:white;stroke-width:1.18px;stroke-linecap:butt;stroke-linejoin:round;stroke-dasharray:1.66,0.42;"/>
        </g>
    </g>
</svg>
