<?xml version="1.0" encoding="UTF-8" standalone="no"?>
<!DOCTYPE svg PUBLIC "-//W3C//DTD SVG 1.1//EN" "http://www.w3.org/Graphics/SVG/1.1/DTD/svg11.dtd">
<svg width="100%" height="100%" viewBox="0 0 1024 1024" version="1.1" xmlns="http://www.w3.org/2000/svg" xmlns:xlink="http://www.w3.org/1999/xlink" xml:space="preserve" xmlns:serif="http://www.serif.com/" style="fill-rule:evenodd;clip-rule:evenodd;stroke-linejoin:round;stroke-miterlimit:2;">
    <g id="border" transform="matrix(4.62843,0,0,4.62843,-20.9016,-5.55186)">
        <path d="M225.407,135.107L206.4,52.547C205.366,48.224 202.442,44.586 198.442,42.647L121.507,5.917C117.471,3.991 112.772,3.991 108.736,5.917L31.808,42.669C27.808,44.606 24.883,48.242 23.847,52.564L4.873,135.129C4.009,138.972 4.728,143.006 6.868,146.314C7.129,146.714 7.406,147.102 7.706,147.476L60.952,213.681C63.776,217.128 67.995,219.141 72.451,219.168L157.838,219.148C162.293,219.123 166.512,217.112 169.338,213.668L222.565,147.457C225.324,143.983 226.369,139.441 225.407,135.11L225.407,135.107ZM216.21,138.973C216.082,139.558 215.916,140.133 215.712,140.696C215.222,142.066 214.509,143.345 213.602,144.482L166.303,203.32L164.817,205.172C163.9,206.297 162.806,207.265 161.577,208.037C161.103,208.341 160.61,208.615 160.103,208.859C159.761,209.017 159.413,209.16 159.058,209.289C158.605,209.461 158.143,209.61 157.675,209.734C157.022,209.91 156.358,210.037 155.686,210.113C155.218,210.166 154.747,210.193 154.276,210.195L76.772,210.213L76.012,210.213C74.853,210.206 73.701,210.047 72.583,209.741C71.22,209.38 69.921,208.814 68.728,208.062C67.784,207.461 66.918,206.745 66.152,205.93C65.919,205.684 65.684,205.443 65.472,205.18L16.667,144.501C16.395,144.158 16.14,143.803 15.902,143.435C15.35,142.582 14.899,141.667 14.559,140.709C14.358,140.147 14.194,139.573 14.068,138.99C13.642,137.077 13.643,135.093 14.072,133.181L31.466,57.506C32.415,53.545 35.095,50.212 38.761,48.436L109.269,14.751C112.968,12.986 117.275,12.986 120.974,14.751L191.493,48.421C195.158,50.199 197.838,53.532 198.786,57.494L216.208,133.168C216.637,135.08 216.638,137.063 216.21,138.975L216.21,138.973Z" style="fill:white;fill-rule:nonzero;"/>
    </g>
    <g id="clusters" transform="matrix(15.9217,0,0,15.9217,123.599,107.239)">
        <g id="kubernetes" transform="matrix(0.10497,0,0,0.10497,0.43088,14.922)">
            <path d="M185.814,127.106C185.454,127.023 184.94,126.881 184.587,126.816C183.246,126.631 181.895,126.522 180.541,126.49C177.983,126.323 175.448,125.907 172.971,125.248C172.207,124.817 171.577,124.183 171.151,123.416L169.447,122.92C171.268,109.613 168.139,96.091 160.657,84.937C161.093,84.541 161.919,83.81 162.152,83.595C162.094,82.726 162.378,81.868 162.944,81.205C164.888,79.535 166.991,78.058 169.221,76.795C170.429,76.181 171.599,75.498 172.728,74.749C173,74.547 173.372,74.227 173.657,73.999C174.878,73.221 175.619,71.87 175.619,70.422C175.619,68.095 173.704,66.18 171.377,66.18C170.264,66.18 169.194,66.618 168.401,67.399C168.113,67.626 167.721,67.924 167.465,68.146C166.479,69.075 165.548,70.06 164.676,71.096C162.951,72.992 161.045,74.717 158.986,76.244C158.175,76.574 157.288,76.67 156.426,76.522L154.82,77.669C145.581,67.973 133.126,61.955 119.788,60.742C119.749,60.181 119.701,59.165 119.686,58.858C118.97,58.361 118.475,57.604 118.309,56.748C118.22,54.187 118.38,51.622 118.787,49.092C119.056,47.767 119.248,46.427 119.362,45.08C119.375,44.74 119.355,44.246 119.355,43.879C119.369,43.738 119.376,43.596 119.376,43.454C119.376,41.127 117.461,39.212 115.134,39.212C112.807,39.212 110.892,41.127 110.892,43.454C110.892,43.598 110.9,43.741 110.914,43.883C110.914,43.923 110.923,43.961 110.924,44.001C110.92,44.351 110.903,44.775 110.914,45.081C111.029,46.429 111.222,47.77 111.49,49.096C111.895,51.626 112.052,54.189 111.96,56.75C111.72,57.593 111.245,58.35 110.59,58.932L110.49,60.718C107.922,60.93 105.373,61.322 102.86,61.891C92.305,64.276 82.701,69.764 75.286,77.645C74.773,77.291 74.264,76.93 73.76,76.563C72.925,76.813 72.025,76.725 71.254,76.32C69.195,74.796 67.289,73.074 65.564,71.179C64.696,70.143 63.768,69.158 62.787,68.229C62.53,68.009 62.137,67.709 61.849,67.479C61.012,66.804 59.981,66.415 58.907,66.369C57.614,66.301 56.363,66.855 55.544,67.859C54.129,69.852 54.597,72.655 56.582,74.081L56.647,74.127C56.923,74.353 57.263,74.642 57.519,74.829C58.645,75.578 59.813,76.262 61.018,76.877C63.249,78.14 65.351,79.618 67.294,81.289C67.799,82.005 68.093,82.848 68.143,83.723L69.494,84.931C62.034,96.125 58.966,109.689 60.883,123.004L59.116,123.518C58.655,124.254 58.035,124.879 57.302,125.345C54.827,126.006 52.293,126.423 49.737,126.592C48.382,126.623 47.03,126.732 45.688,126.918C45.364,126.978 44.914,127.092 44.561,127.18L44.524,127.188L44.464,127.206C42.366,127.482 40.78,129.29 40.78,131.406C40.78,133.73 42.692,135.642 45.016,135.642C45.466,135.642 45.912,135.57 46.339,135.43L46.402,135.42C46.43,135.414 46.454,135.4 46.482,135.395C46.83,135.315 47.268,135.232 47.574,135.149C48.863,134.738 50.127,134.253 51.36,133.698C53.737,132.74 56.201,132.014 58.718,131.533C59.591,131.586 60.431,131.883 61.144,132.39L62.984,132.075C67.113,144.833 75.775,155.647 87.324,162.462L86.555,164.302C86.912,165.043 87.044,165.874 86.932,166.689C85.88,169.093 84.601,171.392 83.112,173.553C82.293,174.632 81.538,175.758 80.849,176.925C80.681,177.243 80.468,177.73 80.307,178.063C79.911,178.722 79.702,179.477 79.702,180.246C79.702,182.57 81.615,184.484 83.94,184.484C85.723,184.484 87.325,183.358 87.928,181.679L87.935,181.671L87.935,181.661C88.095,181.331 88.322,180.898 88.457,180.589C88.938,179.324 89.344,178.033 89.675,176.721C90.404,174.053 91.504,171.501 92.943,169.139C93.446,168.667 94.08,168.357 94.762,168.251L95.719,166.521C108.244,171.337 122.115,171.373 134.665,166.62C134.933,167.098 135.433,168.012 135.565,168.243C136.427,168.381 137.201,168.851 137.72,169.553C138.915,171.818 139.885,174.195 140.618,176.649C140.952,177.961 141.361,179.252 141.843,180.517C141.98,180.829 142.203,181.267 142.365,181.599C142.967,183.28 144.57,184.409 146.357,184.409C148.683,184.409 150.597,182.495 150.597,180.169C150.597,179.402 150.389,178.65 149.995,177.992C149.834,177.659 149.612,177.172 149.445,176.856C148.756,175.692 148.001,174.569 147.182,173.492C145.719,171.386 144.466,169.142 143.44,166.792C143.217,165.952 143.334,165.057 143.764,164.302C143.494,163.75 143.259,163.181 143.061,162.599C154.647,155.729 163.309,144.831 167.389,131.994C167.935,132.081 168.886,132.247 169.195,132.31C169.837,131.721 170.684,131.406 171.555,131.433C174.073,131.914 176.538,132.639 178.915,133.598C180.148,134.158 181.413,134.646 182.703,135.06C183.008,135.14 183.443,135.216 183.793,135.293C183.822,135.301 183.848,135.313 183.876,135.321L183.936,135.33C184.362,135.47 184.808,135.541 185.257,135.541C187.581,135.541 189.493,133.629 189.493,131.305C189.493,129.191 187.91,127.384 185.814,127.106ZM145.714,84.119L127.677,96.906L127.614,96.876C126.977,97.341 126.209,97.591 125.42,97.591C123.442,97.591 121.791,96.014 121.701,94.038L121.681,94.028L120.428,71.925C129.963,73.109 138.85,77.395 145.713,84.119L145.714,84.119ZM111.736,108.347L118.524,108.347L122.744,113.623L121.231,120.203L115.135,123.137L109.021,120.197L107.505,113.614L111.736,108.347ZM105.35,72.699C106.837,72.364 108.34,72.106 109.853,71.925L108.598,94.062L108.506,94.106C108.422,96.086 106.771,97.669 104.789,97.669C104.004,97.669 103.238,97.42 102.602,96.958L102.567,96.978L84.413,84.106C90.192,78.427 97.445,74.475 105.35,72.699ZM77.83,92.379L94.404,107.203L94.386,107.293C95.198,107.999 95.664,109.024 95.664,110.099C95.664,111.771 94.537,113.248 92.924,113.688L92.907,113.76L71.662,119.89C70.604,110.291 72.775,100.608 77.83,92.38L77.83,92.379ZM100.021,131.759L91.58,152.156C83.48,146.971 77.313,139.253 74.044,130.208L95.827,126.508L95.864,126.557C96.105,126.511 96.349,126.489 96.594,126.492C98.614,126.522 100.259,128.192 100.259,130.212C100.259,130.715 100.156,131.214 99.958,131.677L100.021,131.759ZM124.937,157.989C117.04,159.8 108.792,159.377 101.122,156.766L111.835,137.394L111.853,137.394C112.502,136.189 113.764,135.434 115.133,135.434C116.499,135.434 117.76,136.186 118.41,137.388L118.49,137.388L129.23,156.792C127.836,157.257 126.405,157.657 124.937,157.991L124.937,157.989ZM138.778,152.238L130.25,131.633L130.276,131.596C129.495,129.776 130.295,127.635 132.079,126.773C132.524,126.555 133.009,126.429 133.504,126.403C133.79,126.39 134.078,126.411 134.359,126.466L134.396,126.42L156.373,130.134C153.129,139.252 146.936,147.033 138.778,152.239L138.778,152.238ZM158.681,119.818L137.329,113.668L137.309,113.578C135.699,113.133 134.576,111.658 134.576,109.987C134.576,108.913 135.04,107.89 135.849,107.183L135.841,107.14L152.323,92.389C157.369,100.596 159.602,110.229 158.68,119.819L158.681,119.818Z" style="fill:white;fill-rule:nonzero;"/>
        </g>
        <g id="kubernetes1" serif:id="kubernetes" transform="matrix(0.0916766,-0.0511286,0.0511286,0.0916766,12.9904,10.9927)">
            <path d="M185.814,127.106C185.454,127.023 184.94,126.881 184.587,126.816C183.246,126.631 181.895,126.522 180.541,126.49C177.983,126.323 175.448,125.907 172.971,125.248C172.207,124.817 171.577,124.183 171.151,123.416L169.447,122.92C171.268,109.613 168.139,96.091 160.657,84.937C161.093,84.541 161.919,83.81 162.152,83.595C162.094,82.726 162.378,81.868 162.944,81.205C164.888,79.535 166.991,78.058 169.221,76.795C170.429,76.181 171.599,75.498 172.728,74.749C173,74.547 173.372,74.227 173.657,73.999C174.878,73.221 175.619,71.87 175.619,70.422C175.619,68.095 173.704,66.18 171.377,66.18C170.264,66.18 169.194,66.618 168.401,67.399C168.113,67.626 167.721,67.924 167.465,68.146C166.479,69.075 165.548,70.06 164.676,71.096C162.951,72.992 161.045,74.717 158.986,76.244C158.175,76.574 157.288,76.67 156.426,76.522L154.82,77.669C145.581,67.973 133.126,61.955 119.788,60.742C119.749,60.181 119.701,59.165 119.686,58.858C118.97,58.361 118.475,57.604 118.309,56.748C118.22,54.187 118.38,51.622 118.787,49.092C119.056,47.767 119.248,46.427 119.362,45.08C119.375,44.74 119.355,44.246 119.355,43.879C119.369,43.738 119.376,43.596 119.376,43.454C119.376,41.127 117.461,39.212 115.134,39.212C112.807,39.212 110.892,41.127 110.892,43.454C110.892,43.598 110.9,43.741 110.914,43.883C110.914,43.923 110.923,43.961 110.924,44.001C110.92,44.351 110.903,44.775 110.914,45.081C111.029,46.429 111.222,47.77 111.49,49.096C111.895,51.626 112.052,54.189 111.96,56.75C111.72,57.593 111.245,58.35 110.59,58.932L110.49,60.718C107.922,60.93 105.373,61.322 102.86,61.891C92.305,64.276 82.701,69.764 75.286,77.645C74.773,77.291 74.264,76.93 73.76,76.563C72.925,76.813 72.025,76.725 71.254,76.32C69.195,74.796 67.289,73.074 65.564,71.179C64.696,70.143 63.768,69.158 62.787,68.229C62.53,68.009 62.137,67.709 61.849,67.479C61.012,66.804 59.981,66.415 58.907,66.369C57.614,66.301 56.363,66.855 55.544,67.859C54.129,69.852 54.597,72.655 56.582,74.081L56.647,74.127C56.923,74.353 57.263,74.642 57.519,74.829C58.645,75.578 59.813,76.262 61.018,76.877C63.249,78.14 65.351,79.618 67.294,81.289C67.799,82.005 68.093,82.848 68.143,83.723L69.494,84.931C62.034,96.125 58.966,109.689 60.883,123.004L59.116,123.518C58.655,124.254 58.035,124.879 57.302,125.345C54.827,126.006 52.293,126.423 49.737,126.592C48.382,126.623 47.03,126.732 45.688,126.918C45.364,126.978 44.914,127.092 44.561,127.18L44.524,127.188L44.464,127.206C42.366,127.482 40.78,129.29 40.78,131.406C40.78,133.73 42.692,135.642 45.016,135.642C45.466,135.642 45.912,135.57 46.339,135.43L46.402,135.42C46.43,135.414 46.454,135.4 46.482,135.395C46.83,135.315 47.268,135.232 47.574,135.149C48.863,134.738 50.127,134.253 51.36,133.698C53.737,132.74 56.201,132.014 58.718,131.533C59.591,131.586 60.431,131.883 61.144,132.39L62.984,132.075C67.113,144.833 75.775,155.647 87.324,162.462L86.555,164.302C86.912,165.043 87.044,165.874 86.932,166.689C85.88,169.093 84.601,171.392 83.112,173.553C82.293,174.632 81.538,175.758 80.849,176.925C80.681,177.243 80.468,177.73 80.307,178.063C79.911,178.722 79.702,179.477 79.702,180.246C79.702,182.57 81.615,184.484 83.94,184.484C85.723,184.484 87.325,183.358 87.928,181.679L87.935,181.671L87.935,181.661C88.095,181.331 88.322,180.898 88.457,180.589C88.938,179.324 89.344,178.033 89.675,176.721C90.404,174.053 91.504,171.501 92.943,169.139C93.446,168.667 94.08,168.357 94.762,168.251L95.719,166.521C108.244,171.337 122.115,171.373 134.665,166.62C134.933,167.098 135.433,168.012 135.565,168.243C136.427,168.381 137.201,168.851 137.72,169.553C138.915,171.818 139.885,174.195 140.618,176.649C140.952,177.961 141.361,179.252 141.843,180.517C141.98,180.829 142.203,181.267 142.365,181.599C142.967,183.28 144.57,184.409 146.357,184.409C148.683,184.409 150.597,182.495 150.597,180.169C150.597,179.402 150.389,178.65 149.995,177.992C149.834,177.659 149.612,177.172 149.445,176.856C148.756,175.692 148.001,174.569 147.182,173.492C145.719,171.386 144.466,169.142 143.44,166.792C143.217,165.952 143.334,165.057 143.764,164.302C143.494,163.75 143.259,163.181 143.061,162.599C154.647,155.729 163.309,144.831 167.389,131.994C167.935,132.081 168.886,132.247 169.195,132.31C169.837,131.721 170.684,131.406 171.555,131.433C174.073,131.914 176.538,132.639 178.915,133.598C180.148,134.158 181.413,134.646 182.703,135.06C183.008,135.14 183.443,135.216 183.793,135.293C183.822,135.301 183.848,135.313 183.876,135.321L183.936,135.33C184.362,135.47 184.808,135.541 185.257,135.541C187.581,135.541 189.493,133.629 189.493,131.305C189.493,129.191 187.91,127.384 185.814,127.106ZM145.714,84.119L127.677,96.906L127.614,96.876C126.977,97.341 126.209,97.591 125.42,97.591C123.442,97.591 121.791,96.014 121.701,94.038L121.681,94.028L120.428,71.925C129.963,73.109 138.85,77.395 145.713,84.119L145.714,84.119ZM111.736,108.347L118.524,108.347L122.744,113.623L121.231,120.203L115.135,123.137L109.021,120.197L107.505,113.614L111.736,108.347ZM105.35,72.699C106.837,72.364 108.34,72.106 109.853,71.925L108.598,94.062L108.506,94.106C108.422,96.086 106.771,97.669 104.789,97.669C104.004,97.669 103.238,97.42 102.602,96.958L102.567,96.978L84.413,84.106C90.192,78.427 97.445,74.475 105.35,72.699ZM77.83,92.379L94.404,107.203L94.386,107.293C95.198,107.999 95.664,109.024 95.664,110.099C95.664,111.771 94.537,113.248 92.924,113.688L92.907,113.76L71.662,119.89C70.604,110.291 72.775,100.608 77.83,92.38L77.83,92.379ZM100.021,131.759L91.58,152.156C83.48,146.971 77.313,139.253 74.044,130.208L95.827,126.508L95.864,126.557C96.105,126.511 96.349,126.489 96.594,126.492C98.614,126.522 100.259,128.192 100.259,130.212C100.259,130.715 100.156,131.214 99.958,131.677L100.021,131.759ZM124.937,157.989C117.04,159.8 108.792,159.377 101.122,156.766L111.835,137.394L111.853,137.394C112.502,136.189 113.764,135.434 115.133,135.434C116.499,135.434 117.76,136.186 118.41,137.388L118.49,137.388L129.23,156.792C127.836,157.257 126.405,157.657 124.937,157.991L124.937,157.989ZM138.778,152.238L130.25,131.633L130.276,131.596C129.495,129.776 130.295,127.635 132.079,126.773C132.524,126.555 133.009,126.429 133.504,126.403C133.79,126.39 134.078,126.411 134.359,126.466L134.396,126.42L156.373,130.134C153.129,139.252 146.936,147.033 138.778,152.239L138.778,152.238ZM158.681,119.818L137.329,113.668L137.309,113.578C135.699,113.133 134.576,111.658 134.576,109.987C134.576,108.913 135.04,107.89 135.849,107.183L135.841,107.14L152.323,92.389C157.369,100.596 159.602,110.229 158.68,119.819L158.681,119.818Z" style="fill:white;fill-rule:nonzero;"/>
        </g>
        <g id="kubernetes2" serif:id="kubernetes" transform="matrix(0.138578,0.0585861,-0.0585861,0.138578,19.8617,10.0259)">
            <path d="M185.814,127.106C185.454,127.023 184.94,126.881 184.587,126.816C183.246,126.631 181.895,126.522 180.541,126.49C177.983,126.323 175.448,125.907 172.971,125.248C172.207,124.817 171.577,124.183 171.151,123.416L169.447,122.92C171.268,109.613 168.139,96.091 160.657,84.937C161.093,84.541 161.919,83.81 162.152,83.595C162.094,82.726 162.378,81.868 162.944,81.205C164.888,79.535 166.991,78.058 169.221,76.795C170.429,76.181 171.599,75.498 172.728,74.749C173,74.547 173.372,74.227 173.657,73.999C174.878,73.221 175.619,71.87 175.619,70.422C175.619,68.095 173.704,66.18 171.377,66.18C170.264,66.18 169.194,66.618 168.401,67.399C168.113,67.626 167.721,67.924 167.465,68.146C166.479,69.075 165.548,70.06 164.676,71.096C162.951,72.992 161.045,74.717 158.986,76.244C158.175,76.574 157.288,76.67 156.426,76.522L154.82,77.669C145.581,67.973 133.126,61.955 119.788,60.742C119.749,60.181 119.701,59.165 119.686,58.858C118.97,58.361 118.475,57.604 118.309,56.748C118.22,54.187 118.38,51.622 118.787,49.092C119.056,47.767 119.248,46.427 119.362,45.08C119.375,44.74 119.355,44.246 119.355,43.879C119.369,43.738 119.376,43.596 119.376,43.454C119.376,41.127 117.461,39.212 115.134,39.212C112.807,39.212 110.892,41.127 110.892,43.454C110.892,43.598 110.9,43.741 110.914,43.883C110.914,43.923 110.923,43.961 110.924,44.001C110.92,44.351 110.903,44.775 110.914,45.081C111.029,46.429 111.222,47.77 111.49,49.096C111.895,51.626 112.052,54.189 111.96,56.75C111.72,57.593 111.245,58.35 110.59,58.932L110.49,60.718C107.922,60.93 105.373,61.322 102.86,61.891C92.305,64.276 82.701,69.764 75.286,77.645C74.773,77.291 74.264,76.93 73.76,76.563C72.925,76.813 72.025,76.725 71.254,76.32C69.195,74.796 67.289,73.074 65.564,71.179C64.696,70.143 63.768,69.158 62.787,68.229C62.53,68.009 62.137,67.709 61.849,67.479C61.012,66.804 59.981,66.415 58.907,66.369C57.614,66.301 56.363,66.855 55.544,67.859C54.129,69.852 54.597,72.655 56.582,74.081L56.647,74.127C56.923,74.353 57.263,74.642 57.519,74.829C58.645,75.578 59.813,76.262 61.018,76.877C63.249,78.14 65.351,79.618 67.294,81.289C67.799,82.005 68.093,82.848 68.143,83.723L69.494,84.931C62.034,96.125 58.966,109.689 60.883,123.004L59.116,123.518C58.655,124.254 58.035,124.879 57.302,125.345C54.827,126.006 52.293,126.423 49.737,126.592C48.382,126.623 47.03,126.732 45.688,126.918C45.364,126.978 44.914,127.092 44.561,127.18L44.524,127.188L44.464,127.206C42.366,127.482 40.78,129.29 40.78,131.406C40.78,133.73 42.692,135.642 45.016,135.642C45.466,135.642 45.912,135.57 46.339,135.43L46.402,135.42C46.43,135.414 46.454,135.4 46.482,135.395C46.83,135.315 47.268,135.232 47.574,135.149C48.863,134.738 50.127,134.253 51.36,133.698C53.737,132.74 56.201,132.014 58.718,131.533C59.591,131.586 60.431,131.883 61.144,132.39L62.984,132.075C67.113,144.833 75.775,155.647 87.324,162.462L86.555,164.302C86.912,165.043 87.044,165.874 86.932,166.689C85.88,169.093 84.601,171.392 83.112,173.553C82.293,174.632 81.538,175.758 80.849,176.925C80.681,177.243 80.468,177.73 80.307,178.063C79.911,178.722 79.702,179.477 79.702,180.246C79.702,182.57 81.615,184.484 83.94,184.484C85.723,184.484 87.325,183.358 87.928,181.679L87.935,181.671L87.935,181.661C88.095,181.331 88.322,180.898 88.457,180.589C88.938,179.324 89.344,178.033 89.675,176.721C90.404,174.053 91.504,171.501 92.943,169.139C93.446,168.667 94.08,168.357 94.762,168.251L95.719,166.521C108.244,171.337 122.115,171.373 134.665,166.62C134.933,167.098 135.433,168.012 135.565,168.243C136.427,168.381 137.201,168.851 137.72,169.553C138.915,171.818 139.885,174.195 140.618,176.649C140.952,177.961 141.361,179.252 141.843,180.517C141.98,180.829 142.203,181.267 142.365,181.599C142.967,183.28 144.57,184.409 146.357,184.409C148.683,184.409 150.597,182.495 150.597,180.169C150.597,179.402 150.389,178.65 149.995,177.992C149.834,177.659 149.612,177.172 149.445,176.856C148.756,175.692 148.001,174.569 147.182,173.492C145.719,171.386 144.466,169.142 143.44,166.792C143.217,165.952 143.334,165.057 143.764,164.302C143.494,163.75 143.259,163.181 143.061,162.599C154.647,155.729 163.309,144.831 167.389,131.994C167.935,132.081 168.886,132.247 169.195,132.31C169.837,131.721 170.684,131.406 171.555,131.433C174.073,131.914 176.538,132.639 178.915,133.598C180.148,134.158 181.413,134.646 182.703,135.06C183.008,135.14 183.443,135.216 183.793,135.293C183.822,135.301 183.848,135.313 183.876,135.321L183.936,135.33C184.362,135.47 184.808,135.541 185.257,135.541C187.581,135.541 189.493,133.629 189.493,131.305C189.493,129.191 187.91,127.384 185.814,127.106ZM145.714,84.119L127.677,96.906L127.614,96.876C126.977,97.341 126.209,97.591 125.42,97.591C123.442,97.591 121.791,96.014 121.701,94.038L121.681,94.028L120.428,71.925C129.963,73.109 138.85,77.395 145.713,84.119L145.714,84.119ZM111.736,108.347L118.524,108.347L122.744,113.623L121.231,120.203L115.135,123.137L109.021,120.197L107.505,113.614L111.736,108.347ZM105.35,72.699C106.837,72.364 108.34,72.106 109.853,71.925L108.598,94.062L108.506,94.106C108.422,96.086 106.771,97.669 104.789,97.669C104.004,97.669 103.238,97.42 102.602,96.958L102.567,96.978L84.413,84.106C90.192,78.427 97.445,74.475 105.35,72.699ZM77.83,92.379L94.404,107.203L94.386,107.293C95.198,107.999 95.664,109.024 95.664,110.099C95.664,111.771 94.537,113.248 92.924,113.688L92.907,113.76L71.662,119.89C70.604,110.291 72.775,100.608 77.83,92.38L77.83,92.379ZM100.021,131.759L91.58,152.156C83.48,146.971 77.313,139.253 74.044,130.208L95.827,126.508L95.864,126.557C96.105,126.511 96.349,126.489 96.594,126.492C98.614,126.522 100.259,128.192 100.259,130.212C100.259,130.715 100.156,131.214 99.958,131.677L100.021,131.759ZM124.937,157.989C117.04,159.8 108.792,159.377 101.122,156.766L111.835,137.394L111.853,137.394C112.502,136.189 113.764,135.434 115.133,135.434C116.499,135.434 117.76,136.186 118.41,137.388L118.49,137.388L129.23,156.792C127.836,157.257 126.405,157.657 124.937,157.991L124.937,157.989ZM138.778,152.238L130.25,131.633L130.276,131.596C129.495,129.776 130.295,127.635 132.079,126.773C132.524,126.555 133.009,126.429 133.504,126.403C133.79,126.39 134.078,126.411 134.359,126.466L134.396,126.42L156.373,130.134C153.129,139.252 146.936,147.033 138.778,152.239L138.778,152.238ZM158.681,119.818L137.329,113.668L137.309,113.578C135.699,113.133 134.576,111.658 134.576,109.987C134.576,108.913 135.04,107.89 135.849,107.183L135.841,107.14L152.323,92.389C157.369,100.596 159.602,110.229 158.68,119.819L158.681,119.818Z" style="fill:white;fill-rule:nonzero;"/>
        </g>
    </g>
</svg>
