<?xml version="1.0" encoding="UTF-8" standalone="no"?>
<!DOCTYPE svg PUBLIC "-//W3C//DTD SVG 1.1//EN" "http://www.w3.org/Graphics/SVG/1.1/DTD/svg11.dtd">
<svg width="100%" height="100%" viewBox="0 0 8192 8192" version="1.1" xmlns="http://www.w3.org/2000/svg" xmlns:xlink="http://www.w3.org/1999/xlink" xml:space="preserve" xmlns:serif="http://www.serif.com/" style="fill-rule:evenodd;clip-rule:evenodd;stroke-linejoin:round;stroke-miterlimit:2;">
    <g transform="matrix(7.76745,2.08828,-2.08828,7.76745,1261.45,-826.129)">
        <path d="M706.2,141.1C703.1,158.2 700.2,173.7 697.4,189.1C682.6,268.8 667.9,348.6 653.1,428.3C644.4,475 635.8,521.8 627,568.5C626.6,570.7 625.1,573.2 623.4,574.7C542.6,643.8 461.8,712.8 381,781.8C353.3,805.5 325.5,829.1 297.8,852.7C296.6,853.7 295.3,854.6 293,856.5C294.9,846.2 296.4,837.2 298.1,828.2C322.7,695.3 347.3,562.4 372.1,429.6C372.6,427.1 374.4,424.3 376.4,422.6C438.9,369.1 501.6,315.7 564.2,262.2C610.3,222.9 656.3,183.5 702.4,144.2C703.1,143.6 704,142.9 706.2,141.1ZM366.386,728.207C366.786,728.407 367.086,728.707 367.486,728.907C452.086,657.007 492.082,616.007 577.082,543.807C511.982,506.207 486.859,491.658 421.959,454.258C401.559,563.958 386.686,619.307 366.386,728.207Z" style="fill:white;fill-rule:nonzero;"/>
    </g>
    <g transform="matrix(8.35875,0,0,8.35875,-83.1794,-80.2437)">
        <path d="M500.1,990.4C225.2,986.5 9.9,774.4 10,499.4C10.1,224.7 225,9.6 499.9,9.6C775.1,9.5 990.7,225.3 990,500.9C989.3,774.6 774.9,986.4 500.1,990.4ZM500.216,24.454C238.604,24.127 25.132,236.619 24.696,497.795C24.261,761.368 236.099,974.404 499.454,974.949C760.957,975.493 974.865,762.893 975.3,501.825C975.736,237.926 763.571,24.78 500.216,24.454Z" style="fill:white;fill-rule:nonzero;"/>
    </g>
</svg>
