<?xml version="1.0" encoding="UTF-8" standalone="no"?>
<!DOCTYPE svg PUBLIC "-//W3C//DTD SVG 1.1//EN" "http://www.w3.org/Graphics/SVG/1.1/DTD/svg11.dtd">
<svg width="100%" height="100%" viewBox="0 0 1024 1024" version="1.1" xmlns="http://www.w3.org/2000/svg" xmlns:xlink="http://www.w3.org/1999/xlink" xml:space="preserve" xmlns:serif="http://www.serif.com/" style="fill-rule:evenodd;clip-rule:evenodd;stroke-linejoin:round;stroke-miterlimit:2;">
    <g id="border" transform="matrix(4.62843,0,0,4.62843,-20.9016,-5.55186)">
        <path d="M225.407,135.107L206.4,52.547C205.366,48.224 202.442,44.586 198.442,42.647L121.507,5.917C117.471,3.991 112.772,3.991 108.736,5.917L31.808,42.669C27.808,44.606 24.883,48.242 23.847,52.564L4.873,135.129C4.009,138.972 4.728,143.006 6.868,146.314C7.129,146.714 7.406,147.102 7.706,147.476L60.952,213.681C63.776,217.128 67.995,219.141 72.451,219.168L157.838,219.148C162.293,219.123 166.512,217.112 169.338,213.668L222.565,147.457C225.324,143.983 226.369,139.441 225.407,135.11L225.407,135.107ZM216.21,138.973C216.082,139.558 215.916,140.133 215.712,140.696C215.222,142.066 214.509,143.345 213.602,144.482L166.303,203.32L164.817,205.172C163.9,206.297 162.806,207.265 161.577,208.037C161.103,208.341 160.61,208.615 160.103,208.859C159.761,209.017 159.413,209.16 159.058,209.289C158.605,209.461 158.143,209.61 157.675,209.734C157.022,209.91 156.358,210.037 155.686,210.113C155.218,210.166 154.747,210.193 154.276,210.195L76.772,210.213L76.012,210.213C74.853,210.206 73.701,210.047 72.583,209.741C71.22,209.38 69.921,208.814 68.728,208.062C67.784,207.461 66.918,206.745 66.152,205.93C65.919,205.684 65.684,205.443 65.472,205.18L16.667,144.501C16.395,144.158 16.14,143.803 15.902,143.435C15.35,142.582 14.899,141.667 14.559,140.709C14.358,140.147 14.194,139.573 14.068,138.99C13.642,137.077 13.643,135.093 14.072,133.181L31.466,57.506C32.415,53.545 35.095,50.212 38.761,48.436L109.269,14.751C112.968,12.986 117.275,12.986 120.974,14.751L191.493,48.421C195.158,50.199 197.838,53.532 198.786,57.494L216.208,133.168C216.637,135.08 216.638,137.063 216.21,138.975L216.21,138.973Z" style="fill:white;fill-rule:nonzero;"/>
    </g>
    <g id="namespaces">
        <g id="namespace3" transform="matrix(0.530821,0,0,0.530821,317.519,546.248)">
            <g transform="matrix(1,0,0,1,-224,-256)">
                <path d="M128,32L32,32C14.31,32 0,46.31 0,64L0,160C0,177.69 14.31,192 32,192C49.69,192 64,177.69 64,160L64,96L128,96C145.69,96 160,81.69 160,64C160,46.31 145.7,32 128,32ZM416,32L320,32C302.31,32 288,46.31 288,64C288,81.69 302.31,96 320,96L384,96L384,160C384,177.69 398.31,192 416,192C433.69,192 448,177.69 448,160L448,64C448,46.31 433.7,32 416,32ZM128,416L64,416L64,352C64,334.31 49.69,320 32,320C14.31,320 0,334.31 0,352L0,448C0,465.69 14.31,480 32,480L128,480C145.69,480 160,465.69 160,448C160,430.31 145.7,416 128,416ZM416,320C398.31,320 384,334.31 384,352L384,416L320,416C302.31,416 288,430.31 288,448C288,465.69 302.31,480 320,480L416,480C433.69,480 448,465.69 448,448L448,352C448,334.3 433.7,320 416,320Z" style="fill:white;fill-rule:nonzero;"/>
            </g>
        </g>
        <g id="namespace2" transform="matrix(0.51169,0,0,0.51169,600.754,349.314)">
            <g transform="matrix(1,0,0,1,-224,-256)">
                <path d="M128,32L32,32C14.31,32 0,46.31 0,64L0,160C0,177.69 14.31,192 32,192C49.69,192 64,177.69 64,160L64,96L128,96C145.69,96 160,81.69 160,64C160,46.31 145.7,32 128,32ZM416,32L320,32C302.31,32 288,46.31 288,64C288,81.69 302.31,96 320,96L384,96L384,160C384,177.69 398.31,192 416,192C433.69,192 448,177.69 448,160L448,64C448,46.31 433.7,32 416,32ZM128,416L64,416L64,352C64,334.31 49.69,320 32,320C14.31,320 0,334.31 0,352L0,448C0,465.69 14.31,480 32,480L128,480C145.69,480 160,465.69 160,448C160,430.31 145.7,416 128,416ZM416,320C398.31,320 384,334.31 384,352L384,416L320,416C302.31,416 288,430.31 288,448C288,465.69 302.31,480 320,480L416,480C433.69,480 448,465.69 448,448L448,352C448,334.3 433.7,320 416,320Z" style="fill:white;fill-rule:nonzero;"/>
            </g>
        </g>
        <g id="namespace1" transform="matrix(0.68569,0,0,0.68569,600.754,635.527)">
            <g transform="matrix(1,0,0,1,-224,-256)">
                <path d="M128,32L32,32C14.31,32 0,46.31 0,64L0,160C0,177.69 14.31,192 32,192C49.69,192 64,177.69 64,160L64,96L128,96C145.69,96 160,81.69 160,64C160,46.31 145.7,32 128,32ZM416,32L320,32C302.31,32 288,46.31 288,64C288,81.69 302.31,96 320,96L384,96L384,160C384,177.69 398.31,192 416,192C433.69,192 448,177.69 448,160L448,64C448,46.31 433.7,32 416,32ZM128,416L64,416L64,352C64,334.31 49.69,320 32,320C14.31,320 0,334.31 0,352L0,448C0,465.69 14.31,480 32,480L128,480C145.69,480 160,465.69 160,448C160,430.31 145.7,416 128,416ZM416,320C398.31,320 384,334.31 384,352L384,416L320,416C302.31,416 288,430.31 288,448C288,465.69 302.31,480 320,480L416,480C433.69,480 448,465.69 448,448L448,352C448,334.3 433.7,320 416,320Z" style="fill:white;fill-rule:nonzero;"/>
            </g>
        </g>
    </g>
</svg>
