<?xml version="1.0" encoding="UTF-8" standalone="no"?>
<svg
   width="4096"
   height="4096"
   viewBox="0 0 4096 4096"
   version="1.1"
   xml:space="preserve"
   style="clip-rule:evenodd;fill-rule:evenodd;stroke-linejoin:round;stroke-miterlimit:2"
   id="svg5"
   sodipodi:docname="argo.svg"
   inkscape:version="1.4 (e7c3feb1, 2024-10-09)"
   xmlns:inkscape="http://www.inkscape.org/namespaces/inkscape"
   xmlns:sodipodi="http://sodipodi.sourceforge.net/DTD/sodipodi-0.dtd"
   xmlns="http://www.w3.org/2000/svg"
   xmlns:svg="http://www.w3.org/2000/svg"><sodipodi:namedview
   id="namedview5"
   pagecolor="#ffffff"
   bordercolor="#000000"
   borderopacity="0.25"
   inkscape:showpageshadow="2"
   inkscape:pageopacity="0.0"
   inkscape:pagecheckerboard="0"
   inkscape:deskcolor="#d1d1d1"
   inkscape:zoom="0.028284271"
   inkscape:cx="2032.932"
   inkscape:cy="3040.5592"
   inkscape:window-width="1104"
   inkscape:window-height="611"
   inkscape:window-x="47"
   inkscape:window-y="146"
   inkscape:window-maximized="0"
   inkscape:current-layer="svg5" /><defs
   id="defs5" />
    <g
   id="kubernetes"
   transform="matrix(17.6116,0,0,18.5468,20.2572,-25.9062)">
        <path
   d="M 225.407,135.107 206.4,52.547 c -1.034,-4.323 -3.958,-7.961 -7.958,-9.9 L 121.507,5.917 c -4.036,-1.926 -8.735,-1.926 -12.771,0 L 31.808,42.669 c -4,1.937 -6.925,5.573 -7.961,9.895 L 4.873,135.129 c -0.864,3.843 -0.145,7.877 1.995,11.185 0.261,0.4 0.538,0.788 0.838,1.162 l 53.246,66.205 c 2.824,3.447 7.043,5.46 11.499,5.487 l 85.387,-0.02 c 4.455,-0.025 8.674,-2.036 11.5,-5.48 l 53.227,-66.211 c 2.759,-3.474 3.804,-8.016 2.842,-12.347 z m -9.197,3.866 c -0.128,0.585 -0.294,1.16 -0.498,1.723 -0.49,1.37 -1.203,2.649 -2.11,3.786 l -47.299,58.838 -1.486,1.852 c -0.917,1.125 -2.011,2.093 -3.24,2.865 -0.474,0.304 -0.967,0.578 -1.474,0.822 -0.342,0.158 -0.69,0.301 -1.045,0.43 -0.453,0.172 -0.915,0.321 -1.383,0.445 -0.653,0.176 -1.317,0.303 -1.989,0.379 -0.468,0.053 -0.939,0.08 -1.41,0.082 l -77.504,0.018 h -0.76 c -1.159,-0.007 -2.311,-0.166 -3.429,-0.472 -1.363,-0.361 -2.662,-0.927 -3.855,-1.679 -0.944,-0.601 -1.81,-1.317 -2.576,-2.132 -0.233,-0.246 -0.468,-0.487 -0.68,-0.75 L 16.667,144.501 c -0.272,-0.343 -0.527,-0.698 -0.765,-1.066 -0.552,-0.853 -1.003,-1.768 -1.343,-2.726 -0.201,-0.562 -0.365,-1.136 -0.491,-1.719 -0.426,-1.913 -0.425,-3.897 0.004,-5.809 L 31.466,57.506 c 0.949,-3.961 3.629,-7.294 7.295,-9.07 l 70.508,-33.685 c 3.699,-1.765 8.006,-1.765 11.705,0 l 70.519,33.67 c 3.665,1.778 6.345,5.111 7.293,9.073 l 17.422,75.674 c 0.429,1.912 0.43,3.895 0.002,5.807 z"
   style="display:inline;fill:#ffffff;fill-rule:nonzero"
   id="path1" />
    </g>
    
<g
   id="g6"
   transform="matrix(25.506396,0,0,25.506396,424.49892,520.14672)"
   inkscape:label="argo"><path
     fill="currentColor"
     d="m 66.828,2.133 c 2.254,0.191 4.5,0.515 6.719,0.965 8.68,1.98 16.129,6.27 22.652,12.222 6.004,5.48 9.91,12.266 12.074,20.07 0.457,1.657 1.114,2.895 3.028,3.223 1.062,0.184 1.234,1.266 1.238,2.227 0.016,3.344 0.008,6.687 0.008,10.031 0,2.086 -0.004,4.172 -0.008,6.258 -0.008,1.836 -0.602,2.473 -2.406,2.445 -1.094,-0.015 -1.52,0.621 -1.785,1.508 a 48.731,48.731 0 0 1 -2.852,7.371 c -4.226,8.7 -10.773,15.188 -19.07,20.012 -0.395,0.23 -0.797,0.453 -1.203,0.676 -1.301,0.71 -1.332,0.754 -0.801,2.144 a 5.422,5.422 0 0 0 3.433,3.235 c 1.391,0.5 2.856,0.69 4.274,1.085 0.433,0.082 0.851,0.247 1.226,0.48 -0.343,0.43 -0.808,0.353 -1.199,0.43 -1.86,0.376 -3.683,0.95 -5.617,0.876 a 6.643,6.643 0 0 1 -2.262,-0.329 c -0.59,-0.234 -0.789,-0.035 -0.91,0.567 a 27.309,27.309 0 0 0 -0.433,4.754 c -0.079,3.187 -0.364,6.36 -0.582,9.535 -0.215,3.086 -0.094,3.367 2.886,4.355 1.453,0.48 2.91,0.965 4.352,1.477 0.36,0.125 0.777,0.2 0.996,0.602 -0.207,0.293 -0.508,0.183 -0.758,0.183 -2.547,0.012 -5.094,0.024 -7.64,0.004 -2.711,-0.023 -4.168,-1.457 -4.368,-4.152 -0.289,-3.942 -0.62,-7.88 -0.941,-11.817 a 5.738,5.738 0 0 0 -0.133,-0.625 c -0.41,2.356 -0.34,4.543 -0.433,6.72 -0.126,2.722 -0.043,5.456 -0.04,8.187 0,1.394 0.442,2.003 1.73,2.492 1.86,0.703 3.68,1.527 5.763,1.355 0.73,-0.058 1.425,0.32 2.082,0.668 0.16,0.086 0.375,0.168 0.355,0.375 -0.023,0.227 -0.258,0.246 -0.433,0.238 -3.403,-0.105 -6.813,0.332 -10.2,-0.148 -1.668,-0.234 -2.757,-1.219 -3.265,-2.852 -0.489,-1.57 -0.586,-3.195 -0.703,-4.808 -0.239,-3.238 -0.407,-6.484 -0.602,-9.723 a 1.17,1.17 0 0 0 -0.313,-0.883 c -0.171,0.305 -0.23,0.657 -0.164,0.996 -0.007,4.942 -0.007,9.88 -0.003,14.82 0,2.009 0.632,2.977 2.554,3.661 2.485,0.89 5.043,1.543 7.598,2.187 0.57,0.145 1.164,0.243 1.254,0.993 h -9.574 c -0.27,-0.051 -0.536,-0.114 -0.805,-0.153 -3.629,-0.52 -5.176,-1.93 -5.91,-5.39 -0.121,-0.57 -0.227,-1.14 -0.344,-1.707 -0.39,-1.903 -0.777,-3.805 -1.168,-5.707 a 6.432,6.432 0 0 0 -0.75,1.996 c -0.43,2.066 -0.781,4.148 -1.254,6.203 -0.586,2.547 -2.297,3.945 -4.82,4.433 -0.567,0.11 -1.137,0.215 -1.703,0.325 h -9.575 c 0.297,-0.887 1.118,-0.957 1.84,-1.149 2.457,-0.652 4.961,-1.148 7.328,-2.105 a 3.13,3.13 0 0 0 2.051,-2.7 c 0.301,-2.246 0.008,-4.468 -0.07,-6.699 a 7.761,7.761 0 0 0 -0.402,-1.629 2.108,2.108 0 0 0 -0.368,1.07 c -0.136,1.528 -0.254,3.055 -0.386,4.583 -0.2,2.234 -1.41,3.703 -3.512,4.183 a 8.727,8.727 0 0 1 -1.91,0.239 c -2.883,0.015 -5.766,-0.008 -8.653,-0.028 -0.25,0 -0.562,0.102 -0.761,-0.332 a 7.316,7.316 0 0 1 3.008,-0.972 29.42,29.42 0 0 0 4.855,-0.996 c 2.168,-0.59 2.695,-1.286 2.64,-3.551 -0.117,-4.813 -0.464,-9.617 -0.351,-14.434 0.023,-0.95 0.004,-1.898 0.004,-2.848 -0.14,0.657 -0.227,1.325 -0.262,1.993 -0.156,4.53 -0.508,9.05 -0.96,13.562 -0.266,2.653 -1.532,3.867 -4.153,4.164 -2.309,0.262 -4.594,0.004 -6.887,-0.11 -0.562,-0.026 -1.21,0.063 -1.754,-0.331 0.223,-0.336 0.547,-0.356 0.828,-0.445 1.868,-0.594 3.75,-1.16 5.61,-1.778 1.273,-0.422 1.816,-1.219 1.84,-2.55 0.007,-0.4 0.011,-0.797 -0.02,-1.196 -0.289,-3.7 -0.426,-7.402 -0.539,-11.11 a 27.593,27.593 0 0 0 -0.184,-2.472 c -0.12,-0.973 -0.675,-1.488 -1.523,-1.332 -2.613,0.469 -5.121,-0.031 -7.613,-0.719 -0.309,-0.086 -0.692,-0.043 -0.922,-0.453 0.465,-0.23 0.957,-0.39 1.469,-0.469 a 29.826,29.826 0 0 0 3.898,-1.074 6.19,6.19 0 0 0 3.594,-3.367 c 0.457,-1.05 0.285,-1.64 -0.582,-2.059 C 35.848,85.579 30.187,80.168 25.648,73.512 A 42.204,42.204 0 0 1 19.836,60.859 c -0.348,-1.273 -0.805,-1.554 -1.977,-1.347 -1.586,0.281 -2.074,0.031 -2.765,-1.41 V 40.059 c 0.742,-1.567 1.058,-1.766 2.758,-1.7 1.214,0.047 1.277,-0.027 1.601,-1.257 C 21.5,29.309 25.043,22.312 30.676,16.488 37.453,9.477 45.848,5.395 55.242,3.18 57.602,2.625 60.008,2.402 62.41,2.133 Z m 41.23,46.265 a 37.976,37.976 0 0 0 -0.25,-4.851 44.116,44.116 0 0 0 -0.515,-3.36 C 104.203,24.867 95.176,14.234 81.18,7.781 73.148,4.082 64.582,3.461 55.96,5.141 39.165,8.41 28.06,18.492 22.153,34.363 19.896,40.426 19.595,46.801 20.239,53.23 a 41.154,41.154 0 0 0 3.848,13.93 c 3.027,6.274 7.469,11.41 12.812,15.813 a 27.472,27.472 0 0 0 5.793,3.722 c 1.215,0.567 1.274,0.535 1.27,-0.757 0.031,-0.829 0.012,-1.66 -0.05,-2.485 -0.65,-5.273 -0.74,-10.574 -0.872,-15.871 a 2.026,2.026 0 0 0 -0.953,-1.82 c -1.988,-1.387 -3.688,-3.067 -4.766,-5.27 -2.445,-5.012 -1.922,-12.21 4.207,-16.62 0.703,-0.509 1.125,-0.99 1.024,-1.93 a 8.967,8.967 0 0 1 0.164,-2.286 c 0.91,-6.136 3.86,-11.054 8.898,-14.687 3.524,-2.54 7.457,-3.989 11.82,-4.043 2.497,-0.031 4.93,0.57 7.313,1.262 8.317,2.417 14.715,10.707 14.707,19.117 a 3.323,3.323 0 0 0 1.387,2.922 c 2.394,1.914 4.246,4.289 4.875,7.375 1.137,5.566 -0.426,10.246 -5.059,13.617 -1.379,1 -1.793,2.094 -1.726,3.605 0.011,0.246 0.004,0.492 -0.008,0.739 -0.106,2.476 -0.211,4.957 -0.32,7.437 -0.133,3.027 -0.707,6.027 -0.602,9.074 0.04,1.149 0.027,1.164 1.035,0.656 a 38.675,38.675 0 0 0 12.375,-9.835 c 6.824,-8.16 10.723,-17.438 10.649,-28.497 z M 48.918,64.707 A 10.007,10.007 0 0 0 57.684,59.773 10.019,10.019 0 0 0 57.727,49.711 10.011,10.011 0 0 0 49,44.699 c -5.656,-0.023 -10.098,4.246 -10.121,9.723 -0.024,5.933 4.203,10.262 10.039,10.285 z m 29.953,0 c 5.695,0.012 10.008,-4.262 10.004,-9.91 0,-5.645 -4.367,-10.078 -9.922,-10.067 -5.504,0.008 -10.031,4.473 -10.047,9.899 -0.015,5.71 4.293,10.07 9.965,10.078 z m -7.61,10.016 c -1.077,0.66 -2.1,1.43 -3.253,1.984 -2.774,1.328 -5.5,1.328 -8.168,-0.25 -0.817,-0.484 -1.59,-1.039 -2.399,-1.539 -0.242,-0.148 -0.476,-0.535 -0.777,-0.32 -0.227,0.156 -0.047,0.511 -0.004,0.78 0.192,0.927 0.336,1.868 0.426,2.813 0.137,2.918 1.512,5.125 3.84,6.77 a 5.073,5.073 0 0 0 4.086,0.96 c 2.922,-0.609 5.3,-3.175 5.812,-6.296 0.223,-1.375 0.024,-2.809 0.563,-4.148 a 0.681,0.681 0 0 0 -0.125,-0.754 z m 0,0"
     id="path1-5"
     style="fill:#ffffff" /><path
     fill="currentColor"
     d="M 25.867,49.281 C 25.801,43.586 26.605,38.656 28.66,33.973 31.93,26.512 37.152,20.77 44.062,16.527 a 1.966,1.966 0 0 1 2.376,0.344 c 0.312,0.313 0.187,0.613 0.054,0.926 a 5.629,5.629 0 0 1 -2.48,2.633 c -5.582,3.304 -9.457,8.12 -12.184,13.902 a 32.572,32.572 0 0 0 -3.203,15.434 c 0.29,6.765 2.273,13.015 6.273,18.55 a 4.09,4.09 0 0 1 0.895,1.887 c 0.055,0.418 0.305,0.871 -0.156,1.18 a 1.619,1.619 0 0 1 -1.492,0.215 2.586,2.586 0 0 1 -1.211,-0.957 c -3.723,-5.059 -6.168,-10.63 -6.88,-16.926 -0.19,-1.684 -0.023,-3.371 -0.187,-4.434 z M 48,14.234 a 1.945,1.945 0 0 1 0.559,-1.406 1.945,1.945 0 0 1 1.398,-0.574 c 1.094,0.008 2.113,1.172 2.148,2.453 0.016,0.707 -1.597,2.016 -2.46,1.988 C 48.672,16.672 48,15.665 48,14.235 Z M 45.594,52.91 a 3.163,3.163 0 0 1 3.035,-3.27 c 1.965,-0.007 3.469,1.403 3.488,3.278 0.02,1.836 -1.398,3.215 -3.304,3.207 -1.97,-0.004 -3.211,-1.246 -3.22,-3.215 z m 33.594,3.215 c -1.977,-0.012 -3.235,-1.316 -3.211,-3.336 a 3.27,3.27 0 0 1 3.078,-3.172 3.4,3.4 0 0 1 3.46,3.328 c 0.005,1.825 -1.425,3.192 -3.328,3.18 z m 0,0"
     id="path2-2"
     style="fill:#ffffff" /></g></svg>
