<?xml version="1.0" encoding="UTF-8" standalone="no"?>
<!DOCTYPE svg PUBLIC "-//W3C//DTD SVG 1.1//EN" "http://www.w3.org/Graphics/SVG/1.1/DTD/svg11.dtd">
<svg width="100%" height="100%" viewBox="0 0 4096 4096" version="1.1" xmlns="http://www.w3.org/2000/svg" xmlns:xlink="http://www.w3.org/1999/xlink" xml:space="preserve" xmlns:serif="http://www.serif.com/" style="fill-rule:evenodd;clip-rule:evenodd;stroke-linejoin:round;stroke-miterlimit:2;">
    <g id="kubernetes" transform="matrix(17.6116,0,0,18.5468,20.2572,-25.9062)">
        <path d="M225.407,135.107L206.4,52.547C205.366,48.224 202.442,44.586 198.442,42.647L121.507,5.917C117.471,3.991 112.772,3.991 108.736,5.917L31.808,42.669C27.808,44.606 24.883,48.242 23.847,52.564L4.873,135.129C4.009,138.972 4.728,143.006 6.868,146.314C7.129,146.714 7.406,147.102 7.706,147.476L60.952,213.681C63.776,217.128 67.995,219.141 72.451,219.168L157.838,219.148C162.293,219.123 166.512,217.112 169.338,213.668L222.565,147.457C225.324,143.983 226.369,139.441 225.407,135.11L225.407,135.107ZM216.21,138.973C216.082,139.558 215.916,140.133 215.712,140.696C215.222,142.066 214.509,143.345 213.602,144.482L166.303,203.32L164.817,205.172C163.9,206.297 162.806,207.265 161.577,208.037C161.103,208.341 160.61,208.615 160.103,208.859C159.761,209.017 159.413,209.16 159.058,209.289C158.605,209.461 158.143,209.61 157.675,209.734C157.022,209.91 156.358,210.037 155.686,210.113C155.218,210.166 154.747,210.193 154.276,210.195L76.772,210.213L76.012,210.213C74.853,210.206 73.701,210.047 72.583,209.741C71.22,209.38 69.921,208.814 68.728,208.062C67.784,207.461 66.918,206.745 66.152,205.93C65.919,205.684 65.684,205.443 65.472,205.18L16.667,144.501C16.395,144.158 16.14,143.803 15.902,143.435C15.35,142.582 14.899,141.667 14.559,140.709C14.358,140.147 14.194,139.573 14.068,138.99C13.642,137.077 13.643,135.093 14.072,133.181L31.466,57.506C32.415,53.545 35.095,50.212 38.761,48.436L109.269,14.751C112.968,12.986 117.275,12.986 120.974,14.751L191.493,48.421C195.158,50.199 197.838,53.532 198.786,57.494L216.208,133.168C216.637,135.08 216.638,137.063 216.21,138.975L216.21,138.973Z" style="fill:white;fill-rule:nonzero;"/>
    </g>
    <g id="flux" transform="matrix(7.30876,0,0,7.30876,1088.04,716.708)">
        <g transform="matrix(1,0,0,1,-48,2.25)">
            <path d="M178.172,173.501C178.051,173.489 177.931,173.477 177.811,173.462C177.931,173.48 178.051,173.487 178.172,173.501ZM178.771,173.543C179.153,173.565 179.536,173.565 179.917,173.543C179.535,173.561 179.153,173.561 178.771,173.543ZM180.878,173.462C180.758,173.477 180.637,173.489 180.517,173.501C180.637,173.487 180.758,173.48 180.878,173.462ZM298.965,80.705L184.894,6.544C181.526,4.354 177.163,4.354 173.794,6.544L59.724,80.705C56.838,82.581 55.092,85.799 55.092,89.242C55.092,92.684 56.838,95.902 59.724,97.778L167.337,167.74L167.337,116.869C167.337,113.576 164.627,110.866 161.333,110.866L153.42,110.866C150.127,110.866 147.417,108.156 147.417,104.863C147.417,103.809 147.694,102.774 148.221,101.861L174.145,56.959C175.216,55.104 177.202,53.957 179.345,53.957C181.487,53.957 183.473,55.104 184.544,56.959L210.468,101.861C210.994,102.774 211.272,103.809 211.272,104.863C211.272,108.156 208.562,110.866 205.269,110.866L197.356,110.866C194.062,110.866 191.352,113.576 191.352,116.869L191.352,167.74L298.965,97.778C301.851,95.902 303.597,92.684 303.597,89.242C303.597,85.799 301.851,82.581 298.965,80.705Z" style="fill:white;fill-rule:nonzero;"/>
        </g>
        <g transform="matrix(1,0,0,1,-48,2.25)">
            <path d="M173.793,353.271C174.849,353.948 176.021,354.424 177.25,354.673C175.074,353.442 172.863,352.299 170.627,351.213L173.793,353.271ZM167.337,192.076L156.021,199.432C159.66,201.853 163.438,204.057 167.337,206.032L167.337,192.076ZM191.352,215.792C201.091,218.907 211.165,221.44 221.462,223.978C232.382,226.67 243.435,229.405 254.28,232.987L218.864,209.962C209.492,207.447 200.301,204.303 191.352,200.552L191.352,215.792ZM191.352,277.983L191.352,278.569C191.352,281.138 188.664,283.221 185.349,283.221L173.34,283.221C170.025,283.221 167.337,281.138 167.337,278.569L167.337,271.964C142.431,265.562 117.464,257.479 96.477,238.143L81.948,247.589C104.416,269.64 132.227,276.522 161.663,283.778C188.841,290.476 216.843,297.429 240.348,317.22L255.027,307.676C236.496,291.172 214.618,283.989 191.352,277.983ZM93.315,300.95L132.223,326.245C152.287,331.358 172.423,337.493 190.534,349.605L205.434,339.918C185.682,326.246 162.884,320.605 139.015,314.721C123.728,310.954 108.18,307.105 93.315,300.95ZM167.337,218.696C159.754,215.222 152.539,210.994 145.803,206.075L130.998,215.701C141.998,223.895 154.276,230.217 167.337,234.409L167.337,218.696ZM218.747,234.99C209.641,232.745 200.443,230.466 191.352,227.691L191.352,241.373C194.72,242.23 198.112,243.076 201.529,243.911C231.463,251.29 262.417,258.92 287.237,283.74C287.846,284.35 288.399,284.98 288.989,285.597L298.963,279.113C300.43,278.168 301.627,276.859 302.438,275.313C301.372,274.141 300.294,272.972 299.149,271.827C276.564,249.242 248.48,242.319 218.747,234.99ZM198.814,254.923C196.332,254.311 193.845,253.693 191.352,253.068L191.352,266.278C217.169,272.839 243.155,280.966 264.807,301.318L279.328,291.878C279.29,291.839 279.256,291.799 279.217,291.76C256.632,269.175 228.547,262.251 198.814,254.923ZM167.337,246.336C151.057,241.058 135.219,233.939 120.993,222.205L106.311,231.75C124.181,247.307 145.095,254.423 167.337,260.251L167.337,246.336Z" style="fill:none;fill-rule:nonzero;"/>
        </g>
        <g transform="matrix(1,0,0,1,-48,2.25)">
            <path d="M73.24,254.96C72.892,254.612 72.582,254.25 72.241,253.9L59.726,262.036C59.13,262.442 58.579,262.911 58.082,263.433C59.135,264.59 60.197,265.743 61.327,266.873C83.912,289.458 111.997,296.382 141.73,303.71C167.073,309.957 193.131,316.427 215.595,333.313L230.401,323.687C209.536,307.267 184.87,301.178 158.948,294.789C129.014,287.41 98.06,279.78 73.24,254.96Z" style="fill:none;fill-rule:nonzero;"/>
        </g>
        <g transform="matrix(1,0,0,1,-48,2.25)">
            <path d="M218.864,209.962L191.352,192.076L191.352,200.552C200.301,204.303 209.492,207.447 218.864,209.962ZM191.352,215.792L191.352,227.691C200.443,230.466 209.641,232.745 218.747,234.99C248.48,242.319 276.564,249.242 299.149,271.827C300.294,272.972 301.372,274.141 302.438,275.313C304.866,270.678 303.351,264.888 298.963,262.036L254.28,232.987C243.435,229.405 232.382,226.67 221.462,223.978C211.165,221.44 201.091,218.907 191.352,215.792ZM167.337,206.032C163.438,204.057 159.66,201.853 156.021,199.432L145.803,206.076C152.539,210.994 159.754,215.222 167.337,218.696L167.337,206.032ZM201.529,243.911C198.112,243.069 194.72,242.223 191.352,241.373L191.352,253.068C193.843,253.693 196.331,254.311 198.814,254.923C228.547,262.251 256.632,269.175 279.217,291.76C279.256,291.799 279.29,291.839 279.328,291.878L288.989,285.597C288.399,284.98 287.846,284.35 287.237,283.74C262.417,258.92 231.463,251.29 201.529,243.911ZM167.337,234.409C154.276,230.217 141.998,223.895 130.998,215.701L120.993,222.205C135.219,233.939 151.057,241.058 167.337,246.336L167.337,234.409ZM167.337,260.251C145.095,254.423 124.181,247.307 106.311,231.75L96.477,238.143C117.464,257.479 142.431,265.562 167.337,271.964L167.337,260.251ZM191.352,277.983C214.618,283.989 236.496,291.172 255.027,307.676L264.807,301.318C243.155,280.966 217.169,272.839 191.352,266.277L191.352,277.983ZM81.948,247.589L72.241,253.9C72.582,254.25 72.893,254.612 73.241,254.96C98.06,279.78 129.014,287.41 158.948,294.789C184.87,301.178 209.536,307.267 230.4,323.687L240.348,317.22C216.843,297.429 188.841,290.476 161.663,283.778C132.227,276.522 104.416,269.64 81.948,247.589ZM61.327,266.873C60.197,265.743 59.135,264.59 58.082,263.433C56.183,265.336 55.115,267.917 55.115,270.605C55.115,274.035 56.853,277.24 59.726,279.113L93.315,300.95C108.18,307.105 123.728,310.954 139.015,314.721C162.884,320.605 185.682,326.246 205.434,339.918L215.595,333.313C193.131,316.427 167.073,309.957 141.73,303.71C111.997,296.382 83.912,289.458 61.327,266.873ZM170.627,351.213C172.863,352.299 175.074,353.442 177.25,354.673C179.882,355.237 182.634,354.733 184.895,353.271L190.534,349.605C172.423,337.493 152.287,331.358 132.223,326.245L170.627,351.213Z" style="fill:white;fill-rule:nonzero;"/>
        </g>
    </g>
</svg>
