<?xml version="1.0" encoding="UTF-8" standalone="no"?>
<!DOCTYPE svg PUBLIC "-//W3C//DTD SVG 1.1//EN" "http://www.w3.org/Graphics/SVG/1.1/DTD/svg11.dtd">
<svg width="100%" height="100%" viewBox="0 0 8192 8192" version="1.1" xmlns="http://www.w3.org/2000/svg" xmlns:xlink="http://www.w3.org/1999/xlink" xml:space="preserve" xmlns:serif="http://www.serif.com/" style="fill-rule:evenodd;clip-rule:evenodd;stroke-linejoin:round;stroke-miterlimit:2;">
    <g id="g70" transform="matrix(162.625,0,0,162.625,7226.43,-1637.67)">
        <path id="path3055" d="M-19.415,12.111C-19.837,12.132 -20.25,12.237 -20.631,12.419L-37.22,20.345C-38.089,20.76 -38.722,21.547 -38.937,22.48L-43.029,40.285C-43.22,41.113 -43.065,41.984 -42.599,42.697C-42.543,42.784 -42.483,42.867 -42.418,42.948L-30.936,57.224C-30.334,57.972 -29.42,58.408 -28.456,58.408L-10.041,58.404C-9.077,58.405 -8.163,57.969 -7.561,57.222L3.917,42.943C4.519,42.195 4.745,41.214 4.53,40.281L0.431,22.475C0.216,21.543 -0.416,20.756 -1.285,20.341L-17.877,12.419C-18.355,12.19 -18.884,12.084 -19.415,12.111Z" style="fill:rgb(50,108,229);fill-rule:nonzero;"/>
        <path id="path3054-2-9" d="M-19.424,10.822C-19.869,10.845 -20.304,10.956 -20.705,11.148L-38.22,19.514C-39.138,19.952 -39.805,20.783 -40.032,21.767L-44.352,40.563C-44.554,41.438 -44.39,42.358 -43.898,43.112C-43.838,43.202 -43.775,43.29 -43.707,43.375L-31.586,58.447C-30.95,59.237 -29.986,59.697 -28.967,59.697L-9.528,59.693C-8.51,59.693 -7.546,59.234 -6.91,58.445L5.207,43.37C5.842,42.581 6.08,41.546 5.854,40.561L1.528,21.763C1.3,20.779 0.633,19.95 -0.284,19.512L-17.799,11.146C-18.304,10.905 -18.863,10.793 -19.424,10.822ZM-19.415,12.112C-18.885,12.085 -18.356,12.191 -17.877,12.419L-1.286,20.342C-0.416,20.757 0.216,21.543 0.431,22.476L4.53,40.281C4.745,41.215 4.519,42.196 3.917,42.944L-7.562,57.223C-8.164,57.97 -9.078,58.405 -10.042,58.405L-28.456,58.409C-29.421,58.409 -30.335,57.973 -30.936,57.225L-42.419,42.948C-42.483,42.868 -42.543,42.784 -42.599,42.698C-43.065,41.985 -43.221,41.114 -43.03,40.286L-38.937,22.48C-38.722,21.548 -38.09,20.761 -37.221,20.346L-20.631,12.419C-20.251,12.238 -19.837,12.133 -19.415,12.112Z" style="fill:white;fill-rule:nonzero;"/>
    </g>
    <g id="logo" transform="matrix(8.11238,0,0,8.11238,4096,4096.07)">
        <g transform="matrix(1,0,0,1,-250,-250)">
            <path d="M136.529,121.135C135.957,120.592 135.335,120.008 134.719,119.417C122.103,107.296 112.338,93.281 106.44,76.715C104.79,72.079 103.543,67.35 103.765,62.356C103.786,61.883 103.784,61.407 103.817,60.934C104.262,54.488 108.576,51.231 114.875,52.758C116.862,53.272 118.785,54.009 120.607,54.954C127.497,58.41 133.113,63.518 138.277,69.12C147.45,78.881 154.806,90.202 159.999,102.55C160.113,102.844 160.243,103.131 160.389,103.411C160.46,103.539 160.611,103.623 160.948,103.929C185.531,89.181 213.344,80.647 241.968,79.069C241.791,78.193 241.686,77.523 241.52,76.869C238.599,64.781 237.703,52.293 238.867,39.912C239.38,32.493 240.874,25.175 243.312,18.148C244.491,14.448 246.348,10.999 248.788,7.977C249.71,6.898 250.774,5.949 251.952,5.156C254.348,3.461 257.565,3.439 259.984,5.1C262.486,6.794 264.5,9.116 265.824,11.831C268.292,16.438 270.065,21.383 271.087,26.508C273.416,37.344 274.131,48.466 273.209,59.512C272.753,66.253 271.583,72.927 269.719,79.422C276.84,80.734 283.928,81.751 290.866,83.4C297.788,85.009 304.613,87.014 311.307,89.403C318.055,91.88 324.656,94.741 331.077,97.972C337.422,101.136 343.462,104.913 349.794,108.51C350,108.077 350.299,107.561 350.5,107.008C357.096,88.765 368.458,72.616 383.401,60.246C386.89,57.251 390.896,54.918 395.223,53.363C396.415,52.948 397.648,52.664 398.902,52.518C405.166,51.801 407.795,55.742 408.258,60.45C408.605,63.92 408.343,67.424 407.484,70.804C405.196,79.536 401.577,87.863 396.754,95.492C389.964,106.464 381.904,116.347 371.661,124.322C371.359,124.558 371.093,124.841 370.581,125.313C380.6,134.553 389.523,144.916 397.174,156.195C396.62,156.338 396.055,156.438 395.485,156.493C384.89,156.508 374.294,156.474 363.699,156.539C362.435,156.509 361.257,155.881 360.527,154.849C337.414,129.598 306.236,113.139 272.349,108.3C262.325,106.842 252.175,106.45 242.069,107.131C211.939,108.971 183.103,120.085 159.532,138.942C153.445,143.743 147.766,149.042 142.556,154.784C141.619,155.946 140.185,156.598 138.693,156.541C128.572,156.471 118.451,156.506 108.33,156.506L106.178,156.506C106.796,154.098 113.018,145.568 120.061,137.953C125.313,132.274 130.878,126.884 136.529,121.135Z" style="fill:white;fill-rule:nonzero;"/>
            <path d="M394.529,347.912C387.49,357.764 379.457,366.867 370.556,375.076C371.265,375.666 371.842,376.146 372.418,376.626C387.866,389.264 399.525,405.928 406.101,424.772C407.851,429.368 408.602,434.284 408.303,439.192C408.211,440.45 407.96,441.69 407.555,442.884C406.508,446.368 402.98,448.541 399.398,447.907C397.051,447.603 394.768,446.925 392.635,445.901C389.377,444.294 386.299,442.344 383.453,440.086C368.466,427.772 357.084,411.631 350.517,393.379C350.33,392.865 350.125,392.358 349.795,391.502C341.813,396.78 333.453,401.462 324.783,405.51C316.154,409.443 307.231,412.694 298.096,415.234C288.813,417.753 279.35,419.555 269.791,420.622C269.959,421.462 270.056,422.132 270.229,422.781C273.261,434.675 274.265,446.996 273.199,459.224C272.8,466.889 271.311,474.457 268.777,481.702C267.57,484.7 266.179,487.62 264.612,490.446C263.977,491.542 263.189,492.542 262.273,493.417C258.293,497.526 253.541,497.561 249.662,493.343C248.129,491.642 246.816,489.755 245.755,487.726C242.678,481.95 241.094,475.67 239.964,469.266C238.509,460.524 238.053,451.645 238.605,442.801C238.905,436.323 239.872,429.894 241.489,423.615C241.629,423.083 241.757,422.546 241.861,422.005C241.887,421.868 241.797,421.708 241.69,421.267C213.07,419.649 185.273,411.069 160.721,396.273C160.312,397.182 159.959,397.948 159.62,398.719C152.739,414.774 142.148,428.97 128.719,440.139C125.163,443.177 121.08,445.536 116.672,447.098C114.606,447.927 112.351,448.169 110.156,447.798C107.694,447.357 105.638,445.649 104.753,443.309C103.337,439.885 103.588,436.324 104.069,432.792C104.858,427.87 106.307,423.077 108.376,418.542C114.509,404.258 123.537,391.4 134.888,380.779C135.347,380.344 135.817,379.922 136.268,379.479C136.412,379.274 136.534,379.054 136.634,378.824C125.939,369.548 116.382,359.036 108.165,347.507C109.149,347.427 109.808,347.327 110.467,347.327C120.981,347.317 131.496,347.354 142.01,347.283C143.425,347.24 144.787,347.838 145.713,348.909C157.143,360.669 170.462,370.432 185.116,377.794C200.619,385.772 217.477,390.783 234.82,392.568C281.94,397.148 322.473,382.864 356.42,349.714C357.956,348.053 360.153,347.157 362.412,347.27C372.214,347.391 382.017,347.32 391.82,347.32L394.354,347.32L394.529,347.912Z" style="fill:white;fill-rule:nonzero;"/>
            <path d="M350.736,197.762C353.523,197.762 356.206,197.951 358.851,197.712C361.846,197.441 363.99,198.512 366.174,200.525C378.787,212.147 391.531,223.626 404.233,235.152C404.871,235.731 405.523,236.296 406.343,237.022C407.107,236.365 407.824,235.779 408.508,235.157C421.6,223.238 434.683,211.309 447.756,199.37C448.853,198.24 450.387,197.639 451.96,197.724C455.178,197.855 458.406,197.762 461.801,197.762L461.801,303.13C460.078,303.634 436.925,303.734 434.162,303.191L434.162,249.829L433.625,249.575C424.614,257.793 415.604,266.011 406.387,274.416C397.161,266.105 388.045,257.893 378.929,249.68L378.405,249.872C378.382,254.326 378.397,258.78 378.394,263.234C378.392,267.661 378.391,272.087 378.394,276.513L378.394,303.385L350.966,303.385C350.452,301.612 350.213,203.723 350.736,197.762Z" style="fill:white;fill-rule:nonzero;"/>
            <path d="M97.634,197.882L124.898,197.882C125.448,199.635 125.556,300.854 124.992,303.407L97.705,303.407C97.554,296.704 97.657,290.023 97.638,283.346C97.62,276.723 97.634,270.101 97.634,263.306L63.847,263.306L63.847,303.047C61.787,303.662 38.513,303.721 36.199,303.17L36.199,197.894L63.737,197.894L63.737,235.083C65.705,235.652 94.661,235.757 97.609,235.213C97.618,232.235 97.629,229.186 97.633,226.137C97.638,222.975 97.638,219.812 97.634,216.65L97.634,207.4C97.634,204.322 97.634,201.243 97.634,197.882Z" style="fill:white;fill-rule:nonzero;"/>
            <path d="M157.576,303.368L157.576,198.195C159.193,197.665 219.121,197.459 223.038,197.99L223.038,220.404C222.159,220.467 221.252,220.588 220.345,220.589C209.673,220.602 199,220.605 188.328,220.598L185.36,220.598L185.36,238.031L218.707,238.031L218.707,261.223L185.658,261.223C185.105,263.208 184.953,277.04 185.402,280.869C186.247,280.926 187.152,281.038 188.057,281.039C198.73,281.052 209.402,281.054 220.075,281.048L223.044,281.048L223.044,303.368L157.576,303.368Z" style="fill:white;fill-rule:nonzero;"/>
            <path d="M254.283,303.409C253.782,300.586 253.883,199.807 254.38,197.891L281.542,197.891L281.542,275.656C282.714,275.717 283.634,275.805 284.553,275.806C295.305,275.816 306.057,275.818 316.809,275.812L319.717,275.812L319.717,303.409L254.283,303.409Z" style="fill:white;fill-rule:nonzero;"/>
        </g>
    </g>
</svg>
