<?xml version="1.0" encoding="UTF-8" standalone="no"?>
<!DOCTYPE svg PUBLIC "-//W3C//DTD SVG 1.1//EN" "http://www.w3.org/Graphics/SVG/1.1/DTD/svg11.dtd">
<svg width="100%" height="100%" viewBox="0 0 4096 4096" version="1.1" xmlns="http://www.w3.org/2000/svg" xmlns:xlink="http://www.w3.org/1999/xlink" xml:space="preserve" xmlns:serif="http://www.serif.com/" style="fill-rule:evenodd;clip-rule:evenodd;stroke-linejoin:round;stroke-miterlimit:2;">
    <g id="kubernetes" transform="matrix(17.6116,0,0,18.5468,20.2572,-25.9062)">
        <path d="M225.407,135.107L206.4,52.547C205.366,48.224 202.442,44.586 198.442,42.647L121.507,5.917C117.471,3.991 112.772,3.991 108.736,5.917L31.808,42.669C27.808,44.606 24.883,48.242 23.847,52.564L4.873,135.129C4.009,138.972 4.728,143.006 6.868,146.314C7.129,146.714 7.406,147.102 7.706,147.476L60.952,213.681C63.776,217.128 67.995,219.141 72.451,219.168L157.838,219.148C162.293,219.123 166.512,217.112 169.338,213.668L222.565,147.457C225.324,143.983 226.369,139.441 225.407,135.11L225.407,135.107ZM216.21,138.973C216.082,139.558 215.916,140.133 215.712,140.696C215.222,142.066 214.509,143.345 213.602,144.482L166.303,203.32L164.817,205.172C163.9,206.297 162.806,207.265 161.577,208.037C161.103,208.341 160.61,208.615 160.103,208.859C159.761,209.017 159.413,209.16 159.058,209.289C158.605,209.461 158.143,209.61 157.675,209.734C157.022,209.91 156.358,210.037 155.686,210.113C155.218,210.166 154.747,210.193 154.276,210.195L76.772,210.213L76.012,210.213C74.853,210.206 73.701,210.047 72.583,209.741C71.22,209.38 69.921,208.814 68.728,208.062C67.784,207.461 66.918,206.745 66.152,205.93C65.919,205.684 65.684,205.443 65.472,205.18L16.667,144.501C16.395,144.158 16.14,143.803 15.902,143.435C15.35,142.582 14.899,141.667 14.559,140.709C14.358,140.147 14.194,139.573 14.068,138.99C13.642,137.077 13.643,135.093 14.072,133.181L31.466,57.506C32.415,53.545 35.095,50.212 38.761,48.436L109.269,14.751C112.968,12.986 117.275,12.986 120.974,14.751L191.493,48.421C195.158,50.199 197.838,53.532 198.786,57.494L216.208,133.168C216.637,135.08 216.638,137.063 216.21,138.975L216.21,138.973Z" style="fill:white;fill-rule:nonzero;"/>
    </g>
    <g transform="matrix(6.05629,0,0,6.05629,739.841,730.418)">
        <g id="prometheus">
            <g>
                <path d="M216.412,11.432C331.049,11.456 425.144,104.367 425,217.395C424.854,332.14 331.144,423.762 214.015,423.68C99.504,423.599 6.92,330.592 7,215.719C7.079,103.391 101.369,11.408 216.412,11.432ZM153.044,83.773C155.672,96.634 153.119,108.628 149.233,120.426C146.542,128.596 142.822,136.462 140.601,144.743C136.941,158.387 132.788,172.112 131.265,186.067C129.075,206.134 137.008,223.808 150.582,241.383L88.186,228.323C88.295,230.283 88.179,231.025 88.394,231.654C94.308,248.926 104.716,263.478 116.382,277.195C117.616,278.646 120.427,279.392 122.508,279.396C184.722,279.51 246.936,279.504 309.15,279.424C311.08,279.422 313.655,279.059 314.839,277.821C328.174,263.885 338.37,248.015 344.745,228.019L278.69,240.878C283.047,232.389 288.021,224.924 290.88,216.722C300.66,188.664 296.606,161.536 282.569,135.951C271.303,115.419 260.912,94.976 266.532,70.231C254.636,81.91 250.067,96.779 247.168,112.102C244.312,127.194 242.629,142.508 240.418,157.82C240.104,157.358 239.696,157.016 239.633,156.619C239.377,155.012 239.139,153.393 239.052,151.771C237.709,126.69 232.781,102.525 222.381,79.445C216.259,65.859 209.508,51.969 215.819,35.763C211.548,38.002 207.689,40.227 204.922,43.404C196.664,52.886 193.249,64.275 192.371,76.745C191.62,87.398 190.592,98.102 188.605,108.578C186.517,119.586 183.206,130.377 175.767,140.495C172.758,118.879 172.425,97.504 153.044,83.773ZM313.455,298.335L118.323,298.335L118.323,332.034L313.455,332.034L313.455,298.335ZM157.014,349.443C156.853,377.504 185.604,398.41 221.137,396.893C250.584,395.636 276.646,372.604 274.405,349.443L157.014,349.443Z" style="fill:white;fill-rule:nonzero;"/>
            </g>
        </g>
    </g>
</svg>
