<?xml version="1.0" encoding="UTF-8" standalone="no"?>
<!DOCTYPE svg PUBLIC "-//W3C//DTD SVG 1.1//EN" "http://www.w3.org/Graphics/SVG/1.1/DTD/svg11.dtd">
<svg width="100%" height="100%" viewBox="0 0 8192 8192" version="1.1" xmlns="http://www.w3.org/2000/svg" xmlns:xlink="http://www.w3.org/1999/xlink" xml:space="preserve" xmlns:serif="http://www.serif.com/" style="fill-rule:evenodd;clip-rule:evenodd;stroke-linejoin:round;stroke-miterlimit:2;">
    <g id="g70" transform="matrix(162.625,0,0,162.625,7226.43,-1637.67)">
        <path id="path3055" d="M-19.415,12.111C-19.837,12.132 -20.25,12.237 -20.631,12.419L-37.22,20.345C-38.089,20.76 -38.722,21.547 -38.937,22.48L-43.029,40.285C-43.22,41.113 -43.065,41.984 -42.599,42.697C-42.543,42.784 -42.483,42.867 -42.418,42.948L-30.936,57.224C-30.334,57.972 -29.42,58.408 -28.456,58.408L-10.041,58.404C-9.077,58.405 -8.163,57.969 -7.561,57.222L3.917,42.943C4.519,42.195 4.745,41.214 4.53,40.281L0.431,22.475C0.216,21.543 -0.416,20.756 -1.285,20.341L-17.877,12.419C-18.355,12.19 -18.884,12.084 -19.415,12.111Z" style="fill:rgb(50,108,229);fill-rule:nonzero;"/>
        <path id="path3054-2-9" d="M-19.424,10.822C-19.869,10.845 -20.304,10.956 -20.705,11.148L-38.22,19.514C-39.138,19.952 -39.805,20.783 -40.032,21.767L-44.352,40.563C-44.554,41.438 -44.39,42.358 -43.898,43.112C-43.838,43.202 -43.775,43.29 -43.707,43.375L-31.586,58.447C-30.95,59.237 -29.986,59.697 -28.967,59.697L-9.528,59.693C-8.51,59.693 -7.546,59.234 -6.91,58.445L5.207,43.37C5.842,42.581 6.08,41.546 5.854,40.561L1.528,21.763C1.3,20.779 0.633,19.95 -0.284,19.512L-17.799,11.146C-18.304,10.905 -18.863,10.793 -19.424,10.822ZM-19.415,12.112C-18.885,12.085 -18.356,12.191 -17.877,12.419L-1.286,20.342C-0.416,20.757 0.216,21.543 0.431,22.476L4.53,40.281C4.745,41.215 4.519,42.196 3.917,42.944L-7.562,57.223C-8.164,57.97 -9.078,58.405 -10.042,58.405L-28.456,58.409C-29.421,58.409 -30.335,57.973 -30.936,57.225L-42.419,42.948C-42.483,42.868 -42.543,42.784 -42.599,42.698C-43.065,41.985 -43.221,41.114 -43.03,40.286L-38.937,22.48C-38.722,21.548 -38.09,20.761 -37.221,20.346L-20.631,12.419C-20.251,12.238 -19.837,12.133 -19.415,12.112Z" style="fill:white;fill-rule:nonzero;"/>
    </g>
    <g id="logo" transform="matrix(9.87507,0,0,9.87507,4096,4096)">
        <g transform="matrix(1,0,0,1,-217.36,-214.485)">
            <g transform="matrix(1,0,0,1,1.61,-2.89)">
                <path d="M216.412,11.432C331.049,11.456 425.144,104.367 425,217.395C424.854,332.14 331.144,423.762 214.015,423.68C99.504,423.599 6.92,330.592 7,215.719C7.079,103.391 101.369,11.408 216.412,11.432ZM153.044,83.773C155.672,96.634 153.119,108.628 149.233,120.426C146.542,128.596 142.822,136.462 140.601,144.743C136.941,158.387 132.788,172.112 131.265,186.067C129.075,206.134 137.008,223.808 150.582,241.383L88.186,228.323C88.295,230.283 88.179,231.025 88.394,231.654C94.308,248.926 104.716,263.478 116.382,277.195C117.616,278.646 120.427,279.392 122.508,279.396C184.722,279.51 246.936,279.504 309.15,279.424C311.08,279.422 313.655,279.059 314.839,277.821C328.174,263.885 338.37,248.015 344.745,228.019L278.69,240.878C283.047,232.389 288.021,224.924 290.88,216.722C300.66,188.664 296.606,161.536 282.569,135.951C271.303,115.419 260.912,94.976 266.532,70.231C254.636,81.91 250.067,96.779 247.168,112.102C244.312,127.194 242.629,142.508 240.418,157.82C240.104,157.358 239.696,157.016 239.633,156.619C239.377,155.012 239.139,153.393 239.052,151.771C237.709,126.69 232.781,102.525 222.381,79.445C216.259,65.859 209.508,51.969 215.819,35.763C211.548,38.002 207.689,40.227 204.922,43.404C196.664,52.886 193.249,64.275 192.371,76.745C191.62,87.398 190.592,98.102 188.605,108.578C186.517,119.586 183.206,130.377 175.767,140.495C172.758,118.879 172.425,97.504 153.044,83.773ZM313.455,298.335L118.323,298.335L118.323,332.034L313.455,332.034L313.455,298.335ZM157.014,349.443C156.853,377.504 185.604,398.41 221.137,396.893C250.584,395.636 276.646,372.604 274.405,349.443L157.014,349.443Z" style="fill:white;fill-rule:nonzero;"/>
            </g>
        </g>
    </g>
</svg>
