<?xml version="1.0" encoding="UTF-8" standalone="no"?>
<!DOCTYPE svg PUBLIC "-//W3C//DTD SVG 1.1//EN" "http://www.w3.org/Graphics/SVG/1.1/DTD/svg11.dtd">
<svg width="100%" height="100%" viewBox="0 0 1024 1024" version="1.1" xmlns="http://www.w3.org/2000/svg" xmlns:xlink="http://www.w3.org/1999/xlink" xml:space="preserve" xmlns:serif="http://www.serif.com/" style="fill-rule:evenodd;clip-rule:evenodd;stroke-linejoin:round;stroke-miterlimit:2;">
    <g id="border" transform="matrix(4.62843,0,0,4.62843,-20.9016,-5.55186)">
        <path d="M225.407,135.107L206.4,52.547C205.366,48.224 202.442,44.586 198.442,42.647L121.507,5.917C117.471,3.991 112.772,3.991 108.736,5.917L31.808,42.669C27.808,44.606 24.883,48.242 23.847,52.564L4.873,135.129C4.009,138.972 4.728,143.006 6.868,146.314C7.129,146.714 7.406,147.102 7.706,147.476L60.952,213.681C63.776,217.128 67.995,219.141 72.451,219.168L157.838,219.148C162.293,219.123 166.512,217.112 169.338,213.668L222.565,147.457C225.324,143.983 226.369,139.441 225.407,135.11L225.407,135.107ZM216.21,138.973C216.082,139.558 215.916,140.133 215.712,140.696C215.222,142.066 214.509,143.345 213.602,144.482L166.303,203.32L164.817,205.172C163.9,206.297 162.806,207.265 161.577,208.037C161.103,208.341 160.61,208.615 160.103,208.859C159.761,209.017 159.413,209.16 159.058,209.289C158.605,209.461 158.143,209.61 157.675,209.734C157.022,209.91 156.358,210.037 155.686,210.113C155.218,210.166 154.747,210.193 154.276,210.195L76.772,210.213L76.012,210.213C74.853,210.206 73.701,210.047 72.583,209.741C71.22,209.38 69.921,208.814 68.728,208.062C67.784,207.461 66.918,206.745 66.152,205.93C65.919,205.684 65.684,205.443 65.472,205.18L16.667,144.501C16.395,144.158 16.14,143.803 15.902,143.435C15.35,142.582 14.899,141.667 14.559,140.709C14.358,140.147 14.194,139.573 14.068,138.99C13.642,137.077 13.643,135.093 14.072,133.181L31.466,57.506C32.415,53.545 35.095,50.212 38.761,48.436L109.269,14.751C112.968,12.986 117.275,12.986 120.974,14.751L191.493,48.421C195.158,50.199 197.838,53.532 198.786,57.494L216.208,133.168C216.637,135.08 216.638,137.063 216.21,138.975L216.21,138.973Z" style="fill:white;fill-rule:nonzero;"/>
    </g>
    <g id="browser" transform="matrix(1,0,0,1,512,512)">
        <g transform="matrix(1,0,0,1,-256,-256)">
            <path d="M274.69,274.69L237.31,237.31L166,346L274.69,274.69ZM256,8C119,8 8,119 8,256C8,393 119,504 256,504C393,504 504,393 504,256C504,119 393,8 256,8ZM411.85,182.79L426.63,176.66C427.599,176.26 428.637,176.053 429.686,176.053C432.918,176.053 435.846,178.012 437.08,181C437.484,181.972 437.692,183.015 437.692,184.068C437.692,187.298 435.735,190.225 432.75,191.46L418,197.57C413.946,199.248 409.229,197.293 407.55,193.24C405.869,189.194 407.808,184.481 411.85,182.79ZM314.43,94L320.55,79.22C322.241,75.178 326.954,73.239 331,74.92C335.053,76.599 337.008,81.316 335.33,85.37L329.2,100.15C327.521,104.203 322.804,106.158 318.75,104.48C315.766,103.245 313.81,100.318 313.81,97.088C313.81,96.028 314.021,94.978 314.43,94ZM256,60C260.389,60 264,63.611 264,68L264,84C264,88.389 260.389,92 256,92C251.611,92 248,88.389 248,84L248,68C248,63.611 251.611,60 256,60ZM181,74.92C181.972,74.516 183.015,74.308 184.068,74.308C187.298,74.308 190.225,76.265 191.46,79.25L197.57,94C198.012,95.01 198.24,96.101 198.24,97.204C198.24,101.593 194.628,105.204 190.24,105.204C186.954,105.204 183.988,103.18 182.79,100.12L176.66,85.34C175.003,81.291 176.959,76.596 181,74.92ZM117.42,117.41C120.523,114.309 125.627,114.309 128.73,117.41L140,128.72C143.081,131.82 143.081,136.9 140,140C136.897,143.101 131.793,143.101 128.69,140L117.38,128.69C114.307,125.582 114.32,120.502 117.41,117.41L117.42,117.41ZM60,256C60,251.611 63.611,248 68,248L84,248C88.389,248 92,251.611 92,256C92,260.389 88.389,264 84,264L68,264C63.611,264 60,260.389 60,256ZM100.15,329.21L85.37,335.34C84.401,335.74 83.363,335.947 82.314,335.947C79.082,335.947 76.154,333.988 74.92,331C74.516,330.028 74.308,328.985 74.308,327.932C74.308,324.702 76.265,321.775 79.25,320.54L94,314.43C98.054,312.752 102.771,314.707 104.45,318.76C106.131,322.806 104.192,327.519 100.15,329.21ZM104.48,193.21C103.253,196.212 100.317,198.184 97.074,198.184C96.019,198.184 94.974,197.975 94,197.57L79.22,191.45C75.178,189.759 73.239,185.046 74.92,181C76.599,176.947 81.316,174.992 85.37,176.67L100.15,182.8C104.198,184.479 106.151,189.189 104.48,193.24L104.48,193.21ZM197.57,418L191.45,432.78C190.214,435.766 187.286,437.723 184.055,437.723C179.665,437.723 176.052,434.11 176.052,429.72C176.052,428.67 176.259,427.63 176.66,426.66L182.79,411.88C183.988,408.82 186.954,406.796 190.24,406.796C194.628,406.796 198.24,410.407 198.24,414.796C198.24,415.899 198.012,416.99 197.57,418ZM264,444C264,448.389 260.389,452 256,452C251.611,452 248,448.389 248,444L248,428C248,423.611 251.611,420 256,420C260.389,420 264,423.611 264,428L264,444ZM331,437.08C330.028,437.484 328.985,437.692 327.932,437.692C324.702,437.692 321.775,435.735 320.54,432.75L314.43,418C312.752,413.946 314.707,409.229 318.76,407.55C322.814,405.872 327.531,407.827 329.21,411.88L335.34,426.66C336.997,430.709 335.041,435.404 331,437.08ZM394.58,394.59C391.477,397.691 386.373,397.691 383.27,394.59L372,383.28C368.919,380.18 368.919,375.1 372,372C375.103,368.899 380.207,368.899 383.31,372L394.62,383.31C397.693,386.418 397.68,391.498 394.59,394.59L394.58,394.59ZM286.25,286.25L110.34,401.66L225.75,225.75L401.66,110.34L286.25,286.25ZM437.08,331C435.401,335.053 430.684,337.008 426.63,335.33L411.85,329.2C407.797,327.521 405.842,322.804 407.52,318.75C408.755,315.766 411.682,313.81 414.912,313.81C415.972,313.81 417.022,314.021 418,314.43L432.78,320.55C436.822,322.241 438.761,326.954 437.08,331ZM444,264L428,264C423.611,264 420,260.389 420,256C420,251.611 423.611,248 428,248L444,248C448.389,248 452,251.611 452,256C452,260.389 448.389,264 444,264Z" style="fill:white;fill-rule:nonzero;"/>
        </g>
    </g>
</svg>
