<?xml version="1.0" encoding="UTF-8" standalone="no"?>
<!DOCTYPE svg PUBLIC "-//W3C//DTD SVG 1.1//EN" "http://www.w3.org/Graphics/SVG/1.1/DTD/svg11.dtd">
<svg width="100%" height="100%" viewBox="0 0 1024 1024" version="1.1" xmlns="http://www.w3.org/2000/svg" xmlns:xlink="http://www.w3.org/1999/xlink" xml:space="preserve" xmlns:serif="http://www.serif.com/" style="fill-rule:evenodd;clip-rule:evenodd;stroke-linejoin:round;stroke-miterlimit:2;">
    <g id="border" transform="matrix(4.62843,0,0,4.62843,-20.9016,-5.55186)">
        <path d="M225.407,135.107L206.4,52.547C205.366,48.224 202.442,44.586 198.442,42.647L121.507,5.917C117.471,3.991 112.772,3.991 108.736,5.917L31.808,42.669C27.808,44.606 24.883,48.242 23.847,52.564L4.873,135.129C4.009,138.972 4.728,143.006 6.868,146.314C7.129,146.714 7.406,147.102 7.706,147.476L60.952,213.681C63.776,217.128 67.995,219.141 72.451,219.168L157.838,219.148C162.293,219.123 166.512,217.112 169.338,213.668L222.565,147.457C225.324,143.983 226.369,139.441 225.407,135.11L225.407,135.107ZM216.21,138.973C216.082,139.558 215.916,140.133 215.712,140.696C215.222,142.066 214.509,143.345 213.602,144.482L166.303,203.32L164.817,205.172C163.9,206.297 162.806,207.265 161.577,208.037C161.103,208.341 160.61,208.615 160.103,208.859C159.761,209.017 159.413,209.16 159.058,209.289C158.605,209.461 158.143,209.61 157.675,209.734C157.022,209.91 156.358,210.037 155.686,210.113C155.218,210.166 154.747,210.193 154.276,210.195L76.772,210.213L76.012,210.213C74.853,210.206 73.701,210.047 72.583,209.741C71.22,209.38 69.921,208.814 68.728,208.062C67.784,207.461 66.918,206.745 66.152,205.93C65.919,205.684 65.684,205.443 65.472,205.18L16.667,144.501C16.395,144.158 16.14,143.803 15.902,143.435C15.35,142.582 14.899,141.667 14.559,140.709C14.358,140.147 14.194,139.573 14.068,138.99C13.642,137.077 13.643,135.093 14.072,133.181L31.466,57.506C32.415,53.545 35.095,50.212 38.761,48.436L109.269,14.751C112.968,12.986 117.275,12.986 120.974,14.751L191.493,48.421C195.158,50.199 197.838,53.532 198.786,57.494L216.208,133.168C216.637,135.08 216.638,137.063 216.21,138.975L216.21,138.973Z" style="fill:white;fill-rule:nonzero;"/>
    </g>
    <g id="github" transform="matrix(1,0,0,1,512,512)">
        <g transform="matrix(1,0,0,1,-248,-256)">
            <path d="M165.9,397.4C165.9,399.4 163.6,401 160.7,401C157.4,401.3 155.1,399.7 155.1,397.4C155.1,395.4 157.4,393.8 160.3,393.8C163.3,393.5 165.9,395.1 165.9,397.4ZM134.8,392.9C134.1,394.9 136.1,397.2 139.1,397.8C141.7,398.8 144.7,397.8 145.3,395.8C145.9,393.8 144,391.5 141,390.6C138.4,389.9 135.5,390.9 134.8,392.9ZM179,391.2C176.1,391.9 174.1,393.8 174.4,396.1C174.7,398.1 177.3,399.4 180.3,398.7C183.2,398 185.2,396.1 184.9,394.1C184.6,392.2 181.9,390.9 179,391.2ZM244.8,8C106.1,8 0,113.3 0,252C0,362.9 69.8,457.8 169.5,491.2C182.3,493.5 186.8,485.6 186.8,479.1C186.8,472.9 186.5,438.7 186.5,417.7C186.5,417.7 116.5,432.7 101.8,387.9C101.8,387.9 90.4,358.8 74,351.3C74,351.3 51.1,335.6 75.6,335.9C75.6,335.9 100.5,337.9 114.2,361.7C136.1,400.3 172.8,389.2 187.1,382.6C189.4,366.6 195.9,355.5 203.1,348.9C147.2,342.7 90.8,334.6 90.8,238.4C90.8,210.9 98.4,197.1 114.4,179.5C111.8,173 103.3,146.2 117,111.6C137.9,105.1 186,138.6 186,138.6C206,133 227.5,130.1 248.8,130.1C270.1,130.1 291.6,133 311.6,138.6C311.6,138.6 359.7,105 380.6,111.6C394.3,146.3 385.8,173 383.2,179.5C399.2,197.2 409,211 409,238.4C409,334.9 350.1,342.6 294.2,348.9C303.4,356.8 311.2,371.8 311.2,395.3C311.2,429 310.9,470.7 310.9,478.9C310.9,485.4 315.5,493.3 328.2,491C428.2,457.8 496,362.9 496,252C496,113.3 383.5,8 244.8,8ZM97.2,352.9C95.9,353.9 96.2,356.2 97.9,358.1C99.5,359.7 101.8,360.4 103.1,359.1C104.4,358.1 104.1,355.8 102.4,353.9C100.8,352.3 98.5,351.6 97.2,352.9ZM86.4,344.8C85.7,346.1 86.7,347.7 88.7,348.7C90.3,349.7 92.3,349.4 93,348C93.7,346.7 92.7,345.1 90.7,344.1C88.7,343.5 87.1,343.8 86.4,344.8ZM118.8,380.4C117.2,381.7 117.8,384.7 120.1,386.6C122.4,388.9 125.3,389.2 126.6,387.6C127.9,386.3 127.3,383.3 125.3,381.4C123.1,379.1 120.1,378.8 118.8,380.4ZM107.4,365.7C105.8,366.7 105.8,369.3 107.4,371.6C109,373.9 111.7,374.9 113,373.9C114.6,372.6 114.6,370 113,367.7C111.6,365.4 109,364.4 107.4,365.7Z" style="fill:white;fill-rule:nonzero;"/>
        </g>
    </g>
</svg>
